<svg width="50" height="50" viewBox="0 0 50 50" fill="none" xmlns="http://www.w3.org/2000/svg">
<rect width="50" height="50" fill="white"/>
<path d="M45 28L45 43C45 44.1046 44.1046 45 43 45L28 45L28 39.75C28 39.6119 28.1119 39.5 28.25 39.5L28.5 39.5C30.1569 39.5 31.5 38.1569 31.5 36.5C31.5 34.8431 30.1569 33.5 28.5 33.5L28.25 33.5C28.1119 33.5 28 33.3881 28 33.25L28 28L33.25 28C33.3881 28 33.5 27.8881 33.5 27.75L33.5 27.5C33.5 25.8431 34.8431 24.5 36.5 24.5C38.1569 24.5 39.5 25.8431 39.5 27.5L39.5 27.75C39.5 27.8881 39.6119 28 39.75 28L45 28Z" fill="#F2BB0A"/>
<path d="M28 11.5C28 11.2239 28.2239 11 28.5 11H33.25C33.388 11 33.5 11.1119 33.5 11.25V11.5C33.5 13.1569 34.8431 14.5 36.5 14.5C38.1568 14.5 39.5 13.1569 39.5 11.5V11.25C39.5 11.1119 39.6119 11 39.75 11H42.9999C44.1045 11 44.9999 11.8954 44.9999 13L44.9999 28H39.75C39.6119 28 39.5 27.8881 39.5 27.75V27.5C39.5 25.8431 38.1568 24.5 36.5 24.5C34.8431 24.5 33.5 25.8431 33.5 27.5V27.75C33.5 27.8881 33.388 28 33.25 28H27.9999L27.9999 22.75C27.9999 22.6119 27.888 22.5 27.7499 22.5H27.5C25.8431 22.5 24.5 21.1569 24.5 19.5C24.5 17.8431 25.8431 16.5 27.5 16.5H27.75C27.888 16.5 28 16.3881 28 16.25L28 11.5Z" fill="#B19FBA"/>
<path d="M28.0002 28H33.2502C33.3883 28 33.5002 27.8881 33.5002 27.75V27.5C33.5002 25.8431 34.8433 24.5 36.5002 24.5C38.157 24.5 39.5002 25.8431 39.5002 27.5V27.75C39.5002 27.8881 39.6121 28 39.7502 28H45.0001L45.0002 13C45.0002 12.4477 44.7763 11.9477 44.4144 11.5858L28.0002 28Z" fill="#8A7098"/>
<path d="M28 45L13 45C11.8954 45 11 44.1046 11 43L11 39.7059C11 39.5922 10.9078 39.5 10.7941 39.5L10.5 39.5C8.84314 39.5 7.5 38.1569 7.5 36.5C7.5 34.8431 8.84314 33.5 10.5 33.5L10.7941 33.5C10.9078 33.5 11 33.4078 11 33.2941L11 28.5C11 28.2239 11.2239 28 11.5 28L16.2941 28C16.4078 28 16.5 28.0922 16.5 28.2059L16.5 28.5C16.5 30.1569 17.8431 31.5 19.5 31.5C21.1569 31.5 22.5 30.1569 22.5 28.5L22.5 28.2059C22.5 28.0922 22.5922 28 22.7059 28L28 28L28 33.2941C28 33.4078 28.0922 33.5 28.2059 33.5L28.5 33.5C30.1569 33.5 31.5 34.8431 31.5 36.5C31.5 38.1569 30.1569 39.5 28.5 39.5L28.2059 39.5C28.0922 39.5 28 39.5922 28 39.7059L28 45Z" fill="#F57C75"/>
<path fill-rule="evenodd" clip-rule="evenodd" d="M11.5859 44.4142C11.9479 44.7761 12.4479 45 13.0001 45H28.0002L28.0002 39.7059C28.0002 39.5922 28.0923 39.5 28.206 39.5H28.5002C30.157 39.5 31.5002 38.1569 31.5002 36.5C31.5002 34.8431 30.157 33.5 28.5002 33.5H28.206C28.0923 33.5 28.0002 33.4078 28.0002 33.2941L28.0002 28L11.5859 44.4142Z" fill="#ED0C00"/>
<path d="M4.66007 19.1458C4.40058 19.0514 4.26678 18.7644 4.36123 18.5049L5.98584 14.0414C6.03306 13.9116 6.17653 13.8447 6.30627 13.8919L6.54119 13.9774C8.09813 14.5441 9.81965 13.7414 10.3863 12.1844C10.953 10.6275 10.1502 8.90597 8.59331 8.33929L8.35839 8.25378C8.22865 8.20656 8.16175 8.0631 8.20897 7.93336L9.32054 4.87935C9.69832 3.8414 10.846 3.30622 11.884 3.68401L25.5095 8.6433C25.769 8.73775 25.9028 9.02467 25.8083 9.28416L24.1837 13.7477C24.1365 13.8774 23.9931 13.9443 23.8633 13.8971L23.6284 13.8116C22.0715 13.2449 20.3499 14.0477 19.7833 15.6046C19.2166 17.1616 20.0193 18.8831 21.5763 19.4498L21.8112 19.5353C21.9409 19.5825 22.0078 19.726 21.9606 19.8557L20.336 24.3193C20.2416 24.5788 19.9546 24.7126 19.6951 24.6181L15.2316 22.9935C15.1019 22.9463 14.9584 23.0132 14.9112 23.1429L14.8257 23.3778C14.259 24.9348 12.5375 25.7375 10.9806 25.1708C9.42362 24.6042 8.62086 22.8826 9.18753 21.3257L9.27302 21.0908C9.32025 20.9611 9.25335 20.8176 9.12361 20.7704L4.66007 19.1458Z" fill="#E8E3DB"/>
<path d="M12.2881 4.05566L10.578 8.75413C10.4835 9.01362 10.6173 9.30054 10.8768 9.39498V9.39498C12.4338 9.96166 13.2365 11.6832 12.6698 13.2401V13.2401C12.1032 14.7971 10.3816 15.5998 8.8247 15.0331V15.0331C8.56521 14.9387 8.27829 15.0725 8.18384 15.332L6.64475 19.5606" stroke="#F6F4F0" stroke-width="3"/>
<path d="M45 28L45 43C45 44.1046 44.1046 45 43 45L28 45L28 39.75C28 39.6119 28.1119 39.5 28.25 39.5L28.5 39.5C30.1569 39.5 31.5 38.1569 31.5 36.5V36.5C31.5 34.8431 30.1569 33.5 28.5 33.5L28.25 33.5C28.1119 33.5 28 33.3881 28 33.25L28 28L33.25 28C33.3881 28 33.5 27.8881 33.5 27.75L33.5 27.5C33.5 25.8431 34.8431 24.5 36.5 24.5V24.5C38.1569 24.5 39.5 25.8431 39.5 27.5L39.5 27.75C39.5 27.8881 39.6119 28 39.75 28L45 28Z" stroke="#3C1A53" stroke-width="2"/>
<path d="M28 11.5C28 11.2239 28.2239 11 28.5 11H33.25C33.388 11 33.5 11.1119 33.5 11.25V11.5C33.5 13.1569 34.8431 14.5 36.5 14.5V14.5C38.1568 14.5 39.5 13.1569 39.5 11.5V11.25C39.5 11.1119 39.6119 11 39.75 11H42.9999C44.1045 11 44.9999 11.8954 44.9999 13L44.9999 28H39.75C39.6119 28 39.5 27.8881 39.5 27.75V27.5C39.5 25.8431 38.1568 24.5 36.5 24.5V24.5C34.8431 24.5 33.5 25.8431 33.5 27.5V27.75C33.5 27.8881 33.388 28 33.25 28H27.9999L27.9999 22.75C27.9999 22.6119 27.888 22.5 27.7499 22.5H27.5C25.8431 22.5 24.5 21.1569 24.5 19.5V19.5C24.5 17.8431 25.8431 16.5 27.5 16.5H27.75C27.888 16.5 28 16.3881 28 16.25L28 11.5Z" stroke="#3C1A53" stroke-width="2"/>
<path d="M28 45L13 45C11.8954 45 11 44.1046 11 43L11 39.7059C11 39.5922 10.9078 39.5 10.7941 39.5L10.5 39.5C8.84314 39.5 7.5 38.1569 7.5 36.5V36.5C7.5 34.8431 8.84314 33.5 10.5 33.5L10.7941 33.5C10.9078 33.5 11 33.4078 11 33.2941L11 28.5C11 28.2239 11.2239 28 11.5 28L16.2941 28C16.4078 28 16.5 28.0922 16.5 28.2059L16.5 28.5C16.5 30.1569 17.8431 31.5 19.5 31.5V31.5C21.1569 31.5 22.5 30.1569 22.5 28.5L22.5 28.2059C22.5 28.0922 22.5922 28 22.7059 28L28 28L28 33.2941C28 33.4078 28.0922 33.5 28.2059 33.5L28.5 33.5C30.1569 33.5 31.5 34.8431 31.5 36.5V36.5C31.5 38.1569 30.1569 39.5 28.5 39.5L28.2059 39.5C28.0922 39.5 28 39.5922 28 39.7059L28 45Z" stroke="#3C1A53" stroke-width="2"/>
<path d="M4.66007 19.1458C4.40058 19.0514 4.26678 18.7644 4.36123 18.5049L5.98584 14.0414C6.03306 13.9116 6.17653 13.8447 6.30627 13.8919L6.54119 13.9774C8.09813 14.5441 9.81965 13.7414 10.3863 12.1844V12.1844C10.953 10.6275 10.1502 8.90597 8.59331 8.33929L8.35839 8.25378C8.22865 8.20656 8.16175 8.0631 8.20897 7.93336L9.32054 4.87935C9.69832 3.8414 10.846 3.30622 11.884 3.68401L25.5095 8.6433C25.769 8.73775 25.9028 9.02467 25.8083 9.28416L24.1837 13.7477C24.1365 13.8774 23.9931 13.9443 23.8633 13.8971L23.6284 13.8116C22.0715 13.2449 20.3499 14.0477 19.7833 15.6046V15.6046C19.2166 17.1616 20.0193 18.8831 21.5763 19.4498L21.8112 19.5353C21.9409 19.5825 22.0078 19.726 21.9606 19.8557L20.336 24.3193C20.2416 24.5788 19.9546 24.7126 19.6951 24.6181L15.2316 22.9935C15.1019 22.9463 14.9584 23.0132 14.9112 23.1429L14.8257 23.3778C14.259 24.9348 12.5375 25.7375 10.9806 25.1708V25.1708C9.42362 24.6042 8.62086 22.8826 9.18753 21.3257L9.27302 21.0908C9.32025 20.9611 9.25335 20.8176 9.12361 20.7704L4.66007 19.1458Z" stroke="#3C1A53" stroke-width="2"/>
</svg>
