<svg width="50" height="50" viewBox="0 0 50 50" fill="none" xmlns="http://www.w3.org/2000/svg">
<path d="M12 45C12 46.1046 12.8954 47 14 47L40 47C41.1046 47 42 46.1046 42 45L42 9C42 7.89543 41.1046 7 40 7L14 7C12.8954 7 12 7.89543 12 9L12 45Z" fill="#B19FBA"/>
<path d="M12 42L42 12V45C42 46.1046 41.1046 47 40 47H14C12.8954 47 12 46.1046 12 45V42Z" fill="#8A7098"/>
<path d="M12 45C12 46.1046 12.8954 47 14 47L40 47C41.1046 47 42 46.1046 42 45L42 9C42 7.89543 41.1046 7 40 7L14 7C12.8954 7 12 7.89543 12 9L12 45Z" stroke="#3C1A53" stroke-width="2"/>
<path d="M38 41C38 42.1046 37.1046 43 36 43L10 43C8.89546 43 8.00003 42.1046 8.00003 41L8.00003 10.8284C8.00003 10.298 8.21074 9.78928 8.58581 9.41421L14.4142 3.58579C14.7893 3.21071 15.298 3 15.8284 3L36 3C37.1046 3 38 3.89543 38 5L38 41Z" fill="#F6F4F0"/>
<path d="M38 8L8 38L8 41C8 42.1046 8.89543 43 10 43H36C37.1045 43 38 42.1046 38 41V8Z" fill="#E8E3DB"/>
<path d="M14 11L7.99996 11L7.99996 10L15 3L16 3L16 9C16 10.1046 15.1046 11 14 11Z" fill="#E8E3DB"/>
<path d="M38 41C38 42.1046 37.1046 43 36 43L10 43C8.89546 43 8.00003 42.1046 8.00003 41L8.00003 10.8284C8.00003 10.298 8.21074 9.78928 8.58581 9.41421L14.4142 3.58579C14.7893 3.21071 15.298 3 15.8284 3L36 3C37.1046 3 38 3.89543 38 5L38 41Z" stroke="#3C1A53" stroke-width="2"/>
<path d="M7.99996 11L14 11C15.1046 11 16 10.1046 16 9L16 3" stroke="#3C1A53" stroke-width="2"/>
<path d="M13.5 19H32.5" stroke="#3C1A53" stroke-width="2" stroke-linecap="round"/>
<path d="M13.5 16H32.5" stroke="#3C1A53" stroke-width="2" stroke-linecap="round"/>
<path d="M13.5 24H32.5" stroke="#3C1A53" stroke-width="2" stroke-linecap="round"/>
<path d="M13.5 27H32.5" stroke="#3C1A53" stroke-width="2" stroke-linecap="round"/>
<path d="M13.5 32H32.5" stroke="#3C1A53" stroke-width="2" stroke-linecap="round"/>
<path d="M13.5 35H32.5" stroke="#3C1A53" stroke-width="2" stroke-linecap="round"/>
<path d="M36.5 16.5L21 32L26 37L41.5 21.5L36.5 16.5Z" fill="#F7D66C"/>
<path d="M37.5 17.5L22 33L23.5 34.5L39 19L37.5 17.5Z" fill="#F2BB0A"/>
<path d="M26 37L41.5 21.5L40 20L24.5 35.5L26 37Z" fill="#F2BB0A"/>
<path d="M44 19L39 14L36.5 16.5L41.5 21.5L44 19Z" fill="#F6F4F0"/>
<path d="M44 19L40 15L37.5 17.5L41.5 21.5L44 19Z" fill="#E8E3DB"/>
<path d="M40.5 12.5L39 14L44 19L45.5 17.5C46.8807 16.1193 46.8807 13.8807 45.5 12.5C44.1193 11.1193 41.8807 11.1193 40.5 12.5Z" fill="#F57C75"/>
<path d="M41.5 13.5L40 15L44 19L45.5 17.5C46.6046 16.3954 46.6046 14.6046 45.5 13.5C44.3954 12.3954 42.6046 12.3954 41.5 13.5Z" fill="#ED0C00"/>
<path d="M25.0417 37.9583L26 37L21 32L20.0417 32.9583C20.0143 32.9857 19.9936 33.0192 19.9813 33.056L17.6581 40.0257C17.593 40.2211 17.7789 40.407 17.9743 40.3419L24.944 38.0187C24.9808 38.0064 25.0143 37.9857 25.0417 37.9583Z" fill="#F6F4F0"/>
<path d="M26 37L25.0342 37.9659C25.0183 37.9817 25.0004 37.9953 24.981 38.0064L19.3579 39.8807L21.4813 33.5557C21.4936 33.5191 21.5142 33.4858 21.5415 33.4585L22 33L26 37Z" fill="#E8E3DB"/>
<path d="M39 14L40.5 12.5C41.8807 11.1193 44.1193 11.1193 45.5 12.5V12.5C46.8807 13.8807 46.8807 16.1193 45.5 17.5L44 19M39 14L44 19M39 14L36.5 16.5M44 19L41.5 21.5M36.5 16.5L21 32L23.5 34.5M36.5 16.5L39 19M41.5 21.5L26 37L23.5 34.5M41.5 21.5L39 19M39 19L23.5 34.5" stroke="#3C1A53" stroke-width="2" stroke-linecap="round"/>
<path d="M25.0417 37.9583L25.8232 37.1768C25.9209 37.0791 25.9209 36.9209 25.8232 36.8232L21.1768 32.1768C21.0791 32.0791 20.9209 32.0791 20.8232 32.1768L20.0417 32.9583C20.0143 32.9857 19.9936 33.0192 19.9813 33.056L17.6581 40.0257C17.593 40.2211 17.7789 40.407 17.9743 40.3419L24.944 38.0187C24.9808 38.0064 25.0143 37.9857 25.0417 37.9583Z" stroke="#3C1A53" stroke-width="2" stroke-linecap="round"/>
</svg>
