<svg width="50" height="50" viewBox="0 0 50 50" fill="none" xmlns="http://www.w3.org/2000/svg">
<path d="M12 45C12 46.1046 12.8954 47 14 47L40 47C41.1046 47 42 46.1046 42 45L42 9C42 7.89543 41.1046 7 40 7L14 7C12.8954 7 12 7.89543 12 9L12 45Z" fill="#B19FBA"/>
<path d="M12 42L42 12V45C42 46.1046 41.1046 47 40 47H14C12.8954 47 12 46.1046 12 45V42Z" fill="#8A7098"/>
<path d="M12 45C12 46.1046 12.8954 47 14 47L40 47C41.1046 47 42 46.1046 42 45L42 9C42 7.89543 41.1046 7 40 7L14 7C12.8954 7 12 7.89543 12 9L12 45Z" stroke="#3C1A53" stroke-width="2"/>
<path d="M38 41C38 42.1046 37.1046 43 36 43L10 43C8.89546 43 8.00003 42.1046 8.00003 41L8.00003 10.8284C8.00003 10.298 8.21074 9.78928 8.58581 9.41421L14.4142 3.58579C14.7893 3.21071 15.298 3 15.8284 3L36 3C37.1046 3 38 3.89543 38 5L38 41Z" fill="#F6F4F0"/>
<path d="M38 8L8 38L8 41C8 42.1046 8.89543 43 10 43H36C37.1045 43 38 42.1046 38 41V8Z" fill="#E8E3DB"/>
<path d="M14 11L7.99996 11L7.99996 10L15 3L16 3L16 9C16 10.1046 15.1046 11 14 11Z" fill="#E8E3DB"/>
<path d="M38 41C38 42.1046 37.1046 43 36 43L10 43C8.89546 43 8.00003 42.1046 8.00003 41L8.00003 10.8284C8.00003 10.298 8.21074 9.78928 8.58581 9.41421L14.4142 3.58579C14.7893 3.21071 15.298 3 15.8284 3L36 3C37.1046 3 38 3.89543 38 5L38 41Z" stroke="#3C1A53" stroke-width="2"/>
<path d="M7.99996 11L14 11C15.1046 11 16 10.1046 16 9L16 3" stroke="#3C1A53" stroke-width="2"/>
<path d="M12.5 19H26.5" stroke="#3C1A53" stroke-width="2" stroke-linecap="round"/>
<path d="M12.5 16H26.5" stroke="#3C1A53" stroke-width="2" stroke-linecap="round"/>
<path d="M12.5 24H26.5" stroke="#3C1A53" stroke-width="2" stroke-linecap="round"/>
<path d="M12.5 27H26.5" stroke="#3C1A53" stroke-width="2" stroke-linecap="round"/>
<path d="M12.5 32H26.5" stroke="#3C1A53" stroke-width="2" stroke-linecap="round"/>
<path d="M12.5 35H26.5" stroke="#3C1A53" stroke-width="2" stroke-linecap="round"/>
<path d="M29.5 17L30.5314 18.719C30.7344 19.0573 31.2309 19.0382 31.4073 18.6853L34 13.5" stroke="#3C1A53" stroke-width="2" stroke-linecap="round"/>
<path d="M29.5 25L30.5314 26.719C30.7344 27.0573 31.2309 27.0382 31.4073 26.6853L34 21.5" stroke="#3C1A53" stroke-width="2" stroke-linecap="round"/>
<path d="M29.5 33L30.5314 34.719C30.7344 35.0573 31.2309 35.0382 31.4073 34.6853L34 29.5" stroke="#3C1A53" stroke-width="2" stroke-linecap="round"/>
</svg>
