<svg width="50" height="50" viewBox="0 0 50 50" fill="none" xmlns="http://www.w3.org/2000/svg">
<rect width="50" height="50" fill="white"/>
<path d="M29 28V32H45V28C45 23.5817 41.4183 20 37 20C32.5817 20 29 23.5817 29 28Z" fill="#F57C75"/>
<path d="M42.6569 22.3431C44.1046 23.7909 45 25.7909 45 28V32H33L42.6569 22.3431Z" fill="#ED0C00"/>
<path d="M17 23V30C17 31.1046 17.8954 32 19 32H31C32.1046 32 33 31.1046 33 30V23C33 18.5817 29.4183 15 25 15C20.5817 15 17 18.5817 17 23Z" fill="#F7D66C"/>
<path d="M17.1768 30.8232L30.6569 17.3431C32.1046 18.7909 33 20.7909 33 23V30C33 31.1046 32.1046 32 31 32H19C18.1889 32 17.4906 31.5172 17.1768 30.8232Z" fill="#F2BB0A"/>
<path d="M5 28V32H19C20.1046 32 21 31.1046 21 30V28C21 23.5817 17.4183 20 13 20C8.58172 20 5 23.5817 5 28Z" fill="#B19FBA"/>
<path d="M9 32H19C20.1046 32 21 31.1046 21 30V28C21 25.7909 20.1046 23.7909 18.6569 22.3431L9 32Z" fill="#8A7098"/>
<circle cx="37.5" cy="12.5" r="4.5" fill="#F57C75"/>
<circle cx="25" cy="7.5" r="4.5" fill="#F7D66C"/>
<circle cx="12.5" cy="12.5" r="4.5" fill="#B19FBA"/>
<path d="M17 29.5V23C17 18.5817 20.5817 15 25 15V15C29.4183 15 33 18.5817 33 23V29.5" stroke="#3C1A53" stroke-width="2" stroke-linecap="round"/>
<path d="M29 29.5V28C29 23.5817 32.5817 20 37 20V20C41.4183 20 45 23.5817 45 28V31.5" stroke="#3C1A53" stroke-width="2" stroke-linecap="round"/>
<path d="M5 31.5V28C5 23.5817 8.58172 20 13 20V20C17.4183 20 21 23.5817 21 28V29.5" stroke="#3C1A53" stroke-width="2" stroke-linecap="round"/>
<path d="M21 29.5V29.5C21 30.6046 20.1046 31.5 19 31.5V31.5C17.8954 31.5 17 30.6046 17 29.5V29.5" stroke="#3C1A53" stroke-width="2" stroke-linecap="round"/>
<path d="M33 29.5V29.5C33 30.6046 32.1046 31.5 31 31.5V31.5C29.8954 31.5 29 30.6046 29 29.5V29.5" stroke="#3C1A53" stroke-width="2" stroke-linecap="round"/>
<circle cx="25" cy="7.5" r="4.5" stroke="#3C1A53" stroke-width="2"/>
<circle cx="37.5" cy="12.5" r="4.5" stroke="#3C1A53" stroke-width="2"/>
<circle cx="12.5" cy="12.5" r="4.5" stroke="#3C1A53" stroke-width="2"/>
<path d="M4 33C4 32.7239 4.22386 32.5 4.5 32.5H9C9.27614 32.5 9.5 32.7239 9.5 33V43.5C9.5 43.7761 9.27614 44 9 44H4.5C4.22386 44 4 43.7761 4 43.5V33Z" fill="#8C857B"/>
<path fill-rule="evenodd" clip-rule="evenodd" d="M9.5 33.5H16.5C18.0834 33.5 21.7419 33.6475 24.712 36.5076C24.7149 36.5104 24.7178 36.5121 24.7199 36.5131L24.7214 36.5136L30.3816 36.891C31.293 36.9518 32.0491 37.5449 32.3546 38.3548L42.9461 34.8243C43.6343 34.5948 44.3804 34.6087 45.0597 34.8634C46.7654 35.503 47.0578 37.7989 45.5432 38.8289C36.8154 44.7641 30.7572 47.1527 25.3999 47.2869C20.0456 47.421 15.4747 45.2964 9.77639 42.4472L9.5 42.309V33.5Z" fill="#E8E3DB"/>
<path d="M10 42C21.4201 47.7101 27.8589 50.2502 45.262 38.4155C46.4373 37.6163 46.2149 35.8306 44.8841 35.3315V35.3315C44.3121 35.117 43.6838 35.1054 43.1042 35.2986L32 39" stroke="#3C1A53" stroke-width="2" stroke-linecap="round"/>
<path d="M10 34H16.5C18.0561 34 21.5423 34.1494 24.3652 36.8677C24.4524 36.9517 24.5666 37.0044 24.6875 37.0125L30.3483 37.3899C31.2778 37.4519 32 38.2238 32 39.1554V39.1554C32 40.1615 31.1622 40.9651 30.157 40.9232L20 40.5" stroke="#3C1A53" stroke-width="2" stroke-linecap="round"/>
<path d="M4 33C4 32.7239 4.22386 32.5 4.5 32.5H9C9.27614 32.5 9.5 32.7239 9.5 33V43.5C9.5 43.7761 9.27614 44 9 44H4.5C4.22386 44 4 43.7761 4 43.5V33Z" stroke="#3C1A53" stroke-width="2"/>
</svg>
