<svg width="50" height="50" viewBox="0 0 50 50" fill="none" xmlns="http://www.w3.org/2000/svg">
<g clip-path="url(#clip0_2495_274)">
<rect width="50" height="50" fill="white"/>
<path d="M25 46.9999C12.8497 46.9999 3 37.1502 3 24.9999C3 12.8497 12.8497 2.99994 25 2.99994C37.1503 2.99994 47 12.8497 47 24.9999C47 29.0092 45.9276 32.7679 44.0539 36.0049L46.8879 46.5817C46.9377 46.7676 46.7676 46.9377 46.5817 46.8879L36.005 44.0538C32.768 45.9275 29.0092 46.9999 25 46.9999Z" fill="#F6F4F0"/>
<circle cx="25" cy="25" r="20" fill="#8A7098"/>
<path d="M10.858 10.8579C3.04747 18.6684 3.04747 31.3316 10.858 39.1421L39.1422 10.8579C31.3317 3.04738 18.6684 3.04738 10.858 10.8579Z" fill="#B19FBA"/>
<path d="M44.0539 36.005L43.088 36.2638L42.9806 35.8631L43.1884 35.5041L44.0539 36.005ZM46.8879 46.5817L45.922 46.8406L45.922 46.8406L46.8879 46.5817ZM46.5817 46.8879L46.8406 45.922L46.8406 45.922L46.5817 46.8879ZM36.005 44.0539L35.504 43.1884L35.8631 42.9806L36.2638 43.088L36.005 44.0539ZM4 25C4 36.598 13.402 46 25 46V48C12.2975 48 2 37.7025 2 25H4ZM25 4C13.402 4 4 13.402 4 25H2C2 12.2975 12.2975 2 25 2V4ZM46 25C46 13.402 36.598 4 25 4V2C37.7025 2 48 12.2975 48 25H46ZM43.1884 35.5041C44.9763 32.4152 46 28.8286 46 25H48C48 29.1898 46.8788 33.1208 44.9194 36.506L43.1884 35.5041ZM45.0198 35.7462L47.8539 46.3229L45.922 46.8406L43.088 36.2638L45.0198 35.7462ZM47.8539 46.3229C48.1029 47.2524 47.2524 48.1029 46.3229 47.8539L46.8406 45.922C46.2829 45.7726 45.7726 46.2829 45.922 46.8406L47.8539 46.3229ZM46.3229 47.8539L35.7462 45.0198L36.2638 43.088L46.8406 45.922L46.3229 47.8539ZM25 46C28.8286 46 32.4152 44.9763 35.504 43.1884L36.5059 44.9194C33.1208 46.8788 29.1898 48 25 48V46Z" fill="#3C1A53"/>
<path fill-rule="evenodd" clip-rule="evenodd" d="M35.1423 11.5278L25.1643 8.05717C25.0579 8.02017 24.9421 8.02017 24.8357 8.05717L14.8577 11.5278C14.4101 11.6835 14.4101 12.3166 14.8577 12.4723L19.25 14H18.5C18.2239 14 18 14.2239 18 14.5V17.5V17.7498C17.0892 18.4339 16.5 19.5232 16.5 20.75C16.5 21.3821 16.6564 21.9776 16.9325 22.5H16.5C14.0147 22.5 12 24.5148 12 27V33.5C12 36.8137 14.6863 39.5 18 39.5H18.3854C20.1483 41.0559 22.4639 42 25 42C27.5361 42 29.8517 41.0559 31.6146 39.5H32C35.3137 39.5 38 36.8137 38 33.5V27C38 24.5148 35.9853 22.5 33.5 22.5H33.0675C33.3436 21.9776 33.5 21.3821 33.5 20.75C33.5 19.5232 32.9108 18.4339 32 17.7498V17.5V14.5C32 14.2239 31.7761 14 31.5 14H30.75L35.1423 12.4723C35.5899 12.3166 35.5899 11.6835 35.1423 11.5278Z" fill="#E8E3DB"/>
<path d="M17.5 23V31C17.5 36.5 22 41 27.5 41L28.0492 41.0002C27.0922 41.3243 26.0667 41.5 25 41.5C22.5903 41.5 20.3913 40.6035 18.7163 39.1251L18.5745 39H18C14.9624 39 12.5 36.5376 12.5 33.5V27C12.5 24.7909 14.2909 23 16.5 23H17.5Z" fill="#F6F4F0"/>
<circle cx="20.25" cy="20.75" r="3.75" fill="#F2BB0A"/>
<path d="M17.5984 18.0983C16.134 19.5628 16.134 21.9372 17.5984 23.4017L22.9017 18.0983C21.4373 16.6339 19.0629 16.6339 17.5984 18.0983Z" fill="#F7D66C"/>
<circle cx="29.75" cy="20.75" r="3.75" fill="#F2BB0A"/>
<path d="M27.0984 18.0983C25.634 19.5628 25.634 21.9372 27.0984 23.4017L32.4017 18.0983C30.9373 16.6339 28.5629 16.6339 27.0984 18.0983Z" fill="#F7D66C"/>
<path d="M21.3394 24.3393C22.8792 23.8726 24 22.4422 24 20.75H26C26 22.4422 27.1209 23.8726 28.6607 24.3393L25 28C24.9562 28.0439 21.7209 24.7209 21.3394 24.3393Z" fill="#F7D66C"/>
<path d="M26 20.75C26 22.4422 27.1209 23.8726 28.6607 24.3393L25 28C24.894 28.106 25 24.8395 25 20.75H26Z" fill="#F2BB0A"/>
<path d="M35.1423 11.5278L25.1643 8.05713C25.0579 8.02013 24.9421 8.02013 24.8357 8.05713L14.8577 11.5278C14.4101 11.6835 14.4101 12.3165 14.8577 12.4722L24.8357 15.9429C24.9421 15.9799 25.0579 15.9799 25.1643 15.9429L35.1423 12.4722C35.5899 12.3165 35.5899 11.6835 35.1423 11.5278Z" fill="#BAB6B0"/>
<path d="M35.1423 11.5278L25.1329 8.04621C25.0679 8.02361 25 8.07186 25 8.14066V15.8593C25 15.9281 25.0679 15.9764 25.1329 15.9538L35.1423 12.4722C35.5899 12.3165 35.5899 11.6835 35.1423 11.5278Z" fill="#8C857B"/>
<path d="M35.1423 11.5278L25.1643 8.05713C25.0579 8.02013 24.9421 8.02013 24.8357 8.05713L14.8577 11.5278C14.4101 11.6835 14.4101 12.3165 14.8577 12.4722L24.8357 15.9429C24.9421 15.9799 25.0579 15.9799 25.1643 15.9429L35.1423 12.4722C35.5899 12.3165 35.5899 11.6835 35.1423 11.5278Z" stroke="#3C1A53" stroke-width="2"/>
<circle cx="29.75" cy="20.75" r="1.75" fill="#3C1A53"/>
<circle cx="20.25" cy="20.75" r="1.75" fill="#3C1A53"/>
<circle cx="15" cy="17" r="1.5" fill="#3C1A53"/>
<path d="M15 12V17.5" stroke="#3C1A53" stroke-width="2" stroke-linecap="round"/>
<circle cx="20.25" cy="20.75" r="3.75" stroke="#3C1A53" stroke-width="2"/>
<circle cx="29.75" cy="20.75" r="3.75" stroke="#3C1A53" stroke-width="2"/>
<path d="M18 17.5V14M32 17.5V14" stroke="#3C1A53" stroke-width="2" stroke-linecap="round"/>
<path d="M21.5 24.5L24.6464 27.6464C24.8417 27.8417 25.1583 27.8417 25.3536 27.6464L28.5 24.5" stroke="#3C1A53" stroke-width="2" stroke-linecap="round"/>
<path d="M22 43V42M28 43V42" stroke="#3C1A53" stroke-width="2" stroke-linecap="round"/>
<path d="M15 27.5V32C15 37.5228 19.4772 42 25 42V42C30.5228 42 35 37.5228 35 32V27.5" stroke="#3C1A53" stroke-width="2" stroke-linecap="round"/>
<path d="M33.5 22.5V22.5C35.9853 22.5 38 24.5147 38 27V33.5C38 36.8137 35.3137 39.5 32 39.5V39.5" stroke="#3C1A53" stroke-width="2" stroke-linecap="round"/>
<path d="M16.5 22.5V22.5C14.0147 22.5 12 24.5147 12 27V33.5C12 36.8137 14.6863 39.5 18 39.5V39.5" stroke="#3C1A53" stroke-width="2" stroke-linecap="round"/>
</g>
<defs>
<clipPath id="clip0_2495_274">
<rect width="50" height="50" fill="white"/>
</clipPath>
</defs>
</svg>
