<svg width="50" height="50" viewBox="0 0 50 50" fill="none" xmlns="http://www.w3.org/2000/svg">
<g clip-path="url(#clip0_2512_724)">
<path d="M40.5 45.5L30.3536 35.3536C30.1583 35.1583 30.1583 34.8417 30.3536 34.6464L34.6464 30.3536C34.8417 30.1583 35.1583 30.1583 35.3536 30.3536L45.5 40.5C46.8807 41.8807 46.8807 44.1193 45.5 45.5C44.1193 46.8807 41.8807 46.8807 40.5 45.5Z" fill="#F7D66C"/>
<path d="M42.25 44.25L31.8536 33.8536C31.6583 33.6583 31.6583 33.3417 31.8536 33.1464L34.6464 30.3536C34.8417 30.1583 35.1583 30.1583 35.3536 30.3536L45.75 40.75C46.7165 41.7165 46.7165 43.2835 45.75 44.25C44.7835 45.2165 43.2165 45.2165 42.25 44.25Z" fill="#F2BB0A"/>
<circle cx="19" cy="19" r="15" fill="#E8E3DB"/>
<path d="M8.39371 8.3934C2.53585 14.2513 2.53585 23.7487 8.39371 29.6066L29.6069 8.3934C23.749 2.53553 14.2516 2.53553 8.39371 8.3934Z" fill="#F6F4F0"/>
<circle cx="19" cy="19" r="15" stroke="#3C1A53" stroke-width="2"/>
<path d="M40.5 45.5L30.3536 35.3536C30.1583 35.1583 30.1583 34.8417 30.3536 34.6464L34.6464 30.3536C34.8417 30.1583 35.1583 30.1583 35.3536 30.3536L45.5 40.5C46.8807 41.8807 46.8807 44.1193 45.5 45.5C44.1193 46.8807 41.8807 46.8807 40.5 45.5Z" stroke="#3C1A53" stroke-width="2"/>
<path d="M29.5 29.5L32.5 32.5" stroke="#3C1A53" stroke-width="2"/>
<path d="M30.5 19C30.5 16.5714 29.7312 14.2052 28.3037 12.2405C26.8762 10.2757 24.8634 8.8133 22.5537 8.06284" stroke="#3C1A53" stroke-width="2" stroke-linecap="round"/>
<path d="M19 7.5C19.2427 7.5 19.4854 7.50769 19.7277 7.52304" stroke="#3C1A53" stroke-width="2" stroke-linecap="round"/>
</g>
<defs>
<clipPath id="clip0_2512_724">
<rect width="50" height="50" fill="white"/>
</clipPath>
</defs>
</svg>
