<?xml version="1.0" encoding="utf-8"?>
<!-- Generator: Adobe Illustrator 26.5.0, SVG Export Plug-In . SVG Version: 6.00 Build 0)  -->
<svg version="1.1" id="Layer_1" xmlns="http://www.w3.org/2000/svg" xmlns:xlink="http://www.w3.org/1999/xlink" x="0px" y="0px"
	 width="50px" height="50px" viewBox="0 0 50 50" style="enable-background:new 0 0 50 50;" xml:space="preserve">
<style type="text/css">
	.st0{fill:#8D857B;}
	.st1{fill:#FFFFFF;}
	.st2{clip-path:url(#SVGID_00000028293340103610316200000015741367533457154462_);}
	.st3{fill:#3B1A53;}
</style>
<g>
	<g>
		<g>
			<path class="st0" d="M49.9,22.1C48.4,8.4,36-1.5,22.3,0C8.6,1.5-1.3,13.9,0.1,27.6C1.5,40.3,12.4,49.9,25,49.9
				c0.9,0,1.8,0,2.7-0.1C41.4,48.2,51.3,35.8,49.9,22.1z M9.8,43.8c-5.1-4.1-8.2-9.9-8.9-16.3C-0.6,14.2,9,2.2,22.4,0.7
				c0.9-0.1,1.8-0.1,2.7-0.1c12.2,0,22.8,9.2,24.1,21.7C50.6,35.5,41,47.5,27.6,49C21.2,49.7,14.8,47.9,9.8,43.8z"/>
			<path class="st0" d="M25,1.4C12.1,1.4,1.5,11.9,1.5,24.9S12.1,48.3,25,48.3s23.5-10.5,23.5-23.5S37.9,1.4,25,1.4z M25,47.6
				c-12.6,0-22.8-10.2-22.8-22.8C2.2,12.3,12.4,2.1,25,2.1s22.8,10.2,22.8,22.8C47.8,37.4,37.6,47.6,25,47.6z"/>
		</g>
		<circle class="st1" cx="25" cy="24.9" r="22.8"/>
		<path class="st1" d="M25,0.6c-0.9,0-1.8,0-2.7,0.1C9,2.2-0.6,14.2,0.9,27.5c0.7,6.5,3.9,12.2,8.9,16.3c5.1,4.1,11.4,5.9,17.8,5.2
			c13.3-1.5,23-13.5,21.5-26.8C47.8,9.8,37.2,0.6,25,0.6z M25,48.3c-12.9,0-23.5-10.5-23.5-23.5S12.1,1.4,25,1.4
			s23.5,10.5,23.5,23.5S37.9,48.3,25,48.3z"/>
	</g>
	<g>
		<defs>
			<circle id="SVGID_1_" cx="25" cy="24.9" r="22.8"/>
		</defs>
		<clipPath id="SVGID_00000044152696630687445110000010846954812876691632_">
			<use xlink:href="#SVGID_1_"  style="overflow:visible;"/>
		</clipPath>
		<g style="clip-path:url(#SVGID_00000044152696630687445110000010846954812876691632_);">
			<path class="st3" d="M52.3,22.8c0-6-4.9-10.9-10.9-10.9c-6,0-10.9,4.9-10.9,10.9c0,1.5-2.5,4.2-2.5,4.2l0,0
				c-0.3,0.3-0.5,0.6-0.5,1.1c0,0.8,0.6,1.4,1.4,1.4c1.2,0,1.5,2.9,1.6,4.2c0,1.2,0.3,2.2,0.9,3.1c0.7,1.4,2.1,2.7,4.7,2.8
				c0.1,0,0.2,0,0.3,0c0.1,0,0.2,0,0.3,0c5-0.2,9.6-5,13.2-10.2c0,0,0,0,0,0C51.5,27.5,52.3,25.3,52.3,22.8z"/>
			<path class="st3" d="M21.9,27c0,0-2.5-2.8-2.5-4.2c0-6-4.9-10.9-10.9-10.9c-6,0-10.9,4.9-10.9,10.9c0,2.5,0.8,4.8,2.2,6.6
				c0,0,0,0,0,0c3.6,5.2,8.2,10,13.2,10.2c0.1,0,0.2,0,0.3,0c0.1,0,0.2,0,0.3,0c2.6-0.1,3.9-1.4,4.7-2.8c0.6-0.9,0.9-2,0.9-3.1
				c0.1-1.3,0.4-4.2,1.6-4.2c0.8,0,1.4-0.6,1.4-1.4C22.4,27.6,22.2,27.3,21.9,27z"/>
		</g>
	</g>
</g>
</svg>
