<?xml version="1.0" encoding="utf-8"?>
<!-- Generator: Adobe Illustrator 27.0.0, SVG Export Plug-In . SVG Version: 6.00 Build 0)  -->
<svg version="1.1" id="Layer_1" xmlns="http://www.w3.org/2000/svg" xmlns:xlink="http://www.w3.org/1999/xlink" x="0px" y="0px"
	 width="50px" height="50px" viewBox="0 0 50 50" style="enable-background:new 0 0 50 50;" xml:space="preserve">
<style type="text/css">
	.st0{fill:#FFFFFF;}
	.st1{fill:#F3C849;}
	.st2{fill:#F6F4F1;}
	.st3{fill:#3B1A53;}
	.st4{fill:#F6D577;}
</style>
<g>
	<circle class="st0" cx="25" cy="25" r="25"/>
	<g>
		<g>
			<ellipse class="st1" cx="25" cy="25" rx="23.5" ry="23.6"/>
			<ellipse class="st2" cx="25" cy="25" rx="21.5" ry="21.5"/>
		</g>
	</g>
	<circle class="st3" cx="24.7" cy="25" r="7.8"/>
	<g>
		<circle class="st4" cx="24.7" cy="25" r="3.6"/>
		<path class="st4" d="M24.8,28.7c-0.2,0-0.4,0-0.6,0c-2-0.3-3.4-2.2-3.1-4.2c0.3-2,2.2-3.4,4.2-3.1c1,0.2,1.8,0.7,2.4,1.5
			c0.6,0.8,0.8,1.8,0.7,2.7c-0.2,1-0.7,1.8-1.5,2.4C26.3,28.5,25.5,28.7,24.8,28.7z M24.7,21.4c-1.7,0-3.3,1.3-3.5,3
			c-0.3,2,1,3.8,3,4.1c0.9,0.1,1.9-0.1,2.7-0.7c0.8-0.6,1.3-1.4,1.4-2.4l0.1,0l-0.1,0c0.1-0.9-0.1-1.9-0.7-2.7
			c-0.6-0.8-1.4-1.3-2.4-1.4C25.1,21.5,24.9,21.4,24.7,21.4z"/>
	</g>
	<path class="st3" d="M24.7,35.9c-4.2,0-8.8-1.8-13.2-5.2c-3.3-2.6-5.3-5.1-5.4-5.2L5.7,25l0.4-0.5c0.1-0.1,2.1-2.6,5.4-5.2
		c4.4-3.4,9-5.2,13.2-5.2s8.8,1.8,13.2,5.2c3.3,2.6,5.3,5.1,5.4,5.2l0.4,0.5l-0.4,0.5c-0.1,0.1-2.1,2.6-5.4,5.2
		C33.6,34.1,29,35.9,24.7,35.9z M7.7,25c1.7,2,8.8,9.4,17,9.4c8.2,0,15.3-7.4,17-9.4c-1.7-2-8.8-9.4-17-9.4
		C16.5,15.7,9.5,23.1,7.7,25z"/>
	<circle class="st0" cx="20.6" cy="21" r="1.4"/>
</g>
</svg>
