<!-- Generated by IcoMoon.io -->
<svg version="1.1" xmlns="http://www.w3.org/2000/svg" width="50" height="50" viewBox="0 0 50 50">
<title>Add-Note</title>
<path fill="#3c1053" d="M36.458 27.083c-6.319 0-11.458 5.14-11.458 11.458s5.14 11.458 11.458 11.458 11.458-5.14 11.458-11.458-5.14-11.458-11.458-11.458zM36.458 47.917c-5.169 0-9.375-4.206-9.375-9.375s4.206-9.375 9.375-9.375 9.375 4.206 9.375 9.375-4.206 9.375-9.375 9.375zM40.625 37.5h-3.125v-3.125c0-0.575-0.467-1.042-1.042-1.042s-1.042 0.467-1.042 1.042v3.125h-3.125c-0.575 0-1.042 0.467-1.042 1.042s0.467 1.042 1.042 1.042h3.125v3.125c0 0.575 0.467 1.042 1.042 1.042s1.042-0.467 1.042-1.042v-3.125h3.125c0.575 0 1.042-0.467 1.042-1.042s-0.467-1.042-1.042-1.042zM29.167 7.292c0-1.356-0.873-2.502-2.083-2.933v-2.275h6.25v2.275c-1.21 0.431-2.083 1.577-2.083 2.933 0 1.723 1.402 3.125 3.125 3.125s3.125-1.402 3.125-3.125c0-1.356-0.873-2.502-2.083-2.933v-2.275h3.125c0.575 0 1.042 0.467 1.042 1.042v20.833c0 0.575 0.467 1.042 1.042 1.042s1.042-0.467 1.042-1.042v-20.833c0-1.723-1.402-3.125-3.125-3.125h-33.333c-1.723 0-3.125 1.402-3.125 3.125v39.583c0 1.723 1.402 3.125 3.125 3.125h16.667c0.575 0 1.042-0.467 1.042-1.042s-0.467-1.042-1.042-1.042h-16.667c-0.575 0-1.042-0.467-1.042-1.042v-39.583c0-0.575 0.467-1.042 1.042-1.042h3.125v2.275c-1.21 0.431-2.083 1.577-2.083 2.933 0 1.723 1.402 3.125 3.125 3.125s3.125-1.402 3.125-3.125c0-1.356-0.873-2.502-2.083-2.933v-2.275h6.25v2.275c-1.21 0.431-2.083 1.577-2.083 2.933 0 1.723 1.402 3.125 3.125 3.125s3.125-1.402 3.125-3.125c0-1.356-0.873-2.502-2.083-2.933v-2.275h6.25v2.275c-1.21 0.431-2.083 1.577-2.083 2.933 0 1.723 1.402 3.125 3.125 3.125s3.125-1.402 3.125-3.125zM34.375 6.25c0.575 0 1.042 0.467 1.042 1.042s-0.467 1.042-1.042 1.042-1.042-0.467-1.042-1.042 0.467-1.042 1.042-1.042zM9.375 8.333c-0.575 0-1.042-0.467-1.042-1.042s0.467-1.042 1.042-1.042 1.042 0.467 1.042 1.042-0.467 1.042-1.042 1.042zM17.708 8.333c-0.575 0-1.042-0.467-1.042-1.042s0.467-1.042 1.042-1.042 1.042 0.467 1.042 1.042-0.467 1.042-1.042 1.042zM25 7.292c0-0.575 0.467-1.042 1.042-1.042s1.042 0.467 1.042 1.042-0.467 1.042-1.042 1.042-1.042-0.467-1.042-1.042z"></path>
</svg>
