<?xml version="1.0" encoding="UTF-8"?><svg id="Layer_2" xmlns="http://www.w3.org/2000/svg" width="50" height="50" viewBox="0 0 50 50"><defs><style>.cls-1{fill:none;}.cls-2{fill:#3b1a53;}</style></defs><path class="cls-1" d="M34.45,15.34H17.29c-.32,0-.53,.15-.65,.28-.19,.2-.28,.49-.25,.79l.94,11.56c.1,1.19,.24,3.13,.32,4.32l.84,12.49c.04,.66,.6,1.22,1.22,1.22h12.12c.62,0,1.18-.56,1.22-1.22l.81-12.02c.08-1.19,.24-3.14,.35-4.33l1.11-12.03c.03-.31-.06-.58-.24-.79-.11-.13-.32-.28-.64-.28Z"/><path class="cls-1" d="M12.05,24.44c-1.76,1.34-2.17,7.6-.2,10.45,.61,.88,1.69,1.87,4,.49l-.2-2.94c-.08-1.18-.22-3.12-.32-4.3l-.17-2.08s-.02-.01-.02-.02c-.75-.9-2.14-2.31-3.08-1.59Z"/><path class="cls-2" d="M34.45,13.34H17.29c-.82,0-1.57,.33-2.12,.92-.56,.61-.85,1.45-.78,2.31l.53,6.5c-1.91-1.36-3.32-.8-4.07-.22-2.75,2.09-3.11,9.6-.64,13.18,.94,1.35,2.17,2.04,3.58,2.04,.7,0,1.44-.18,2.21-.52l.5,7.38c.12,1.7,1.56,3.09,3.22,3.09h12.12c1.66,0,3.1-1.39,3.22-3.09l.81-12.02c.08-1.18,.23-3.11,.34-4.28l1.11-12.03c.08-.86-.2-1.7-.75-2.32-.55-.6-1.3-.93-2.12-.93ZM11.85,34.89c-1.97-2.85-1.56-9.11,.2-10.45,.94-.71,2.34,.69,3.08,1.59,0,0,.02,.01,.02,.02l.17,2.08c.1,1.18,.24,3.12,.32,4.3l.2,2.94c-2.31,1.39-3.39,.39-4-.49Zm22.37-6.46c-.11,1.19-.27,3.14-.35,4.33l-.81,12.02c-.04,.66-.61,1.22-1.22,1.22h-12.12c-.62,0-1.18-.56-1.22-1.22l-.84-12.49c-.08-1.19-.23-3.14-.32-4.32l-.94-11.56c-.03-.31,.06-.59,.25-.79,.12-.13,.33-.28,.65-.28h17.16c.32,0,.53,.15,.64,.28,.18,.2,.27,.48,.24,.79l-1.11,12.03Z"/><path class="cls-2" d="M26.71,2.37c.2-.51-.05-1.09-.57-1.29-.51-.2-1.09,.05-1.29,.57l-.05,.12c-.31,.77-1.13,2.83-.23,4.72,.58,1.21,.27,2.85-.13,3.63-.25,.49-.06,1.09,.43,1.35,.15,.08,.3,.11,.46,.11,.36,0,.71-.2,.89-.54,.68-1.33,1.03-3.58,.16-5.4-.52-1.1,.04-2.52,.28-3.12l.05-.13Z"/><path class="cls-2" d="M30.33,2.36c.2-.51-.05-1.09-.57-1.29-.51-.2-1.09,.05-1.29,.57l-.05,.12c-.31,.77-1.13,2.83-.23,4.72,.58,1.21,.27,2.85-.13,3.63-.25,.49-.06,1.09,.43,1.35,.15,.08,.3,.11,.46,.11,.36,0,.71-.2,.89-.54,.68-1.33,1.03-3.58,.16-5.4-.52-1.1,.04-2.52,.28-3.12l.05-.13Z"/><path class="cls-2" d="M23.1,2.37c.2-.51-.05-1.09-.57-1.29-.51-.2-1.09,.05-1.29,.57l-.05,.12c-.31,.77-1.13,2.83-.23,4.72,.58,1.21,.27,2.85-.13,3.63-.25,.49-.06,1.09,.43,1.35,.15,.08,.3,.11,.46,.11,.36,0,.71-.2,.89-.54,.68-1.33,1.03-3.58,.16-5.4-.52-1.1,.04-2.52,.28-3.12l.05-.13Z"/></svg>