<?xml version="1.0" encoding="utf-8"?>
<!-- Generator: Adobe Illustrator 27.1.1, SVG Export Plug-In . SVG Version: 6.00 Build 0)  -->
<svg version="1.1" id="Layer_1" xmlns="http://www.w3.org/2000/svg" xmlns:xlink="http://www.w3.org/1999/xlink" x="0px" y="0px"
	 width="50px" height="50px" viewBox="0 0 50 50" style="enable-background:new 0 0 50 50;" xml:space="preserve">
<style type="text/css">
	.st0{fill:#FFFFFF;}
	.st1{fill:#EA1D25;}
	.st2{fill:#F6F4F1;}
	.st3{fill:#E8E3DB;}
</style>
<ellipse class="st0" cx="25" cy="25" rx="25" ry="25"/>
<g>
	<g>
		<ellipse class="st1" cx="25" cy="25" rx="23.5" ry="23.6"/>
		<ellipse class="st2" cx="25" cy="25" rx="21.5" ry="21.5"/>
	</g>
</g>
<g>
	<g>
		<polygon class="st2" points="17.2,11.4 11.7,40 27.6,40 33.2,40 34.3,34.5 38.8,11.4 		"/>
		<path class="st1" d="M33.2,40.5L33.2,40.5l-21.6,0c-0.1,0-0.3-0.1-0.4-0.2c-0.1-0.1-0.1-0.3-0.1-0.4l5.5-28.6
			c0-0.2,0.3-0.4,0.5-0.4l0,0l21.6,0c0.1,0,0.3,0.1,0.4,0.2c0.1,0.1,0.1,0.3,0.1,0.4l-5.5,28.6C33.7,40.3,33.5,40.5,33.2,40.5z
			 M12.3,39.5l20.6,0l5.3-27.6l-20.6,0L12.3,39.5z"/>
	</g>
	<g>
		<polygon class="st2" points="15.3,9.2 9.7,37.9 25.7,37.9 26.8,32.4 32.4,32.4 36.8,9.3 		"/>
		<path class="st1" d="M25.7,38.4L25.7,38.4l-16,0c-0.1,0-0.3-0.1-0.4-0.2c-0.1-0.1-0.1-0.3-0.1-0.4l5.5-28.6c0-0.2,0.3-0.4,0.5-0.4
			l0,0l21.6,0c0.1,0,0.3,0.1,0.4,0.2c0.1,0.1,0.1,0.3,0.1,0.4l-4.5,23.1c0,0.2-0.3,0.4-0.5,0.4l0,0l-5.2,0l-1,5.1
			C26.2,38.2,26,38.4,25.7,38.4z M10.3,37.4l15,0l1-5.1c0-0.2,0.3-0.4,0.5-0.4l0,0l5.2,0l4.3-22.1l-20.6,0L10.3,37.4z"/>
	</g>
	<g>
		<polygon class="st3" points="25.7,37.9 32.4,32.4 26.8,32.4 		"/>
		<path class="st1" d="M25.7,38.4c-0.1,0-0.2,0-0.3-0.1c-0.2-0.1-0.3-0.3-0.2-0.5l1.1-5.5c0-0.2,0.3-0.4,0.5-0.4l0,0l5.6,0
			c0.2,0,0.4,0.1,0.5,0.3c0.1,0.2,0,0.4-0.2,0.6L26,38.3C25.9,38.3,25.8,38.4,25.7,38.4z M27.2,32.9l-0.7,3.7l4.5-3.7L27.2,32.9z"/>
	</g>
	<path class="st1" d="M21.4,15.8L21.4,15.8l-3.7,0c-0.1,0-0.3-0.1-0.4-0.2c-0.1-0.1-0.1-0.3-0.1-0.4l0.7-3.7c0-0.2,0.3-0.4,0.5-0.4
		l0,0l3.7,0c0.1,0,0.3,0.1,0.4,0.2c0.1,0.1,0.1,0.3,0.1,0.4l-0.7,3.7C21.9,15.6,21.7,15.8,21.4,15.8z M18.3,14.8l2.7,0l0.5-2.7
		l-2.7,0L18.3,14.8z"/>
	<path class="st1" d="M19.2,27.1L19.2,27.1l-3.7,0c-0.1,0-0.3-0.1-0.4-0.2C15,26.9,15,26.7,15,26.6l0.7-3.7c0-0.2,0.3-0.4,0.5-0.4
		l0,0l3.7,0c0.1,0,0.3,0.1,0.4,0.2c0.1,0.1,0.1,0.3,0.1,0.4l-0.7,3.7C19.7,27,19.5,27.1,19.2,27.1z M16.1,26.1l2.7,0l0.5-2.7l-2.7,0
		L16.1,26.1z"/>
	<path class="st1" d="M18.1,32.8L18.1,32.8l-3.7,0c-0.1,0-0.3-0.1-0.4-0.2c-0.1-0.1-0.1-0.3-0.1-0.4l0.7-3.7c0-0.2,0.3-0.4,0.5-0.4
		l0,0l3.7,0c0.1,0,0.3,0.1,0.4,0.2c0.1,0.1,0.1,0.3,0.1,0.4l-0.7,3.7C18.6,32.7,18.4,32.8,18.1,32.8z M15,31.8l2.7,0l0.5-2.7l-2.7,0
		L15,31.8z"/>
	<g>
		<path class="st1" d="M20.3,21.5L20.3,21.5l-3.7,0c-0.1,0-0.3-0.1-0.4-0.2c-0.1-0.1-0.1-0.3-0.1-0.4l0.7-3.7c0-0.2,0.3-0.4,0.5-0.4
			l0,0l3.7,0c0.1,0,0.3,0.1,0.4,0.2c0.1,0.1,0.1,0.3,0.1,0.4l-0.7,3.7C20.8,21.3,20.6,21.5,20.3,21.5z M17.2,20.5l2.7,0l0.5-2.7
			l-2.7,0L17.2,20.5z"/>
		<polygon class="st1" points="19.6,20 17.7,20 18,18.2 19.9,18.2 		"/>
	</g>
	<path class="st1" d="M33.2,13.9L33.2,13.9l-9.2,0c-0.3,0-0.5-0.2-0.5-0.5c0-0.3,0.2-0.5,0.5-0.5l0,0l9.2,0c0.3,0,0.5,0.2,0.5,0.5
		C33.7,13.7,33.5,13.9,33.2,13.9z"/>
	<path class="st1" d="M32.1,19.6L32.1,19.6l-9.2,0c-0.3,0-0.5-0.2-0.5-0.5c0-0.3,0.2-0.5,0.5-0.5l0,0l9.2,0c0.3,0,0.5,0.2,0.5,0.5
		C32.6,19.4,32.4,19.6,32.1,19.6z"/>
	<path class="st1" d="M31,25.3L31,25.3l-9.2,0c-0.3,0-0.5-0.2-0.5-0.5c0-0.3,0.2-0.5,0.5-0.5l0,0l9.2,0c0.3,0,0.5,0.2,0.5,0.5
		C31.5,25.1,31.3,25.3,31,25.3z"/>
	<path class="st1" d="M29.9,31L29.9,31l-9.2,0c-0.3,0-0.5-0.2-0.5-0.5c0-0.3,0.2-0.5,0.5-0.5l0,0l9.2,0c0.3,0,0.5,0.2,0.5,0.5
		C30.4,30.8,30.2,31,29.9,31z"/>
	<g>
		<polygon class="st1" points="27.5,33.2 27,35.8 30.1,33.2 		"/>
	</g>
</g>
</svg>
