<?xml version="1.0" encoding="UTF-8"?><svg id="Layer_2" xmlns="http://www.w3.org/2000/svg" width="50" height="50" viewBox="0 0 50 50"><defs><style>.cls-1{fill:none;}.cls-2{fill:#3b1a53;}</style></defs><path class="cls-1" d="M36.05,28.11c2.6-4.05,3.24-9.21,3.39-11.36H8.73c.42,2.41,1.57,8.11,3.63,11.8,2.33,4.17,3.13,10.41,3.36,12.77h16.82c.07-2.42,.54-8.6,3.51-13.21Z"/><path class="cls-1" d="M37.31,29.91c.16,.02,.31,.06,.45,.16,2.42,1.68,4.5,1.56,6.19-.35,2.4-2.71,2.79-7.55,1.33-9.18-1.09-1.22-3.15-.18-4.45,.68-.52,2.46-1.44,5.39-3.1,7.97-.15,.23-.28,.47-.42,.72Z"/><path class="cls-1" d="M9.44,47.74h29.73c.81,0,1.45-.25,1.94-.78,.87-.92,1.16-2.52,1.24-3.64H5.82c.3,1.59,1.18,4.42,3.62,4.42Z"/><path class="cls-2" d="M22.49,11.32c-.35,.42-.3,1.05,.13,1.41,.19,.16,.41,.23,.64,.23,.29,0,.57-.12,.77-.36,1.18-1.41,2.23-4.42,.32-6.91-.89-1.16-.25-2.5,.57-3.77l.1-.16c.29-.47,.16-1.08-.31-1.38-.46-.29-1.08-.15-1.38,.31l-.09,.15c-.64,.99-2.34,3.63-.47,6.07,1.19,1.55,.47,3.53-.27,4.41Z"/><path class="cls-2" d="M29.79,11.3c-.35,.42-.3,1.05,.13,1.41,.19,.16,.41,.23,.64,.23,.29,0,.57-.12,.77-.36,1.18-1.41,2.23-4.41,.32-6.91-.89-1.16-.25-2.5,.56-3.77l.11-.17c.29-.47,.15-1.08-.31-1.38-.47-.29-1.08-.15-1.38,.31l-.1,.15c-.64,.99-2.34,3.63-.47,6.07,1.19,1.55,.47,3.53-.27,4.41Z"/><path class="cls-2" d="M15.19,11.32c-.35,.42-.3,1.05,.13,1.41,.19,.16,.41,.23,.64,.23,.29,0,.57-.12,.77-.36,1.18-1.41,2.23-4.42,.32-6.91-.89-1.16-.25-2.5,.57-3.77l.1-.16c.29-.47,.16-1.08-.31-1.38-.46-.29-1.08-.15-1.38,.31l-.09,.15c-.64,.99-2.34,3.63-.47,6.07,1.19,1.55,.47,3.53-.27,4.41Z"/><path class="cls-2" d="M46.77,19.21c-.79-.89-2.49-1.96-5.51-.52,.21-1.67,.23-2.81,.23-2.93,0-.27-.1-.52-.29-.71-.19-.19-.44-.29-.71-.29H7.56c-.29,0-.56,.12-.75,.34-.19,.22-.28,.51-.24,.79,.05,.35,1.2,8.55,4.04,13.64,2.07,3.7,2.85,9.45,3.09,11.8H4.68c-.28,0-.54,.11-.73,.31-.19,.2-.29,.47-.27,.75,.15,2.55,1.55,7.36,5.76,7.36h29.73c1.38,0,2.52-.47,3.4-1.41,2-2.12,1.8-5.91,1.79-6.07-.03-.53-.47-.94-1-.94h-8.81c.06-1.85,.38-6.02,1.95-9.73,.04,.04,.07,.09,.12,.13,1.47,1.02,2.94,1.53,4.32,1.53,1.67,0,3.21-.74,4.5-2.2,2.94-3.32,3.6-9.29,1.33-11.84Zm-4.42,24.11c-.08,1.12-.37,2.73-1.24,3.64-.49,.52-1.13,.78-1.94,.78H9.44c-2.44,0-3.32-2.83-3.62-4.42H42.35Zm-9.81-2H15.72c-.23-2.36-1.03-8.61-3.36-12.77-2.06-3.68-3.21-9.39-3.63-11.8h30.7c-.16,2.15-.79,7.32-3.39,11.36-2.96,4.61-3.44,10.78-3.51,13.21Zm11.41-11.6c-1.69,1.91-3.77,2.03-6.19,.35-.14-.1-.29-.14-.45-.16,.14-.24,.27-.48,.42-.72,1.66-2.58,2.58-5.51,3.1-7.97,1.3-.87,3.36-1.9,4.45-.68,1.46,1.63,1.07,6.47-1.33,9.18Z"/></svg>