<?xml version="1.0" encoding="utf-8"?>
<!-- Generator: Adobe Illustrator 27.0.0, SVG Export Plug-In . SVG Version: 6.00 Build 0)  -->
<svg version="1.1" id="Layer_1" xmlns="http://www.w3.org/2000/svg" xmlns:xlink="http://www.w3.org/1999/xlink" x="0px" y="0px"
	 width="50px" height="50px" viewBox="0 0 50 50" style="enable-background:new 0 0 50 50;" xml:space="preserve">
<style type="text/css">
	.st0{fill:#FFFFFF;}
	.st1{fill:#F6F4F1;}
	.st2{fill:#F3C849;}
	.st3{fill:#3B1A53;}
	.st4{fill:#F6D577;}
	.st5{fill:#F1BA1B;}
</style>
<g>
	<circle class="st0" cx="25" cy="25" r="25"/>
	<g>
		<ellipse class="st1" cx="25.1" cy="25" rx="21.8" ry="21.5"/>
		<path class="st2" d="M25.1,1.4C11.8,1.4,1.1,12,1.1,25c0,13,10.7,23.6,23.9,23.6C38.3,48.6,49,38,49,25C49,12,38.3,1.4,25.1,1.4z
			 M25.1,46.5C13,46.5,3.2,36.9,3.2,25C3.2,13.1,13,3.5,25.1,3.5S46.9,13.1,46.9,25C46.9,36.9,37.1,46.5,25.1,46.5z"/>
	</g>
	<g>
		<g>
			<path class="st3" d="M32.8,16.8l-1.1-2.4l-2,0.4l-1.4-1.7l0.7-1.9l-2.1-1.5L25.3,11l-2-0.7L23,8.2L20.4,8l-0.7,2l-2.1,0.4
				l-1.3-1.6L14,9.7l0.4,2l-1.6,1.4l-1.9-0.8l-1.5,2.1l1.4,1.6l-0.7,2l-2,0.3l-0.2,2.6l2,0.7l0.4,2.1l-1.6,1.3l1.1,2.4l2-0.4
				l1.4,1.7l-0.7,1.9l2.1,1.5l1.5-1.4l2,0.7l0.3,2.1l2.6,0.2l0.7-2l2.1-0.4l1.3,1.6l2.4-1.1l-0.4-2l1.6-1.4l1.9,0.8l1.5-2.1
				l-1.4-1.6l0.7-2l2-0.3l0.2-2.6l-2-0.7l-0.4-2.1L32.8,16.8z M29,19.5c0.8,4.7-2.2,9.2-6.9,9.9c-0.4,0.1-0.9,0.1-1.3,0.1
				c-4.1,0.1-7.9-2.9-8.6-7.2c-0.7-3.8,1.2-7.5,4.4-9.1c0.4-0.2,0.9-0.4,1.4-0.6c0.3-0.1,0.7-0.2,1-0.3l0,0l0,0
				C23.7,11.7,28.2,14.8,29,19.5z"/>
			<path class="st3" d="M16.7,13.3c0.4-0.2,0.9-0.4,1.4-0.6C17.6,12.9,17.1,13.1,16.7,13.3z"/>
			<path class="st4" d="M23.7,28c0.1,0,0.1,0,0.2-0.1c0.2-0.1,0.4-0.2,0.5-0.3c0,0,0.1,0,0.1,0c0.1,0,0.1-0.1,0.2-0.1
				c0.1,0,0.2-0.1,0.2-0.1c0.1-0.1,0.2-0.1,0.3-0.2c0,0,0,0,0,0c0.1-0.1,0.2-0.1,0.2-0.2c0,0,0.1,0,0.1-0.1c0.3-0.2,0.5-0.5,0.7-0.7
				c0.1-0.1,0.1-0.1,0.2-0.2c0.1-0.1,0.2-0.3,0.3-0.4c0-0.1,0.1-0.1,0.1-0.2c0.2-0.3,0.4-0.6,0.6-1c0.5-1,0.7-2,0.8-3.2
				c0-0.5,0-1-0.1-1.5c-0.1-0.3-0.1-0.6-0.2-0.9c0,0,0,0,0,0c-0.1-0.2-0.1-0.3-0.2-0.5c0,0,0,0,0-0.1c-0.1-0.1-0.1-0.3-0.2-0.4
				c-0.1-0.2-0.2-0.4-0.3-0.5c0,0,0-0.1,0-0.1c0-0.1-0.1-0.2-0.2-0.3c0,0,0,0,0,0c-0.1-0.1-0.1-0.2-0.2-0.3c0,0,0,0,0,0
				c-1.7-2.3-4.5-3.6-7.4-3.1c-0.2,0-0.4,0.1-0.6,0.1c-0.2,0-0.4,0.1-0.5,0.2c-0.1,0-0.2,0.1-0.4,0.1c-2.9,1.1-4.8,4-4.7,7.2
				c0,0.2,0,0.4,0,0.6c0,0.2,0,0.4,0.1,0.6c0,0.2,0.1,0.4,0.1,0.6c0.1,0.3,0.2,0.6,0.3,0.9c0.1,0.3,0.2,0.5,0.3,0.7
				c0,0.1,0.1,0.1,0.1,0.2c0,0.1,0.1,0.1,0.1,0.2c0.3,0.5,0.6,0.9,1,1.3c0,0,0.1,0.1,0.1,0.1c0.3,0.3,0.7,0.6,1,0.9c0,0,0,0,0,0
				c0.2,0.2,0.5,0.3,0.7,0.5c0,0,0.1,0,0.1,0c0.4,0.2,0.8,0.4,1.2,0.5c0,0,0.1,0,0.1,0c0.1,0,0.2,0,0.2,0.1c0.1,0,0.2,0.1,0.3,0.1
				c0.1,0,0.1,0,0.2,0c0.1,0,0.1,0,0.2,0c0.2,0,0.3,0,0.5,0.1c0.1,0,0.2,0,0.3,0c0.1,0,0.2,0,0.2,0c0.1,0,0.3,0,0.4,0
				c0.2,0,0.4,0,0.6,0c0.2,0,0.4,0,0.6-0.1C22.6,28.4,23.2,28.2,23.7,28z M18.3,21.4c-0.1-0.7,0-1.3,0.4-1.8c0-0.1,0.1-0.1,0.1-0.2
				c0.3-0.4,0.8-0.7,1.4-0.8c1.3-0.2,2.5,0.7,2.8,2c0.2,1-0.3,1.9-1,2.4c-0.1,0-0.1,0.1-0.2,0.1c0,0,0,0-0.1,0
				c-0.2,0.1-0.4,0.2-0.7,0.2c-0.6,0.1-1.1,0-1.6-0.3c-0.1,0-0.1-0.1-0.2-0.1C18.8,22.6,18.4,22,18.3,21.4z"/>
			<path class="st3" d="M19.9,22.2c0.3,0.2,0.6,0.2,0.9,0.2c0.1,0,0.3-0.1,0.4-0.1c0,0,0,0,0,0c0,0,0.1,0,0.1-0.1
				c0.5-0.3,0.7-0.9,0.6-1.4c-0.1-0.8-0.9-1.3-1.6-1.2c-0.3,0.1-0.6,0.2-0.8,0.5c0,0-0.1,0.1-0.1,0.1c-0.2,0.3-0.3,0.7-0.2,1.1
				c0.1,0.4,0.3,0.7,0.6,0.9C19.9,22.2,19.9,22.2,19.9,22.2z"/>
		</g>
		<path class="st5" d="M33.9,38C33.9,38,34,37.9,33.9,38c0.1-0.1,0.2-0.1,0.3-0.1c0,0,0,0,0,0c0,0,0.1,0,0.1-0.1c0,0,0.1,0,0.1-0.1
			c0,0,0.1-0.1,0.1-0.1c0,0,0,0,0,0c0,0,0.1-0.1,0.1-0.1c0,0,0,0,0,0c0.1-0.1,0.2-0.2,0.3-0.3c0,0,0,0,0.1-0.1
			c0-0.1,0.1-0.1,0.1-0.2c0,0,0,0,0-0.1c0.1-0.1,0.2-0.3,0.2-0.4c0.2-0.4,0.3-0.8,0.3-1.3c0-0.2,0-0.4,0-0.6c0-0.1-0.1-0.3-0.1-0.4
			c0,0,0,0,0,0c0-0.1,0-0.1-0.1-0.2c0,0,0,0,0,0c0-0.1,0-0.1-0.1-0.2c0-0.1-0.1-0.1-0.1-0.2c0,0,0,0,0,0c0,0,0-0.1-0.1-0.1
			c0,0,0,0,0,0c0,0,0-0.1-0.1-0.1c0,0,0,0,0,0c-0.7-0.9-1.8-1.5-3-1.2c-0.1,0-0.2,0-0.2,0c-0.1,0-0.1,0-0.2,0.1c0,0-0.1,0-0.1,0.1
			c-1.2,0.5-1.9,1.6-1.9,2.9c0,0.1,0,0.2,0,0.2c0,0.1,0,0.2,0,0.2c0,0.1,0,0.2,0.1,0.2c0,0.1,0.1,0.2,0.1,0.4c0,0.1,0.1,0.2,0.1,0.3
			c0,0,0,0.1,0,0.1c0,0,0,0,0,0.1c0.1,0.2,0.2,0.4,0.4,0.5c0,0,0,0,0.1,0.1c0.1,0.1,0.3,0.2,0.4,0.4c0,0,0,0,0,0
			c0.1,0.1,0.2,0.1,0.3,0.2c0,0,0,0,0,0c0.2,0.1,0.3,0.2,0.5,0.2c0,0,0,0,0.1,0c0,0,0.1,0,0.1,0c0,0,0.1,0,0.1,0c0,0,0.1,0,0.1,0
			c0,0,0.1,0,0.1,0c0.1,0,0.1,0,0.2,0c0,0,0.1,0,0.1,0c0,0,0.1,0,0.1,0c0.1,0,0.1,0,0.2,0c0.1,0,0.2,0,0.2,0c0.1,0,0.2,0,0.2,0
			C33.5,38.1,33.7,38.1,33.9,38z M31.7,35.3c0-0.3,0-0.5,0.2-0.7c0,0,0,0,0.1-0.1c0.1-0.2,0.3-0.3,0.6-0.3c0.5-0.1,1,0.3,1.1,0.8
			c0.1,0.4-0.1,0.8-0.4,1c0,0,0,0-0.1,0c0,0,0,0,0,0c-0.1,0-0.2,0.1-0.3,0.1c-0.2,0-0.5,0-0.6-0.1c0,0-0.1,0-0.1-0.1
			C31.9,35.8,31.8,35.6,31.7,35.3z"/>
		<path class="st3" d="M32.4,35.7c0.1,0.1,0.2,0.1,0.4,0.1c0.1,0,0.1,0,0.2-0.1c0,0,0,0,0,0c0,0,0,0,0,0c0.2-0.1,0.3-0.3,0.2-0.6
			c-0.1-0.3-0.4-0.5-0.7-0.5c-0.1,0-0.3,0.1-0.3,0.2c0,0,0,0,0,0c-0.1,0.1-0.1,0.3-0.1,0.4C32.2,35.4,32.2,35.5,32.4,35.7
			C32.4,35.6,32.4,35.6,32.4,35.7z"/>
		<path class="st3" d="M37.4,36.5l1.8-0.2c0.1-0.5,0.1-1.1,0.1-1.6l-1.8-0.4c-0.1-0.5-0.3-1-0.5-1.5l1.1-1.4
			c-0.3-0.4-0.7-0.8-1.1-1.2l-1.5,1c-0.3-0.2-0.6-0.4-0.9-0.5c-0.2-0.1-0.3-0.1-0.5-0.2l-0.2-1.8c-0.5-0.1-1.1-0.1-1.6-0.1l-0.4,1.8
			c-0.5,0.1-1,0.3-1.5,0.5l-1.4-1.1c-0.4,0.3-0.8,0.7-1.2,1.1l1,1.5c-0.2,0.3-0.4,0.6-0.5,0.9c-0.1,0.2-0.1,0.3-0.2,0.5l-1.8,0.2
			c-0.1,0.5-0.1,1.1-0.1,1.6l1.8,0.4c0.1,0.5,0.3,1,0.5,1.5L27.3,39c0.3,0.4,0.7,0.8,1.1,1.2l1.5-1c0.3,0.2,0.6,0.4,0.9,0.5
			c0.2,0.1,0.3,0.1,0.5,0.2l0.2,1.8c0.5,0.1,1.1,0.1,1.6,0.1l0.4-1.8c0.5-0.1,1-0.3,1.5-0.5l1.4,1.1c0.4-0.3,0.8-0.7,1.2-1.1l-1-1.5
			c0.2-0.3,0.4-0.6,0.5-0.9C37.3,36.8,37.3,36.6,37.4,36.5z M32.7,38.7c-1.9,0-3.5-1.6-3.5-3.5s1.6-3.5,3.5-3.5s3.5,1.6,3.5,3.5
			S34.6,38.7,32.7,38.7z"/>
	</g>
</g>
</svg>
