<?xml version="1.0" encoding="utf-8"?>
<!-- Generator: Adobe Illustrator 27.1.1, SVG Export Plug-In . SVG Version: 6.00 Build 0)  -->
<svg version="1.1" id="Layer_1" xmlns="http://www.w3.org/2000/svg" xmlns:xlink="http://www.w3.org/1999/xlink" x="0px" y="0px"
	 width="50px" height="50px" viewBox="0 0 50 50" style="enable-background:new 0 0 50 50;" xml:space="preserve">
<style type="text/css">
	.st0{fill:#FFFFFF;}
	.st1{fill:#F3C849;}
	.st2{fill:#F6F4F1;}
	.st3{fill:#F1BA1B;stroke:#3B1A53;stroke-linecap:round;stroke-linejoin:round;stroke-miterlimit:10;}
	.st4{fill:#F6F4F1;stroke:#3B1A53;stroke-linecap:round;stroke-linejoin:round;stroke-miterlimit:10;}
	.st5{fill:#E8E3DB;stroke:#3B1A53;stroke-linecap:round;stroke-linejoin:round;stroke-miterlimit:10;}
	.st6{fill:none;stroke:#3B1A53;stroke-linecap:round;stroke-linejoin:round;stroke-miterlimit:10;}
	.st7{fill:#F1BA1B;}
</style>
<ellipse class="st0" cx="25" cy="25" rx="25" ry="25"/>
<g>
	<g>
		<ellipse class="st1" cx="25" cy="25" rx="23.5" ry="23.6"/>
		<ellipse class="st2" cx="25" cy="25" rx="21.5" ry="21.5"/>
	</g>
</g>
<g>
	<polygon class="st3" points="17.2,11.4 11.7,40 27.6,40 33.2,40 34.3,34.5 38.8,11.4 	"/>
	<polygon class="st4" points="15.3,9.2 9.7,37.9 25.7,37.9 26.8,32.4 32.4,32.4 36.8,9.3 	"/>
	<polygon class="st5" points="25.7,37.9 32.4,32.4 26.8,32.4 	"/>
	<polygon class="st6" points="22.1,11.6 18.4,11.6 17.7,15.3 21.4,15.3 	"/>
	<polygon class="st6" points="19.9,23 16.2,23 15.5,26.6 19.2,26.6 	"/>
	<polygon class="st6" points="18.8,28.7 15.1,28.7 14.4,32.3 18.1,32.3 	"/>
	<g>
		<polygon class="st6" points="21,17.3 17.3,17.3 16.6,21 20.3,21 		"/>
		<polygon class="st7" points="19.6,20 17.7,20 18,18.2 19.9,18.2 		"/>
	</g>
	<polygon class="st7" points="27.2,32.9 26.5,36.5 30.9,32.9 	"/>
	<line class="st6" x1="24" y1="13.4" x2="33.2" y2="13.4"/>
	<line class="st6" x1="22.9" y1="19.1" x2="32.1" y2="19.1"/>
	<line class="st6" x1="21.8" y1="24.8" x2="31" y2="24.8"/>
	<line class="st6" x1="20.7" y1="30.5" x2="29.9" y2="30.5"/>
</g>
</svg>
