<?xml version="1.0" encoding="utf-8"?>
<!-- Generator: Adobe Illustrator 27.0.0, SVG Export Plug-In . SVG Version: 6.00 Build 0)  -->
<svg version="1.1" id="Layer_1" xmlns="http://www.w3.org/2000/svg" xmlns:xlink="http://www.w3.org/1999/xlink" x="0px" y="0px"
	 width="50px" height="50px" viewBox="0 0 50 50" style="enable-background:new 0 0 50 50;" xml:space="preserve">
<style type="text/css">
	.st0{fill:#FFFFFF;}
	.st1{fill:#F3C849;}
	.st2{fill:#F6F4F1;}
	.st3{fill:#3B1C53;}
	.st4{fill:#F6D577;}
	.st5{fill:#F1BA1B;}
</style>
<ellipse class="st0" cx="25" cy="25" rx="25" ry="25"/>
<g>
	<g>
		<ellipse class="st1" cx="25" cy="25" rx="23.5" ry="23.6"/>
		<ellipse class="st2" cx="25" cy="25" rx="21.5" ry="21.5"/>
	</g>
	<g>
		<path class="st3" d="M16.8,12.6c0,0-0.8,0.1-1.1,1.5C15.4,15.6,12,33.1,12,33.1s-0.1,0.9,0.6,1.3c0.7,0.3,15,7,15,7s1,0.2,1.2-0.7
			c0.2-0.8,3.7-18.2,3.7-18.2s0.4-1.7-0.5-2.2c-0.2-0.1-0.8-0.4-1.7-0.8c0.5-0.8,0.8-1.7,0.9-2.6c0.2-0.8,0.4-2.6,0.4-2.6
			s0.8,0,1.4-0.1c0.6,0,0.9-0.7,1-0.9c0-0.2,0.1-0.8,0.1-0.8l-9,0.2c0,0,8.2-1.5,9.1-1.8C35,10.7,35,8.7,35,8.7L16.8,12.6z
			 M27.3,39.4l-13.7-6.3l3.6-17.6l13.7,6.3L27.3,39.4z M29.8,16.6c-0.2,0.8-0.5,1.6-0.8,2.4c-0.5-0.2-0.9-0.5-1.5-0.7
			c1.4-0.8,2-2.5,1.2-4c0.5,0,0.9,0,1.4,0C30,15.1,29.9,15.8,29.8,16.6z M28.1,14.3c0,0.2,0,0.5,0,0.7c-0.1,1.2-0.6,2.1-1.1,3.1
			c-3.5-1.6-7.5-3.5-7.5-3.5S24.2,14.5,28.1,14.3z"/>
		<polygon class="st4" points="17.6,16.2 14.2,32.8 26.9,38.6 30.3,22.1 		"/>
		<path class="st5" d="M22.3,15.3l5.3-0.3c-0.1,1-0.4,1.7-1,2.3L22.3,15.3z"/>
		<path class="st5" d="M29.1,14.8c0.3,1.4-0.1,2.6-1,3.5l0.5,0.2c0.9-0.8,1.1-2.3,1.2-3.7H29.1z"/>
	</g>
</g>
</svg>
