<?xml version="1.0" encoding="utf-8"?>
<!-- Generator: Adobe Illustrator 27.1.1, SVG Export Plug-In . SVG Version: 6.00 Build 0)  -->
<svg version="1.1" id="Layer_1" xmlns="http://www.w3.org/2000/svg" xmlns:xlink="http://www.w3.org/1999/xlink" x="0px" y="0px"
	 width="50px" height="50px" viewBox="0 0 50 50" style="enable-background:new 0 0 50 50;" xml:space="preserve">
<style type="text/css">
	.st0{fill:#FFFFFF;}
	.st1{fill:#F3C849;}
	.st2{fill:#F6F4F1;}
	.st3{fill:#F1BA1B;}
	.st4{fill:#3B1A53;}
</style>
<g>
	<circle class="st0" cx="25" cy="25" r="25"/>
	<g>
		<g>
			<ellipse class="st1" cx="25" cy="25" rx="23.5" ry="23.6"/>
			<ellipse class="st2" cx="25" cy="25" rx="21.5" ry="21.5"/>
		</g>
	</g>
</g>
<g>
	<path class="st3" d="M20.1,9.7l1.7-1l-0.5-1c-0.3-0.4-0.9-0.6-1.3-0.4c-0.4,0.3-0.6,0.9-0.4,1.3L20.1,9.7z"/>
	<polygon class="st4" points="23,14.6 24.1,12.5 22.1,9.1 20.4,10 	"/>
	<path class="st4" d="M36.5,29.1l-0.6-1.5l0.5-0.9l0.3-0.5h3c-0.3-0.5-0.6-1-1.1-1.3c-0.5-0.3-1-0.5-1.7-0.5c-0.3,0-0.5,0-0.7,0.1
		c-0.3,0.1-0.6,0.2-0.9,0.4c-0.4,0.3-0.7,0.6-1,1c-0.3,0.3-0.7,0.4-1.5,0.4h-0.5l1.7,2.9c0.2,0.1,0.2,0.1,0.3,0.2
		c0.3,0.5,0.7,0.8,1.2,1.1c0.4,0.2,0.9,0.4,1.4,0.4c0.8,0,1.6-0.3,2.1-0.9c0,0,0,0,0,0c0.1-0.1,0.2-0.2,0.3-0.4
		c0.1-0.1,0.1-0.2,0.2-0.2c0-0.1,0.1-0.1,0.1-0.2h0H36.5z"/>
	<g>
		<path class="st4" d="M30.7,8.6l-2-1.3c-0.5-0.3-1.2-0.2-1.3,0.2l-2.9,5l-0.2,0.3l-1.2,2L23,15l-1.4,2.4c-0.1,0.3-0.1,0.5,0,0.8
			c0,0.1-0.5,0.1-0.7,0.4c-0.2,0.3-0.1,0.6,0.2,0.8l1,0.5c-0.4,0.6-1,1.6-1.6,2.9c-0.5,0.9-1.2,2-1.8,3h1.3c0.5-0.8,1.1-1.6,1.4-2.3
			c0.7-1.3,1.3-2.2,1.7-2.9l1,0.5c0.3,0.2,0.6,0.1,0.8-0.2c0.2-0.3-0.1-0.8,0-0.8c0.3,0,0.5-0.2,0.7-0.4l0.1-0.2l0.2-0.3l1.2-2
			l0.2-0.3l4.1-7.2C31.5,9.4,31.3,8.9,30.7,8.6z"/>
		<path class="st3" d="M22.8,17.9c-0.1,0.2-0.4,0.2-0.5,0.1c-0.2-0.1-0.3-0.2-0.1-0.5c0.2-0.3,5.3-8.8,5.3-8.8
			c0.1-0.2,0.3-0.2,0.4-0.1c0.2,0.1,0.3,0.3,0.2,0.4L22.8,17.9z"/>
		<path class="st3" d="M24.1,18.8C24,19,23.8,19.1,23.6,19l-0.3-0.2c-0.3-0.2-0.3-0.4-0.2-0.5l5.2-8.9c0.2-0.3,0.4-0.3,0.5-0.2
			l0.3,0.2c0.2,0.1,0.3,0.4,0.2,0.5L24.1,18.8z"/>
		<path class="st3" d="M30.4,10.4l-5.3,8.9c-0.1,0.2-0.4,0.2-0.5,0.1c-0.2-0.1-0.3-0.2-0.1-0.5c0.2-0.3,5.3-8.8,5.3-8.8
			c0.1-0.2,0.3-0.2,0.4-0.1C30.4,10,30.5,10.2,30.4,10.4z"/>
	</g>
	<path class="st4" d="M18,29.2h-0.6l0,0l0,0c-0.3,0-0.5,0.1-0.7,0.2c-2,3.5-3.8,6.5-3.8,6.5c-0.1,0.1-0.3,0-0.3,0l-1.3,2.8l0.7,0.4
		l1.8-2.4c0,0-0.2-0.1-0.1-0.3C13.9,36.5,15.9,33,18,29.2z"/>
	<path class="st4" d="M36.1,35l0.5,0.1l0.1-0.5l0.4,0.1l-3.1-5.3l-0.2-0.4l-1.6-2.8L32,26l-2.5-4.2l-2.4-4.1l-1.2,2l1.8,3.1l1.9,3.1
		l0.2,0.3l1.6,2.7l0.2,0.3l3.8,6.3l0.1-0.4l0.6,0.3L36.1,35z"/>
	<line class="st4" x1="25" y1="26.2" x2="29.3" y2="26.2"/>
	<path class="st4" d="M29.2,26.2H25h-4.8h-0.4h-1.3h-0.4h-2c-0.5-0.9-1.4-1.4-2.5-1.4c-1.6,0-2.9,1.3-2.9,2.9s1.3,2.9,2.9,2.9
		c1.1,0,2-0.6,2.5-1.4c0.5,0,1.3,0,1.3,0h0.8h0.4H25h6L29.2,26.2z M15.3,28.8l-1,0.7h-1.2l-1-0.7l-0.4-1.1l0.4-1.1l1-0.7h1.2l1,0.7
		l0.4,1.1L15.3,28.8z"/>
</g>
<g>
	<path class="st3" d="M37.1,35l-0.3-0.1l-0.1,0.5l-0.5-0.1l-0.2,0.4l-0.6-0.2l-0.1,0.3c0.4,0.4,1,1.1,1.5,1.7l0.8-0.5
		C37.6,36.3,37.3,35.5,37.1,35z"/>
	<path class="st4" d="M37.8,37L37,37.5c0.7,0.8,1.4,1.6,1.4,1.6S38.1,38.1,37.8,37z"/>
</g>
</svg>
