<?xml version="1.0" encoding="utf-8"?>
<!-- Generator: Adobe Illustrator 26.5.0, SVG Export Plug-In . SVG Version: 6.00 Build 0)  -->
<svg version="1.1" xmlns="http://www.w3.org/2000/svg" xmlns:xlink="http://www.w3.org/1999/xlink" x="0px" y="0px" width="50px"
	 height="50px" viewBox="0 0 50 50" style="enable-background:new 0 0 50 50;" xml:space="preserve">
<style type="text/css">
	.st0{display:none;}
	.st1{display:inline;fill:#3C1053;}
	.st2{fill:#FFFFFF;}
	.st3{fill:#8D857B;}
	.st4{fill:#3B1A53;}
</style>
<g id="Layer_1" class="st0">
	<path class="st1" d="M18.8,43.8c-3.4,0-6.2-2.8-6.2-6.2c0-0.6,0.5-1,1-1s1,0.5,1,1c0,2.3,1.9,4.2,4.2,4.2s4.2-1.9,4.2-4.2
		s-1.9-4.2-4.2-4.2h-3.1c-0.6,0-1-0.5-1-1s0.5-1,1-1h3.1c2.3,0,4.2-1.9,4.2-4.2s-1.9-4.2-4.2-4.2s-4.2,1.9-4.2,4.2c0,0.6-0.5,1-1,1
		s-1-0.5-1-1c0-3.4,2.8-6.2,6.2-6.2s6.2,2.8,6.2,6.2c0,2.2-1.1,4.1-2.8,5.2c1.7,1.1,2.8,3,2.8,5.2C25,40.9,22.2,43.7,18.8,43.8
		L18.8,43.8z M34.4,43.8c-0.6,0-1-0.5-1-1V24.4l-2.4,2.4c-0.4,0.4-1.1,0.4-1.5,0s-0.4-1.1,0-1.5l4.2-4.2c0.3-0.3,0.7-0.4,1.1-0.2
		c0.4,0.2,0.6,0.5,0.6,1v20.8C35.4,43.3,34.9,43.7,34.4,43.8L34.4,43.8z M42.7,50H7.3c-4,0-7.3-3.3-7.3-7.3V11.5
		c0-4,3.3-7.3,7.3-7.3c0.6,0,1,0.5,1,1s-0.5,1-1,1c-2.9,0-5.2,2.3-5.2,5.2v31.2c0,2.9,2.3,5.2,5.2,5.2h35.4c2.9,0,5.2-2.3,5.2-5.2
		V11.5c0-2.9-2.3-5.2-5.2-5.2c-0.6,0-1-0.5-1-1s0.5-1,1-1c4,0,7.3,3.3,7.3,7.3v31.2C50,46.7,46.7,50,42.7,50z M34.4,6.2H15.6
		c-0.6,0-1-0.5-1-1s0.5-1,1-1h18.8c0.6,0,1,0.5,1,1S35,6.2,34.4,6.2z M11.5,10.4c-0.6,0-1-0.5-1-1V1c0-0.6,0.5-1,1-1s1,0.5,1,1v8.3
		C12.5,9.9,12,10.4,11.5,10.4z M38.5,10.4c-0.6,0-1-0.5-1-1V1c0-0.6,0.5-1,1-1s1,0.5,1,1v8.3C39.6,9.9,39.1,10.4,38.5,10.4z
		 M49,16.7H1c-0.6,0-1-0.5-1-1s0.5-1,1-1H49c0.6,0,1,0.5,1,1C50,16.2,49.5,16.7,49,16.7z"/>
</g>
<g id="Layer_2">
	<g>
		<g>
			<path class="st2" d="M27.6,0.9c-0.9-0.1-1.8-0.1-2.7-0.1c-5.5,0-10.8,1.9-15.2,5.4c-5.1,4.1-8.2,9.9-8.9,16.3
				C0.1,28.8,2,35.2,6.1,40.2c4.1,5.1,9.9,8.2,16.3,8.9c6.5,0.7,12.8-1.1,17.8-5.2s8.2-9.9,8.9-16.3C50.6,14.3,41,2.3,27.6,0.9z
				 M25,48.4C12.1,48.4,1.6,37.9,1.6,25C1.6,12.1,12.1,1.6,25,1.6S48.5,12.1,48.5,25C48.5,37.9,37.9,48.4,25,48.4z"/>
			<circle class="st2" cx="25" cy="25" r="22.8"/>
			<g>
				<path class="st3" d="M27.7,0.2C21.1-0.6,14.6,1.3,9.3,5.5S0.9,15.7,0.2,22.3c-0.7,6.6,1.2,13.2,5.4,18.4
					c4.2,5.2,10.1,8.5,16.8,9.2C23.2,50,24.1,50,25,50c5.7,0,11.1-1.9,15.6-5.5c5.2-4.2,8.5-10.1,9.2-16.8
					C51.3,14,41.4,1.6,27.7,0.2z M49.1,27.6c-0.7,6.5-3.9,12.2-8.9,16.3s-11.4,5.9-17.8,5.2c-6.5-0.7-12.2-3.9-16.3-8.9
					C2,35.2,0.1,28.8,0.9,22.4c0.7-6.5,3.9-12.2,8.9-16.3c4.4-3.5,9.7-5.4,15.2-5.4c0.9,0,1.8,0,2.7,0.1C41,2.3,50.6,14.3,49.1,27.6
					z"/>
				<path class="st3" d="M25,1.6C12.1,1.6,1.6,12.1,1.6,25c0,12.9,10.5,23.4,23.4,23.4S48.5,37.9,48.5,25C48.5,12.1,37.9,1.6,25,1.6
					z M25,47.8C12.4,47.8,2.2,37.6,2.2,25S12.4,2.2,25,2.2S47.8,12.4,47.8,25S37.6,47.8,25,47.8z"/>
			</g>
		</g>
		<g>
			<path class="st4" d="M10.1,10.1v29.8h29.8V10.1H10.1z M39.1,39.1H10.9V10.9h28.3V39.1z"/>
			<path class="st4" d="M18,37.8h4.2h0.8h4.2h0.8H32h0.8h5v-5V32v-4.2v-0.8v-4.2v-0.8v-5h-5H32h-4.2h-0.8h-4.2h-0.8H18h-0.8h-5v5
				v0.8v4.2v0.8V32v0.8v5h5H18z M22.1,37H18v-4.2h4.2V37z M18,27.9h4.2V32H18V27.9z M18,22.9h4.2v4.2H18V22.9z M22.9,27.9h4.2V32
				h-4.2V27.9z M32,27.1h-4.2v-4.2H32V27.1z M27.1,27.1h-4.2v-4.2h4.2V27.1z M27.1,37h-4.2v-4.2h4.2V37z M32,37h-4.2v-4.2H32V37z
				 M37,37h-4.2v-4.2H37V37z M37,32h-4.2v-4.2H37V32z M37,27.1h-4.2v-4.2H37V27.1z M32.8,18H37v4.2h-4.2V18z M27.9,18H32v4.2h-4.2
				V18z M22.9,18h4.2v4.2h-4.2V18z M18,18h4.2v4.2H18V18z M13,18h4.2v4.2H13V18z M13,22.9h4.2v4.2H13V22.9z M13,27.9h4.2V32H13V27.9
				z M13,37v-4.2h4.2V37H13z"/>
		</g>
	</g>
</g>
</svg>
