<?xml version="1.0" encoding="utf-8"?>
<!-- Generator: Adobe Illustrator 27.3.1, SVG Export Plug-In . SVG Version: 6.00 Build 0)  -->
<svg version="1.1" id="Layer_1" xmlns="http://www.w3.org/2000/svg" xmlns:xlink="http://www.w3.org/1999/xlink" x="0px" y="0px"
	 width="50px" height="50px" viewBox="0 0 50 50" style="enable-background:new 0 0 50 50;" xml:space="preserve">
<style type="text/css">
	.st0{opacity:0.75;fill:#AFB1B4;enable-background:new    ;}
	.st1{fill:url(#SVGID_1_);stroke:#3D3935;stroke-width:0.1745;stroke-linecap:round;stroke-linejoin:round;stroke-miterlimit:10;}
	
		.st2{fill:url(#SVGID_00000168093994654657983720000001098697627485278132_);stroke:#3D3935;stroke-width:0.1745;stroke-linecap:round;stroke-linejoin:round;stroke-miterlimit:10;}
	
		.st3{fill:url(#SVGID_00000135671295430238954100000013948002450281888152_);stroke:#3D3935;stroke-width:0.1745;stroke-linecap:round;stroke-linejoin:round;stroke-miterlimit:10;}
	
		.st4{fill:url(#SVGID_00000158737296948441942460000008539511406386097841_);stroke:#3D3935;stroke-width:0.1745;stroke-miterlimit:10;}
	.st5{fill:url(#SVGID_00000039835363714313164290000014802314014237820083_);}
	
		.st6{fill:url(#SVGID_00000085931848442639319240000003297942644057179040_);stroke:#3D3935;stroke-width:0.1745;stroke-miterlimit:10;}
	
		.st7{fill:url(#SVGID_00000105408894119106592870000000355508991972801210_);stroke:#3D3935;stroke-width:0.1745;stroke-linecap:round;stroke-linejoin:round;stroke-miterlimit:10;}
	
		.st8{fill:url(#SVGID_00000147196796028881220940000015174401189099227033_);stroke:#3D3935;stroke-width:0.1745;stroke-linecap:round;stroke-linejoin:round;stroke-miterlimit:10;}
	
		.st9{fill:url(#SVGID_00000014617371342179184990000007290503676810122143_);stroke:#3D3935;stroke-width:0.1745;stroke-linecap:round;stroke-linejoin:round;stroke-miterlimit:10;}
	.st10{opacity:0.85;fill:#FFFFFF;enable-background:new    ;}
</style>
<g id="Layer_2_00000044146277312509816610000011501296016144209817_">
</g>
<circle class="st0" cx="25.4" cy="33.3" r="16.4"/>
<g>
	
		<linearGradient id="SVGID_1_" gradientUnits="userSpaceOnUse" x1="31.35" y1="37.1" x2="31.35" y2="56.6255" gradientTransform="matrix(1 0 0 -1 0 52)">
		<stop  offset="0" style="stop-color:#910F14"/>
		<stop  offset="2.004552e-02" style="stop-color:#9A1519"/>
		<stop  offset="9.032345e-02" style="stop-color:#B52827"/>
		<stop  offset="0.1711" style="stop-color:#CB3733"/>
		<stop  offset="0.2653" style="stop-color:#DC433C"/>
		<stop  offset="0.382" style="stop-color:#E74B43"/>
		<stop  offset="0.5457" style="stop-color:#EE5046"/>
		<stop  offset="1" style="stop-color:#F05147"/>
	</linearGradient>
	<polygon class="st1" points="26.6,14.9 29.6,14.9 36.1,-4.6 33.1,-4.6 	"/>
	
		<linearGradient id="SVGID_00000030464081071909392390000015305876554994561981_" gradientUnits="userSpaceOnUse" x1="24.95" y1="37.1" x2="24.95" y2="56.6255" gradientTransform="matrix(1 0 0 -1 0 52)">
		<stop  offset="0" style="stop-color:#910F14"/>
		<stop  offset="2.004552e-02" style="stop-color:#9A1519"/>
		<stop  offset="9.032345e-02" style="stop-color:#B52827"/>
		<stop  offset="0.1711" style="stop-color:#CB3733"/>
		<stop  offset="0.2653" style="stop-color:#DC433C"/>
		<stop  offset="0.382" style="stop-color:#E74B43"/>
		<stop  offset="0.5457" style="stop-color:#EE5046"/>
		<stop  offset="1" style="stop-color:#F05147"/>
	</linearGradient>
	
		<polygon style="fill:url(#SVGID_00000030464081071909392390000015305876554994561981_);stroke:#3D3935;stroke-width:0.1745;stroke-linecap:round;stroke-linejoin:round;stroke-miterlimit:10;" points="
		20.2,14.9 23.2,14.9 29.7,-4.6 26.7,-4.6 	"/>
	
		<linearGradient id="SVGID_00000129202019909193875310000008912713516762088595_" gradientUnits="userSpaceOnUse" x1="28.15" y1="37.1" x2="28.15" y2="56.6255" gradientTransform="matrix(1 0 0 -1 0 52)">
		<stop  offset="2.032439e-02" style="stop-color:#8D857B"/>
		<stop  offset="3.402793e-02" style="stop-color:#989187"/>
		<stop  offset="7.490852e-02" style="stop-color:#B5AEA5"/>
		<stop  offset="0.1179" style="stop-color:#CBC6BD"/>
		<stop  offset="0.1634" style="stop-color:#DBD6CE"/>
		<stop  offset="0.213" style="stop-color:#E5E0D8"/>
		<stop  offset="0.2747" style="stop-color:#E8E3DB"/>
	</linearGradient>
	
		<polygon style="fill:url(#SVGID_00000129202019909193875310000008912713516762088595_);stroke:#3D3935;stroke-width:0.1745;stroke-linecap:round;stroke-linejoin:round;stroke-miterlimit:10;" points="
		23.2,14.9 26.6,14.9 33.1,-4.6 29.7,-4.6 	"/>
</g>
<linearGradient id="SVGID_00000044157682865094146030000001440155249283768230_" gradientUnits="userSpaceOnUse" x1="19.2387" y1="35.6" x2="30.5825" y2="35.6" gradientTransform="matrix(1 0 0 -1 0 52)">
	<stop  offset="3.785138e-04" style="stop-color:#999B9E"/>
	<stop  offset="8.053852e-02" style="stop-color:#939598"/>
	<stop  offset="0.1806" style="stop-color:#8C8E90"/>
	<stop  offset="0.3961" style="stop-color:#CDCFD0"/>
	<stop  offset="0.5471" style="stop-color:#AFB1B4"/>
	<stop  offset="0.6524" style="stop-color:#C6C7C9"/>
	<stop  offset="0.7568" style="stop-color:#CBCCCE"/>
	<stop  offset="0.8875" style="stop-color:#97999C"/>
	<stop  offset="1" style="stop-color:#CFD1D2"/>
</linearGradient>
<path style="fill:url(#SVGID_00000044157682865094146030000001440155249283768230_);stroke:#3D3935;stroke-width:0.1745;stroke-miterlimit:10;" d="
	M29.4,18.3h-9.1c-0.6,0-1.1-0.5-1.1-1.1v-1.6c0-0.6,0.5-1.1,1.1-1.1h9.1c0.6,0,1.1,0.5,1.1,1.1v1.6C30.6,17.8,30.1,18.3,29.4,18.3z
	 M20.4,14.7c-0.4,0-0.8,0.4-0.8,0.8v1.6c0,0.4,0.4,0.8,0.8,0.8h9.1c0.4,0,0.8-0.4,0.8-0.8v-1.6c0-0.4-0.4-0.8-0.8-0.8H20.4z"/>
<linearGradient id="SVGID_00000024712654785018038500000008207481958125702076_" gradientUnits="userSpaceOnUse" x1="14.2227" y1="30.3773" x2="35.5773" y2="9.0227" gradientTransform="matrix(1 0 0 -1 0 52)">
	<stop  offset="0" style="stop-color:#CFD1D2"/>
	<stop  offset="0.1125" style="stop-color:#97999C"/>
	<stop  offset="0.2432" style="stop-color:#CBCCCE"/>
	<stop  offset="0.3476" style="stop-color:#C6C7C9"/>
	<stop  offset="0.4529" style="stop-color:#AFB1B4"/>
	<stop  offset="0.6039" style="stop-color:#CDCFD0"/>
	<stop  offset="0.8194" style="stop-color:#8C8E90"/>
	<stop  offset="0.9195" style="stop-color:#939598"/>
	<stop  offset="0.9996" style="stop-color:#999B9E"/>
</linearGradient>
<circle style="fill:url(#SVGID_00000024712654785018038500000008207481958125702076_);" cx="24.9" cy="32.3" r="15.1"/>
<linearGradient id="SVGID_00000137114690991379016850000001037923706469355430_" gradientUnits="userSpaceOnUse" x1="13.325" y1="31.275" x2="36.4938" y2="8.1062" gradientTransform="matrix(1 0 0 -1 0 52)">
	<stop  offset="3.785138e-04" style="stop-color:#999B9E"/>
	<stop  offset="8.053852e-02" style="stop-color:#939598"/>
	<stop  offset="0.1806" style="stop-color:#8C8E90"/>
	<stop  offset="0.3961" style="stop-color:#CDCFD0"/>
	<stop  offset="0.5471" style="stop-color:#AFB1B4"/>
	<stop  offset="0.6524" style="stop-color:#C6C7C9"/>
	<stop  offset="0.7568" style="stop-color:#CBCCCE"/>
	<stop  offset="0.8875" style="stop-color:#97999C"/>
	<stop  offset="1" style="stop-color:#CFD1D2"/>
</linearGradient>
<path style="fill:url(#SVGID_00000137114690991379016850000001037923706469355430_);stroke:#3D3935;stroke-width:0.1745;stroke-miterlimit:10;" d="
	M24.9,48.7c-9,0-16.4-7.4-16.4-16.4s7.4-16.4,16.4-16.4s16.4,7.4,16.4,16.4S34,48.7,24.9,48.7z M24.9,18.5
	c-7.6,0-13.8,6.2-13.8,13.8s6.2,13.8,13.8,13.8s13.8-6.2,13.8-13.8S32.5,18.5,24.9,18.5z"/>
<g>
	
		<linearGradient id="SVGID_00000140013593144697419760000018211507826664184481_" gradientUnits="userSpaceOnUse" x1="18.35" y1="37.1" x2="18.35" y2="56.6255" gradientTransform="matrix(1 0 0 -1 0 52)">
		<stop  offset="0" style="stop-color:#910F14"/>
		<stop  offset="2.004552e-02" style="stop-color:#9A1519"/>
		<stop  offset="9.032345e-02" style="stop-color:#B52827"/>
		<stop  offset="0.1711" style="stop-color:#CB3733"/>
		<stop  offset="0.2653" style="stop-color:#DC433C"/>
		<stop  offset="0.382" style="stop-color:#E74B43"/>
		<stop  offset="0.5457" style="stop-color:#EE5046"/>
		<stop  offset="1" style="stop-color:#F05147"/>
	</linearGradient>
	
		<polygon style="fill:url(#SVGID_00000140013593144697419760000018211507826664184481_);stroke:#3D3935;stroke-width:0.1745;stroke-linecap:round;stroke-linejoin:round;stroke-miterlimit:10;" points="
		23.1,14.9 20.1,14.9 13.6,-4.6 16.6,-4.6 	"/>
	
		<linearGradient id="SVGID_00000096775176301665540370000015966094318596379795_" gradientUnits="userSpaceOnUse" x1="24.75" y1="37.1" x2="24.75" y2="56.6255" gradientTransform="matrix(1 0 0 -1 0 52)">
		<stop  offset="0" style="stop-color:#910F14"/>
		<stop  offset="2.004552e-02" style="stop-color:#9A1519"/>
		<stop  offset="9.032345e-02" style="stop-color:#B52827"/>
		<stop  offset="0.1711" style="stop-color:#CB3733"/>
		<stop  offset="0.2653" style="stop-color:#DC433C"/>
		<stop  offset="0.382" style="stop-color:#E74B43"/>
		<stop  offset="0.5457" style="stop-color:#EE5046"/>
		<stop  offset="1" style="stop-color:#F05147"/>
	</linearGradient>
	
		<polygon style="fill:url(#SVGID_00000096775176301665540370000015966094318596379795_);stroke:#3D3935;stroke-width:0.1745;stroke-linecap:round;stroke-linejoin:round;stroke-miterlimit:10;" points="
		29.5,14.9 26.5,14.9 20,-4.6 23,-4.6 	"/>
	
		<linearGradient id="SVGID_00000145045825521809457000000017366698480681406140_" gradientUnits="userSpaceOnUse" x1="21.55" y1="37.1" x2="21.55" y2="56.6255" gradientTransform="matrix(1 0 0 -1 0 52)">
		<stop  offset="2.032439e-02" style="stop-color:#8D857B"/>
		<stop  offset="3.402793e-02" style="stop-color:#989187"/>
		<stop  offset="7.490852e-02" style="stop-color:#B5AEA5"/>
		<stop  offset="0.1179" style="stop-color:#CBC6BD"/>
		<stop  offset="0.1634" style="stop-color:#DBD6CE"/>
		<stop  offset="0.213" style="stop-color:#E5E0D8"/>
		<stop  offset="0.2747" style="stop-color:#E8E3DB"/>
	</linearGradient>
	
		<polygon style="fill:url(#SVGID_00000145045825521809457000000017366698480681406140_);stroke:#3D3935;stroke-width:0.1745;stroke-linecap:round;stroke-linejoin:round;stroke-miterlimit:10;" points="
		26.5,14.9 23.1,14.9 16.6,-4.6 20,-4.6 	"/>
</g>
<path class="st10" d="M36.3,25.5c-0.1,0.7-0.1,1.5-0.1,1.6l0,0l0,0c0-0.1,0.3-0.9,0.5-1.6v-0.2l0.6,0.1l0,0c0,0.1,0,0.2,0.2,0.3
	s0.2-0.1,0.2-0.2l0,0l0,0c0.1,0,0.2,0,0.3-0.2c0-0.1-0.1-0.2-0.2-0.2l0,0l0,0c0-0.1,0-0.2-0.2-0.3c-0.1,0-0.2,0.1-0.2,0.2l0,0
	l-0.6-0.1l0,0l0.1-0.7l0,0c0.1,0,0.2,0,0.3-0.2c0-0.1-0.1-0.2-0.2-0.2l0,0l0,0c0-0.1,0-0.2-0.2-0.3c-0.1,0-0.2,0.1-0.2,0.2l0,0l0,0
	c-0.1,0-0.2,0-0.3,0.2c0,0.1,0.1,0.2,0.2,0.2l0,0L36.4,25l0,0l-0.6-0.1l0,0c0-0.1,0-0.2-0.2-0.3c-0.1,0-0.2,0.1-0.2,0.2l0,0l0,0
	c-0.1,0-0.2,0-0.3,0.2c0,0.1,0.1,0.2,0.2,0.2l0,0l0,0c0,0.1,0,0.2,0.2,0.3c0.1,0,0.2-0.1,0.2-0.2l0,0L36.3,25.5L36.3,25.5L36.3,25.5
	z"/>
</svg>
