<?xml version="1.0" encoding="utf-8"?>
<!-- Generator: Adobe Illustrator 27.0.0, SVG Export Plug-In . SVG Version: 6.00 Build 0)  -->
<svg version="1.1" id="Layer_1" xmlns="http://www.w3.org/2000/svg" xmlns:xlink="http://www.w3.org/1999/xlink" x="0px" y="0px"
	 width="50px" height="50px" viewBox="0 0 50 50" style="enable-background:new 0 0 50 50;" xml:space="preserve">
<style type="text/css">
	.st0{fill:#FFFFFF;}
	.st1{fill:#F3C849;}
	.st2{fill:#F6F4F1;}
	.st3{fill:#3B1A53;}
	.st4{fill:#F1BA1B;}
	.st5{fill:#F6D577;}
</style>
<g>
	<circle class="st0" cx="25" cy="25" r="25"/>
	<g>
		<g>
			<ellipse class="st1" cx="25" cy="25" rx="23.5" ry="23.6"/>
			<ellipse class="st2" cx="25" cy="25" rx="21.5" ry="21.5"/>
		</g>
	</g>
	<g>
		<g>
			<path class="st3" d="M24.8,12.7c-5.8,0-10.4,4.7-10.4,10.4c0,0.4,0.3,0.7,0.7,0.7c0.4,0,0.7-0.3,0.7-0.7c0-5,4.1-9.1,9.1-9.1
				s9.1,4.1,9.1,9.1c0,3.4-4.1,7.3-4.1,7.3c-0.7,0.6-1.2,1.8-1.2,2.7v2.9c0,0.6-0.2,1.7-0.5,2.3c0,0-1.3,2.9-3.3,2.9
				c-0.4,0-0.7,0.3-0.7,0.7c0,0.4,0.3,0.7,0.7,0.7c2.9,0,4.5-3.5,4.5-3.7c0.3-0.7,0.6-2,0.6-2.8v-2.9c0-0.5,0.4-1.4,0.8-1.7
				c0.2-0.2,4.5-4.3,4.5-8.3C35.2,17.4,30.5,12.7,24.8,12.7z"/>
			<path class="st3" d="M24.8,42.8c-0.5,0-1-0.4-1-1c0-0.5,0.4-1,1-1c1.8,0,3.1-2.7,3.1-2.7c0.2-0.5,0.5-1.6,0.5-2.1v-2.9
				c0-1,0.5-2.2,1.3-2.9c0,0,4-3.8,4-7.1c0-4.9-4-8.8-8.8-8.8c-4.9,0-8.8,4-8.8,8.8c0,0.5-0.4,1-1,1s-1-0.4-1-1
				c0-5.9,4.8-10.7,10.7-10.7c5.9,0,10.7,4.8,10.7,10.7c0,4.2-4.4,8.3-4.6,8.5c-0.3,0.3-0.7,1.1-0.7,1.5v2.9c0,0.9-0.3,2.1-0.6,2.9
				C29.5,39.1,27.8,42.8,24.8,42.8z M24.8,13.8c5.2,0,9.4,4.2,9.4,9.4c0,3.6-4.2,7.5-4.2,7.5c-0.6,0.6-1.1,1.7-1.1,2.5v2.9
				c0,0.7-0.2,1.8-0.5,2.4c-0.1,0.1-1.4,3.1-3.6,3.1c-0.2,0-0.4,0.2-0.4,0.4s0.2,0.4,0.4,0.4c2.7,0,4.2-3.4,4.3-3.5
				c0.3-0.7,0.6-1.9,0.6-2.7v-2.9c0-0.6,0.4-1.5,0.9-2c0.2-0.2,4.4-4.2,4.4-8.1c0-5.6-4.6-10.2-10.2-10.2c-5.6,0-10.2,4.6-10.2,10.2
				c0,0.2,0.2,0.4,0.4,0.4s0.4-0.2,0.4-0.4C15.4,18,19.6,13.8,24.8,13.8z"/>
		</g>
		<path class="st4" d="M19.3,22.5c0.3-2.9,2.7-5.2,5.6-5.2c3.1,0,5.6,2.6,5.6,5.8c0,0.4,0.3,0.7,0.7,0.7c0.4,0,0.7-0.3,0.7-0.7
			c0-3.9-3.1-7.1-6.9-7.1S18,19.2,18,23.1c0,0.4,0.3,0.7,0.7,0.7c2,0,3.6,1.6,3.6,3.5s-1.6,3.5-3.6,3.5c-0.4,0-0.7,0.3-0.7,0.7
			c0,0.4,0.3,0.7,0.7,0.7c2.7,0,5-2.2,5-4.8C23.6,24.9,21.7,22.8,19.3,22.5z"/>
		<g>
			<path class="st3" d="M37.8,25.5c0,0-0.1,0-0.1,0c-0.4-0.1-0.6-0.4-0.5-0.8c0.7-3.1,0-6.5-2-9.3c-1.8-2.5-4.4-4.2-7.3-4.8
				c-0.4-0.1-0.6-0.4-0.5-0.8c0.1-0.4,0.4-0.6,0.8-0.5c3.2,0.6,6.1,2.5,8.1,5.3c2.2,3.1,3,6.8,2.2,10.3
				C38.4,25.3,38.1,25.5,37.8,25.5z"/>
			<path class="st3" d="M37.8,25.8c-0.1,0-0.1,0-0.2,0c-0.5-0.1-0.8-0.6-0.7-1.1c0.7-3.1,0-6.4-1.9-9c-1.7-2.5-4.3-4.1-7.1-4.7
				c-0.3,0-0.5-0.2-0.6-0.4c-0.1-0.2-0.2-0.5-0.1-0.7c0-0.3,0.2-0.5,0.4-0.6c0.2-0.1,0.5-0.2,0.7-0.1c3.3,0.6,6.2,2.6,8.3,5.4
				c2.2,3.1,3,7,2.2,10.6C38.6,25.5,38.2,25.8,37.8,25.8z M28,9.7c-0.1,0-0.1,0-0.2,0.1c-0.1,0.1-0.1,0.1-0.2,0.2
				c0,0.1,0,0.2,0.1,0.3s0.1,0.1,0.2,0.2c3,0.6,5.6,2.3,7.4,4.9c2,2.8,2.7,6.3,2,9.5c0,0.2,0.1,0.4,0.3,0.4c0.2,0,0.4-0.1,0.4-0.3
				c0.8-3.4,0-7.1-2.1-10.1C34.1,12.1,31.3,10.3,28,9.7C28.1,9.7,28.1,9.7,28,9.7z"/>
		</g>
		<g>
			<path class="st3" d="M42.4,21.2c-0.3,0-0.6-0.3-0.7-0.6c-0.2-2.5-1.2-5-2.8-7.2c-1.3-1.8-3-3.3-4.8-4.4c-0.3-0.2-0.4-0.6-0.2-0.9
				c0.2-0.3,0.6-0.4,0.9-0.2c2,1.2,3.8,2.8,5.2,4.8c1.7,2.4,2.7,5.1,3,7.8C43.1,20.8,42.8,21.1,42.4,21.2
				C42.4,21.2,42.4,21.2,42.4,21.2z"/>
			<path class="st3" d="M42.4,21.5c-0.5,0-0.9-0.4-0.9-0.9c-0.2-2.5-1.2-4.9-2.7-7c-1.3-1.8-2.9-3.3-4.7-4.3
				c-0.2-0.1-0.4-0.3-0.4-0.6c-0.1-0.2,0-0.5,0.1-0.7c0.1-0.2,0.3-0.4,0.6-0.4c0.2-0.1,0.5,0,0.7,0.1c2,1.2,3.9,2.9,5.3,4.9
				c1.7,2.4,2.8,5.2,3.1,8C43.4,20.9,43,21.4,42.4,21.5C42.4,21.5,42.4,21.5,42.4,21.5z M34.5,8C34.5,8,34.4,8.1,34.5,8
				c-0.2,0-0.3,0.1-0.3,0.2c0,0.1-0.1,0.2,0,0.3c0,0.1,0.1,0.2,0.2,0.2c1.9,1.1,3.6,2.6,4.9,4.5c1.6,2.2,2.6,4.8,2.8,7.3
				c0,0.2,0.2,0.3,0.4,0.3c0.2,0,0.4-0.2,0.3-0.4c-0.3-2.7-1.3-5.3-2.9-7.7c-1.4-1.9-3.2-3.6-5.1-4.7C34.6,8.1,34.6,8,34.5,8z"/>
		</g>
		<polygon class="st5" points="23.8,35.2 24.8,37.4 23.8,39.5 22.8,37.4 		"/>
		<path class="st3" d="M25.5,23.1c-0.4,0-0.7-0.2-1-0.5c-0.4-0.5-0.3-1.3,0.3-1.7l0.1-0.1c0.5-0.4,1.3-0.3,1.7,0.3
			c0.4,0.5,0.3,1.3-0.3,1.7l-0.1,0.1C26,23,25.8,23.1,25.5,23.1z"/>
	</g>
</g>
</svg>
