<?xml version="1.0" encoding="utf-8"?>
<!-- Generator: Adobe Illustrator 27.3.1, SVG Export Plug-In . SVG Version: 6.00 Build 0)  -->
<svg version="1.1" id="Layer_1" xmlns="http://www.w3.org/2000/svg" xmlns:xlink="http://www.w3.org/1999/xlink" x="0px" y="0px"
	 width="50px" height="50px" viewBox="0 0 50 50" style="enable-background:new 0 0 50 50;" xml:space="preserve">
<style type="text/css">
	.st0{opacity:0.75;fill:#AFB1B4;enable-background:new    ;}
	.st1{fill:url(#SVGID_1_);stroke:#3D3935;stroke-width:0.1745;stroke-linecap:round;stroke-linejoin:round;stroke-miterlimit:10;}
	
		.st2{fill:url(#SVGID_00000183927307178191797530000000885273108622580159_);stroke:#3D3935;stroke-width:0.1745;stroke-linecap:round;stroke-linejoin:round;stroke-miterlimit:10;}
	
		.st3{fill:url(#SVGID_00000106105516522362529010000007530571160375227821_);stroke:#3D3935;stroke-width:0.1745;stroke-linecap:round;stroke-linejoin:round;stroke-miterlimit:10;}
	
		.st4{fill:url(#SVGID_00000095298184416005122580000006604089416371964054_);stroke:#3D3935;stroke-width:0.1745;stroke-miterlimit:10;}
	.st5{fill:url(#SVGID_00000034799094590908312360000014782550514252866692_);}
	
		.st6{fill:url(#SVGID_00000078010790252850794180000011823461396496887972_);stroke:#3D3935;stroke-width:0.1745;stroke-miterlimit:10;}
	
		.st7{fill:url(#SVGID_00000127044187172069644900000003481108611768447115_);stroke:#3D3935;stroke-width:0.1745;stroke-linecap:round;stroke-linejoin:round;stroke-miterlimit:10;}
	
		.st8{fill:url(#SVGID_00000151524180363898276690000007491033542736410046_);stroke:#3D3935;stroke-width:0.1745;stroke-linecap:round;stroke-linejoin:round;stroke-miterlimit:10;}
	
		.st9{fill:url(#SVGID_00000067944631993635642920000014240618355312286137_);stroke:#3D3935;stroke-width:0.1745;stroke-linecap:round;stroke-linejoin:round;stroke-miterlimit:10;}
	.st10{opacity:0.85;fill:#FFFFFF;enable-background:new    ;}
</style>
<g id="Layer_2_00000044146277312509816610000011501296016144209817_">
</g>
<circle class="st0" cx="25.1" cy="33.6" r="16.4"/>
<g>
	
		<linearGradient id="SVGID_1_" gradientUnits="userSpaceOnUse" x1="31.05" y1="36.8" x2="31.05" y2="56.3255" gradientTransform="matrix(1 0 0 -1 0 52)">
		<stop  offset="0" style="stop-color:#910F14"/>
		<stop  offset="2.004552e-02" style="stop-color:#9A1519"/>
		<stop  offset="9.032345e-02" style="stop-color:#B52827"/>
		<stop  offset="0.1711" style="stop-color:#CB3733"/>
		<stop  offset="0.2653" style="stop-color:#DC433C"/>
		<stop  offset="0.382" style="stop-color:#E74B43"/>
		<stop  offset="0.5457" style="stop-color:#EE5046"/>
		<stop  offset="1" style="stop-color:#F05147"/>
	</linearGradient>
	<polygon class="st1" points="26.3,15.2 29.3,15.2 35.8,-4.3 32.8,-4.3 	"/>
	
		<linearGradient id="SVGID_00000044160841905306282230000012479498514115190695_" gradientUnits="userSpaceOnUse" x1="24.7" y1="36.8" x2="24.7" y2="56.3255" gradientTransform="matrix(1 0 0 -1 0 52)">
		<stop  offset="0" style="stop-color:#910F14"/>
		<stop  offset="2.004552e-02" style="stop-color:#9A1519"/>
		<stop  offset="9.032345e-02" style="stop-color:#B52827"/>
		<stop  offset="0.1711" style="stop-color:#CB3733"/>
		<stop  offset="0.2653" style="stop-color:#DC433C"/>
		<stop  offset="0.382" style="stop-color:#E74B43"/>
		<stop  offset="0.5457" style="stop-color:#EE5046"/>
		<stop  offset="1" style="stop-color:#F05147"/>
	</linearGradient>
	
		<polygon style="fill:url(#SVGID_00000044160841905306282230000012479498514115190695_);stroke:#3D3935;stroke-width:0.1745;stroke-linecap:round;stroke-linejoin:round;stroke-miterlimit:10;" points="
		19.9,15.2 23,15.2 29.5,-4.3 26.4,-4.3 	"/>
	
		<linearGradient id="SVGID_00000052075823750226816790000005866049463540945082_" gradientUnits="userSpaceOnUse" x1="27.9" y1="36.8" x2="27.9" y2="56.3255" gradientTransform="matrix(1 0 0 -1 0 52)">
		<stop  offset="2.032439e-02" style="stop-color:#8D857B"/>
		<stop  offset="3.402793e-02" style="stop-color:#989187"/>
		<stop  offset="7.490852e-02" style="stop-color:#B5AEA5"/>
		<stop  offset="0.1179" style="stop-color:#CBC6BD"/>
		<stop  offset="0.1634" style="stop-color:#DBD6CE"/>
		<stop  offset="0.213" style="stop-color:#E5E0D8"/>
		<stop  offset="0.2747" style="stop-color:#E8E3DB"/>
	</linearGradient>
	
		<polygon style="fill:url(#SVGID_00000052075823750226816790000005866049463540945082_);stroke:#3D3935;stroke-width:0.1745;stroke-linecap:round;stroke-linejoin:round;stroke-miterlimit:10;" points="
		23,15.2 26.3,15.2 32.8,-4.3 29.5,-4.3 	"/>
</g>
<linearGradient id="SVGID_00000145036521844933719450000012817527841522030213_" gradientUnits="userSpaceOnUse" x1="19" y1="35.3" x2="30.3437" y2="35.3" gradientTransform="matrix(1 0 0 -1 0 52)">
	<stop  offset="3.785138e-04" style="stop-color:#E1AD31"/>
	<stop  offset="7.995358e-02" style="stop-color:#EDCB4E"/>
	<stop  offset="0.1796" style="stop-color:#E4B539"/>
	<stop  offset="0.3961" style="stop-color:#EDCB4E"/>
	<stop  offset="0.5471" style="stop-color:#EBC548"/>
	<stop  offset="0.651" style="stop-color:#EDCB4E"/>
	<stop  offset="0.7558" style="stop-color:#E7BC40"/>
	<stop  offset="0.8874" style="stop-color:#E2B034"/>
	<stop  offset="1" style="stop-color:#F3D95B"/>
</linearGradient>
<path style="fill:url(#SVGID_00000145036521844933719450000012817527841522030213_);stroke:#3D3935;stroke-width:0.1745;stroke-miterlimit:10;" d="
	M29.2,18.6h-9.1c-0.6,0-1.1-0.5-1.1-1.1v-1.6c0-0.6,0.5-1.1,1.1-1.1h9.1c0.6,0,1.1,0.5,1.1,1.1v1.6C30.3,18.1,29.8,18.6,29.2,18.6z
	 M20.1,15c-0.4,0-0.8,0.4-0.8,0.8v1.6c0,0.4,0.4,0.8,0.8,0.8h9.1c0.4,0,0.8-0.4,0.8-0.8v-1.6c0-0.4-0.4-0.8-0.8-0.8
	C29.2,15,20.1,15,20.1,15z"/>
<linearGradient id="SVGID_00000051374231758070102940000011234500216646712456_" gradientUnits="userSpaceOnUse" x1="14.0227" y1="30.0773" x2="35.3773" y2="8.7227" gradientTransform="matrix(1 0 0 -1 0 52)">
	<stop  offset="0" style="stop-color:#F3D95B"/>
	<stop  offset="0.1126" style="stop-color:#E2B034"/>
	<stop  offset="0.2442" style="stop-color:#E7BC40"/>
	<stop  offset="0.349" style="stop-color:#EDCB4E"/>
	<stop  offset="0.4529" style="stop-color:#EBC548"/>
	<stop  offset="0.6039" style="stop-color:#EDCB4E"/>
	<stop  offset="0.8204" style="stop-color:#E4B539"/>
	<stop  offset="0.92" style="stop-color:#EDCB4E"/>
	<stop  offset="0.9996" style="stop-color:#E1AD31"/>
</linearGradient>
<circle style="fill:url(#SVGID_00000051374231758070102940000011234500216646712456_);" cx="24.7" cy="32.6" r="15.1"/>
<linearGradient id="SVGID_00000135677531325355414250000016706033660714556567_" gradientUnits="userSpaceOnUse" x1="13.125" y1="30.975" x2="36.2987" y2="7.8012" gradientTransform="matrix(1 0 0 -1 0 52)">
	<stop  offset="3.785138e-04" style="stop-color:#E1AD31"/>
	<stop  offset="7.995358e-02" style="stop-color:#EDCB4E"/>
	<stop  offset="0.1796" style="stop-color:#E4B539"/>
	<stop  offset="0.3961" style="stop-color:#EDCB4E"/>
	<stop  offset="0.5471" style="stop-color:#EBC548"/>
	<stop  offset="0.651" style="stop-color:#EDCB4E"/>
	<stop  offset="0.7558" style="stop-color:#E7BC40"/>
	<stop  offset="0.8874" style="stop-color:#E2B034"/>
	<stop  offset="1" style="stop-color:#F3D95B"/>
</linearGradient>
<path style="fill:url(#SVGID_00000135677531325355414250000016706033660714556567_);stroke:#3D3935;stroke-width:0.1745;stroke-miterlimit:10;" d="
	M24.7,49c-9,0-16.4-7.4-16.4-16.4s7.4-16.4,16.4-16.4s16.4,7.4,16.4,16.4S33.7,49,24.7,49z M24.7,18.8c-7.6,0-13.8,6.2-13.8,13.8
	s6.2,13.8,13.8,13.8s13.8-6.2,13.8-13.8S32.3,18.8,24.7,18.8z"/>
<g>
	
		<linearGradient id="SVGID_00000042018173150236977290000015994655929696291230_" gradientUnits="userSpaceOnUse" x1="18.15" y1="36.8" x2="18.15" y2="56.3255" gradientTransform="matrix(1 0 0 -1 0 52)">
		<stop  offset="0" style="stop-color:#910F14"/>
		<stop  offset="2.004552e-02" style="stop-color:#9A1519"/>
		<stop  offset="9.032345e-02" style="stop-color:#B52827"/>
		<stop  offset="0.1711" style="stop-color:#CB3733"/>
		<stop  offset="0.2653" style="stop-color:#DC433C"/>
		<stop  offset="0.382" style="stop-color:#E74B43"/>
		<stop  offset="0.5457" style="stop-color:#EE5046"/>
		<stop  offset="1" style="stop-color:#F05147"/>
	</linearGradient>
	
		<polygon style="fill:url(#SVGID_00000042018173150236977290000015994655929696291230_);stroke:#3D3935;stroke-width:0.1745;stroke-linecap:round;stroke-linejoin:round;stroke-miterlimit:10;" points="
		22.9,15.2 19.9,15.2 13.4,-4.3 16.4,-4.3 	"/>
	
		<linearGradient id="SVGID_00000046301440584134656720000010390162813550172336_" gradientUnits="userSpaceOnUse" x1="24.5" y1="36.8" x2="24.5" y2="56.3255" gradientTransform="matrix(1 0 0 -1 0 52)">
		<stop  offset="0" style="stop-color:#910F14"/>
		<stop  offset="2.004552e-02" style="stop-color:#9A1519"/>
		<stop  offset="9.032345e-02" style="stop-color:#B52827"/>
		<stop  offset="0.1711" style="stop-color:#CB3733"/>
		<stop  offset="0.2653" style="stop-color:#DC433C"/>
		<stop  offset="0.382" style="stop-color:#E74B43"/>
		<stop  offset="0.5457" style="stop-color:#EE5046"/>
		<stop  offset="1" style="stop-color:#F05147"/>
	</linearGradient>
	
		<polygon style="fill:url(#SVGID_00000046301440584134656720000010390162813550172336_);stroke:#3D3935;stroke-width:0.1745;stroke-linecap:round;stroke-linejoin:round;stroke-miterlimit:10;" points="
		29.3,15.2 26.2,15.2 19.7,-4.3 22.8,-4.3 	"/>
	
		<linearGradient id="SVGID_00000041993089509763640490000009449109500911749520_" gradientUnits="userSpaceOnUse" x1="21.3" y1="36.8" x2="21.3" y2="56.3255" gradientTransform="matrix(1 0 0 -1 0 52)">
		<stop  offset="2.032439e-02" style="stop-color:#8D857B"/>
		<stop  offset="3.402793e-02" style="stop-color:#989187"/>
		<stop  offset="7.490852e-02" style="stop-color:#B5AEA5"/>
		<stop  offset="0.1179" style="stop-color:#CBC6BD"/>
		<stop  offset="0.1634" style="stop-color:#DBD6CE"/>
		<stop  offset="0.213" style="stop-color:#E5E0D8"/>
		<stop  offset="0.2747" style="stop-color:#E8E3DB"/>
	</linearGradient>
	
		<polygon style="fill:url(#SVGID_00000041993089509763640490000009449109500911749520_);stroke:#3D3935;stroke-width:0.1745;stroke-linecap:round;stroke-linejoin:round;stroke-miterlimit:10;" points="
		26.2,15.2 22.9,15.2 16.4,-4.3 19.7,-4.3 	"/>
</g>
<path class="st10" d="M31.1,20.9c-0.2,0.7-0.2,1.5-0.2,1.6l0,0l0,0c0-0.1,0.4-0.8,0.6-1.5v-0.2l0.6,0.2l0,0c0,0.1,0,0.2,0.1,0.3
	s0.2-0.1,0.2-0.2l0,0l0,0c0.1,0,0.2,0,0.3-0.1c0-0.1-0.1-0.2-0.2-0.2l0,0l0,0c0-0.1,0-0.2-0.1-0.3c-0.1,0-0.2,0.1-0.2,0.2l0,0
	l-0.6-0.2l0,0l0.2-0.7l0,0c0.1,0,0.2,0,0.3-0.1c0-0.1-0.1-0.2-0.2-0.2l0,0l0,0c0-0.1,0-0.2-0.1-0.3s-0.2,0.1-0.2,0.2l0,0l0,0
	c-0.1,0-0.2,0-0.3,0.1c0,0.1,0.1,0.2,0.2,0.2l0,0l-0.2,0.7l0,0l-0.6-0.2l0,0c0-0.1,0-0.2-0.1-0.3s-0.2,0.1-0.2,0.2l0,0l0,0
	c-0.1,0-0.2,0-0.3,0.1c0,0.1,0.1,0.2,0.2,0.2l0,0l0,0c0,0.1,0,0.2,0.1,0.3c0.1,0,0.2-0.1,0.2-0.2l0,0l0.6,0.2L31.1,20.9L31.1,20.9z"
	/>
</svg>
