<?xml version="1.0" encoding="utf-8"?>
<!-- Generator: Adobe Illustrator 27.0.0, SVG Export Plug-In . SVG Version: 6.00 Build 0)  -->
<svg version="1.1" id="Layer_1" xmlns="http://www.w3.org/2000/svg" xmlns:xlink="http://www.w3.org/1999/xlink" x="0px" y="0px"
	 width="50px" height="50px" viewBox="0 0 50 50" style="enable-background:new 0 0 50 50;" xml:space="preserve">
<style type="text/css">
	.st0{fill:#FFFFFF;}
	.st1{fill:#F3C849;}
	.st2{fill:#F6F4F1;}
	.st3{fill:#F6D577;}
	.st4{fill:#3B1A53;}
</style>
<g>
	<circle class="st0" cx="25" cy="25" r="25"/>
	<g>
		<g>
			<ellipse class="st1" cx="25" cy="25" rx="23.5" ry="23.6"/>
			<ellipse class="st2" cx="25" cy="25" rx="21.5" ry="21.5"/>
		</g>
	</g>
	<g>
		<g>
			<path class="st3" d="M39.3,26.8C39.3,26.8,39.3,26.8,39.3,26.8c-0.1,0-0.3,0-0.4,0c-0.2,0-0.4,0-0.6,0c-1.1,0-1.9-0.3-2.5-1
				c-1-1.2-0.8-2.8-0.7-3.3l0-0.1l0.8-4.4c0-0.2,0-0.4-0.1-0.4c-0.1-0.1-0.2-0.2-0.4-0.2l-4.7-0.8c-1-0.2-2.3-0.7-2.9-2
				c-0.6-1.3,0-2.6,0.4-3.2c0-0.1,0.2-0.3,0.2-0.4c0.1-0.6,0-1.2-0.4-1.7c-0.3-0.5-0.9-0.8-1.5-0.9c-0.1,0-0.3,0-0.4,0
				c-1.1,0-2,0.8-2.2,1.9c0,0.1,0,0.3,0,0.5c0.1,0.8,0.2,2.1-0.7,3.1c-0.6,0.7-1.4,1-2.5,1c-0.3,0-0.7,0-1-0.1l-4.6-0.8
				c-0.3-0.1-0.6,0.2-0.7,0.5l-0.7,4.1c0.5-0.1,0.9-0.1,1.3,0c1.7,0.3,3.1,1.2,4.1,2.6c1,1.4,1.4,3.1,1.1,4.7
				c-0.5,3.1-3.2,5.3-6.3,5.3c-0.4,0-0.7,0-1.1-0.1c-0.4-0.1-0.8-0.2-1.2-0.5l-0.7,4.2c0,0.2,0,0.4,0.1,0.4c0.1,0.1,0.2,0.2,0.4,0.2
				l3.6,0.6c0-0.3-0.1-0.7,0-1.2c0.5-3.1,3.2-5.3,6.3-5.3c0.4,0,0.7,0,1.1,0.1c3.5,0.6,5.8,3.9,5.2,7.3c-0.1,0.4-0.2,0.8-0.4,1.1
				l4.5,0.8c0.3,0.1,0.6-0.2,0.7-0.5l0.8-4.4c0.2-1,0.5-1.7,0.8-2.2c0.6-0.8,1.4-1.2,2.3-1.2c0.9,0,1.6,0.4,2.1,0.7
				c0.1,0,0.2,0.1,0.3,0.2c0.1,0,0.2,0,0.3,0c1.1,0,2-0.8,2.2-1.9c0.1-0.6,0-1.2-0.4-1.7C40.4,27.2,39.9,26.9,39.3,26.8z"/>
		</g>
		<path class="st4" d="M43.3,27c-0.5-0.7-1.1-1.2-1.9-1.5c-0.5-0.4-1.1-0.6-1.7-0.7c-0.1,0-0.2,0-0.4,0c-0.3,0-0.7,0-1,0
			c-0.1,0-0.2,0-0.3,0c-0.2-0.3-0.2-0.8-0.1-1.4l0.8-4.4c0.2-1.3-0.5-2.4-1.5-3c-0.6-0.4-1-0.5-1.4-0.5l-4.6-0.8
			c-0.2,0-0.4-0.1-0.5-0.2c-0.1-0.1-0.1-0.1-0.2-0.2c-0.2-0.4,0.1-0.8,0.3-1.3c0.2-0.3,0.3-0.7,0.4-1c0.2-1.2-0.1-2.3-0.7-3.3
			C30,7.9,29.5,7.5,28.7,7c-0.7-0.5-1.2-0.5-1.9-0.6c-0.2,0-0.5-0.1-0.7-0.1c-2.1,0-3.9,1.5-4.2,3.6c-0.2,1.1,0.7,2.8-1.1,2.8
			c-0.2,0-0.4,0-0.7-0.1l-4.6-0.8c-0.1,0-0.3,0-0.4,0c-1.2,0-2.4,0.9-2.6,2.2l-0.8,4.9c-0.3,1.5-0.1,1.5,0.4,2.1
			c0.4,0.3,0.7,0.5,1,0.5c0.3,0,0.7-0.1,1.1-0.2c0.4-0.1,0.8-0.2,1.1-0.2c0.1,0,0.1,0,0.2,0c0.6,0.1,1.2,0.4,1.7,0.7
			c0.9,1,1.3,2.3,1.1,3.7C17.8,27.5,16,29,13.9,29c-0.2,0-0.5,0-0.7-0.1c0,0,0,0,0,0c-0.1-0.1-0.3-0.2-0.4-0.3
			c-0.4-0.3-0.6-0.6-1.1-0.9c-0.3-0.2-0.6-0.3-0.8-0.3c-0.4,0-0.8,0.5-1.1,2l-0.8,4.9c-0.2,1.1,0.5,2.1,1.2,2.9
			c0.3,0.3,1,0.7,1.6,0.8l4.3,0.7c1,0.1,1.6,0.1,1.9-0.3c0.3-0.4,0.2-1,0.1-1.6c-0.1-0.4-0.2-0.8-0.1-1.2c0.3-2,2.1-3.5,4.1-3.5
			c0.2,0,0.5,0,0.7,0.1c0.6,0.1,1.2,0.4,1.7,0.7c0.9,1,1.3,2.3,1.1,3.7c-0.2,1.1-1.6,2.4-0.8,3.1c0,0,1.2,0.7,2.1,0.9l5.2,0.9
			c0.2,0,0.3,0,0.5,0c1.3,0,2.5-0.9,2.7-2.3l0.8-4.4c0.3-1.6,0.7-1.7,1.1-1.7c0.3,0,0.7,0.2,1,0.4c0.3,0.2,0.6,0.3,0.9,0.4
			c0.2,0,0.5,0.1,0.8,0.1c2.2,0,4-1.5,4.3-3.7C44.2,29.1,44,27.9,43.3,27z M24.3,31.3c-0.6-0.4-1.3-0.7-2.1-0.8
			c-0.3-0.1-0.6-0.1-0.9-0.1c-2.7,0-4.9,1.9-5.4,4.6c-0.1,0.6,0,1.1,0.1,1.6c0,0.1,0.1,0.3,0.1,0.4c-0.2,0-0.4,0-0.6-0.1l-4.2-0.7
			c0,0,0,0,0,0c-0.4-0.1-0.7-0.3-0.9-0.6c-0.2-0.3-0.3-0.7-0.2-1.1l0.8-4.9c0.1-0.3,0.1-0.5,0.2-0.7c0,0,0.1,0.1,0.1,0.1
			c0.5,0.4,1,0.9,1.8,1.1c0.3,0.1,0.6,0.1,0.9,0.1c2.7,0,4.9-1.9,5.4-4.6c0.2-1.4-0.1-2.9-0.9-4.1c-0.4-0.6-0.9-1-1.4-1.4
			c-0.6-0.4-1.3-0.7-2.1-0.8c-0.1,0-0.3,0-0.4,0c-0.3,0-0.6,0-0.8,0.1c-0.2,0-0.4,0.1-0.6,0.2c-0.1,0-0.2,0.1-0.4,0.1
			c0-0.1,0-0.3,0.1-0.5l0,0l0,0l0.8-4.9c0.1-0.7,0.7-1.2,1.4-1.2c0.1,0,0.2,0,0.2,0l4.6,0.8c0.3,0.1,0.6,0.1,0.9,0.1
			c0.8,0,1.4-0.2,1.8-0.7c0.7-0.7,0.6-1.7,0.5-2.4c0-0.3-0.1-0.6,0-0.7c0.3-1.5,1.6-2.6,3.1-2.6c0.2,0,0.4,0,0.5,0
			c0.7,0.1,1.4,0.5,1.8,1c0.1,0.1,0.1,0.2,0.2,0.2c0.5,0.7,0.7,1.5,0.5,2.3c0,0.1-0.2,0.4-0.3,0.6c-0.3,0.6-0.8,1.5-0.4,2.5
			c0.2,0.4,0.5,0.7,0.9,1c0.5,0.3,1,0.4,1.4,0.5l0,0l0,0l4.6,0.8c0.4,0.1,0.8,0.3,1,0.7c0.2,0.3,0.2,0.6,0.2,1L36,22.6l0,0l0,0
			c-0.1,0.7-0.2,1.8,0.5,2.6c0.2,0.2,0.4,0.3,0.6,0.5c0.5,0.3,1.1,0.3,1.3,0.3c0.2,0,0.4,0,0.6,0c0.1,0,0.3,0,0.4,0
			c0.1,0,0.1,0,0.2,0c0.7,0.1,1.4,0.5,1.8,1c0.1,0.1,0.1,0.2,0.2,0.2c0.5,0.7,0.7,1.5,0.5,2.3c-0.3,1.5-1.6,2.6-3.1,2.6
			c-0.2,0-0.4,0-0.5,0c-0.1,0-0.3-0.2-0.5-0.3c-0.4-0.2-1-0.6-1.6-0.6c-1.8,0-2.2,2.1-2.3,2.8l0,0l0,0l-0.8,4.4
			c-0.1,0.7-0.7,1.2-1.4,1.2c-0.1,0-0.2,0-0.2,0l-4.7-0.8l-0.5-0.1l0,0l0,0c-0.2,0-0.4-0.1-0.5-0.1c0.1-0.1,0.2-0.3,0.2-0.4
			c0.3-0.4,0.6-1,0.7-1.5C27,34.6,26,32.4,24.3,31.3z"/>
	</g>
</g>
</svg>
