<?xml version="1.0" encoding="utf-8"?>
<!-- Generator: Adobe Illustrator 27.1.1, SVG Export Plug-In . SVG Version: 6.00 Build 0)  -->
<svg version="1.1" id="Layer_1" xmlns="http://www.w3.org/2000/svg" xmlns:xlink="http://www.w3.org/1999/xlink" x="0px" y="0px"
	 width="50px" height="50px" viewBox="0 0 50 50" style="enable-background:new 0 0 50 50;" xml:space="preserve">
<style type="text/css">
	.st0{fill:#FFFFFF;}
	.st1{fill:#F3C849;}
	.st2{fill:#F6F4F1;}
	.st3{fill:#3B1A53;}
	.st4{fill:#F1BA1B;}
</style>
<g id="Layer_2_00000044146277312509816610000011501296016144209817_">
</g>
<g>
	<circle class="st0" cx="25" cy="25.1" r="25"/>
	<g>
		<g>
			<ellipse class="st1" cx="25" cy="25.1" rx="23.5" ry="23.6"/>
			<ellipse class="st2" cx="25" cy="25.1" rx="21.5" ry="21.5"/>
		</g>
	</g>
	<g>
		<path class="st3" d="M25,34.8c-2.9,0-5.3,2.4-5.3,5.3s2.4,5.3,5.3,5.3c2.9,0,5.3-2.4,5.3-5.3S27.9,34.8,25,34.8z M25,43.4
			c-1.8,0-3.3-1.5-3.3-3.3s1.5-3.3,3.3-3.3c1.8,0,3.3,1.5,3.3,3.3S26.8,43.4,25,43.4z"/>
		<path class="st4" d="M25,37.8c-1.3,0-2.3,1-2.3,2.3s1,2.3,2.3,2.3c1.3,0,2.3-1,2.3-2.3S26.3,37.8,25,37.8z"/>
		<path class="st3" d="M25,4.7c-2.9,0-5.3,2.4-5.3,5.3v18.7c0,2.9,2.4,5.3,5.3,5.3c2.9,0,5.3-2.4,5.3-5.3V10
			C30.3,7.1,27.9,4.7,25,4.7z M28.3,28.7c0,1.8-1.5,3.3-3.3,3.3c-1.8,0-3.3-1.5-3.3-3.3V10c0-1.8,1.5-3.3,3.3-3.3
			c1.8,0,3.3,1.5,3.3,3.3V28.7z"/>
		<path class="st4" d="M25,7.9c-1.3,0-2.3,1-2.3,2.3v18.5c0,1.3,1,2.3,2.3,2.3c1.3,0,2.3-1,2.3-2.3V10.2C27.3,8.9,26.3,7.9,25,7.9z"
			/>
	</g>
</g>
</svg>
