<?xml version="1.0" encoding="utf-8"?>
<!-- Generator: Adobe Illustrator 26.5.0, SVG Export Plug-In . SVG Version: 6.00 Build 0)  -->
<svg version="1.1" id="Layer_1" xmlns="http://www.w3.org/2000/svg" xmlns:xlink="http://www.w3.org/1999/xlink" x="0px" y="0px"
	 width="50px" height="50px" viewBox="0 0 50 50" style="enable-background:new 0 0 50 50;" xml:space="preserve">
<style type="text/css">
	.st0{fill:#FFFFFF;}
	.st1{fill:#8D857B;}
	.st2{clip-path:url(#SVGID_00000134963099514646005020000009826588516114169244_);}
	.st3{clip-path:url(#SVGID_00000103239790101321917950000009835539340926903973_);fill:#3B1A53;}
</style>
<circle class="st0" cx="25" cy="25" r="24.6"/>
<g>
	<path class="st1" d="M47.3,13.7C41.1,1.4,26.1-3.5,13.8,2.7c-6,3-10.4,8.2-12.5,14.5c-2.1,6.3-1.6,13.1,1.4,19.1
		c3,6,8.2,10.4,14.5,12.5c2.6,0.8,5.2,1.3,7.8,1.3c3.9,0,7.7-0.9,11.2-2.7C48.6,41.1,53.5,26,47.3,13.7z M35.9,46.7
		c-3.5,1.8-7.2,2.6-10.9,2.6c-8.9,0-17.5-4.9-21.7-13.3c-2.9-5.8-3.4-12.4-1.4-18.5S8.3,6.2,14.1,3.3c3.5-1.8,7.2-2.6,10.9-2.6
		c8.9,0,17.5,4.9,21.7,13.3C52.7,26,47.9,40.6,35.9,46.7z"/>
	<path class="st1" d="M25,1.5C12.1,1.5,1.6,12.1,1.6,25c0,12.9,10.5,23.4,23.4,23.4S48.5,37.9,48.5,25C48.5,12.1,37.9,1.5,25,1.5z
		 M25,47.8C12.4,47.8,2.2,37.6,2.2,25S12.4,2.2,25,2.2S47.8,12.4,47.8,25S37.6,47.8,25,47.8z"/>
</g>
<g>
	<defs>
		<circle id="SVGID_1_" cx="25" cy="25" r="23.1"/>
	</defs>
	<defs>
		<circle id="SVGID_00000102506424246874482480000005154381462668438702_" cx="25" cy="25" r="22.8"/>
	</defs>
	<clipPath id="SVGID_00000014602777591542001430000015981427882430665893_">
		<use xlink:href="#SVGID_1_"  style="overflow:visible;"/>
	</clipPath>
	
		<clipPath id="SVGID_00000062194016646666727320000008306663123570320307_" style="clip-path:url(#SVGID_00000014602777591542001430000015981427882430665893_);">
		<use xlink:href="#SVGID_00000102506424246874482480000005154381462668438702_"  style="overflow:visible;"/>
	</clipPath>
	<path style="clip-path:url(#SVGID_00000062194016646666727320000008306663123570320307_);fill:#3B1A53;" d="M72.6,1.2
		c0-0.1,0-0.2,0-0.3c0-0.1-0.1-0.3-0.1-0.4c-0.1-0.2-0.1-0.4-0.2-0.6c0,0,0-0.1-0.1-0.1l-2.7,1.3c0,0,0,0.1,0.1,0.1
		c0,0.1,0,0.1,0.1,0.2c0,0.1,0,0.1,0,0.2c0,0,0,0.1,0,0.1c0,0.1,0,0.1,0,0.2c0,0,0,0.1,0,0.1c0,0.1-0.1,0.2-0.1,0.3
		c0,0,0,0.1-0.1,0.1c0,0.1-0.1,0.1-0.1,0.2c0,0.1-0.1,0.1-0.1,0.2C69.1,2.9,69.1,3,69,3c0,0,0,0,0,0c-0.1,0.1-0.1,0.2-0.2,0.3
		c0,0.1-0.1,0.1-0.1,0.2c0,0.1-0.1,0.1-0.2,0.2C68.3,3.8,68.2,4,68,4.1c0,0-0.1,0.1-0.1,0.1c-0.1,0.1-0.1,0.1-0.2,0.2
		c-0.1,0.1-0.3,0.2-0.4,0.4c-0.1,0.1-0.1,0.1-0.2,0.2c-0.3,0.2-0.5,0.5-0.8,0.7c-0.2,0.2-0.5,0.4-0.7,0.5c-0.1,0.1-0.2,0.1-0.2,0.2
		c-0.1,0.1-0.2,0.1-0.3,0.2c-0.2,0.1-0.4,0.3-0.6,0.4c-0.1,0-0.1,0.1-0.2,0.1c-0.1,0-0.1,0.1-0.2,0.1c-0.1,0.1-0.2,0.1-0.3,0.2
		s-0.2,0.1-0.3,0.2c-0.2,0.1-0.4,0.3-0.7,0.4c-0.1,0.1-0.2,0.2-0.3,0.2c-0.1,0.1-0.2,0.2-0.4,0.2c-0.2,0.2-0.5,0.3-0.7,0.5
		c-0.1,0.1-0.2,0.2-0.4,0.2c-0.1,0.1-0.3,0.2-0.4,0.2c-0.1,0.1-0.3,0.2-0.4,0.2c-0.1,0.1-0.3,0.2-0.4,0.2c-0.4,0.2-0.8,0.5-1.2,0.7
		c-0.2,0.1-0.4,0.2-0.6,0.4c-0.4,0.2-0.8,0.5-1.3,0.7c-0.2,0.1-0.4,0.2-0.7,0.4c-0.3,0.2-0.6,0.3-0.9,0.5c-0.2,0.1-0.4,0.2-0.6,0.3
		c-0.4,0.2-0.8,0.4-1.2,0.6c-0.2,0.1-0.4,0.2-0.6,0.3c-0.6,0.3-1.1,0.5-1.6,0.8c-0.5,0.3-1.1,0.5-1.6,0.7c-0.2,0.1-0.5,0.2-0.7,0.3
		c-0.2,0.1-0.5,0.2-0.7,0.3c-0.1,0.1-0.3,0.1-0.4,0.2c-0.3,0.1-0.6,0.2-0.9,0.4c-0.1,0.1-0.3,0.1-0.4,0.2c-0.3,0.1-0.6,0.2-0.9,0.3
		c-0.3,0.1-0.6,0.2-0.8,0.3c-0.3,0.1-0.6,0.2-0.8,0.3c-0.1,0-0.1,0.1-0.2,0.1c-0.2,0.1-0.4,0.1-0.6,0.2c-0.1,0.1-0.3,0.1-0.4,0.2
		c-0.2,0.1-0.5,0.2-0.7,0.3c-0.1,0-0.3,0.1-0.4,0.1c-0.2,0.1-0.5,0.2-0.7,0.2c-0.1,0-0.2,0.1-0.4,0.1c-0.1,0-0.2,0.1-0.4,0.1
		c-0.2,0.1-0.3,0.1-0.5,0.1c-0.1,0-0.1,0-0.2,0c-0.4,0.1-0.8,0.2-1.1,0.3c-0.4,0.1-0.7,0.2-1.1,0.2c-0.1,0-0.2,0-0.3,0.1
		c-0.1,0-0.3,0.1-0.4,0.1c-0.1,0-0.1,0-0.2,0c-0.4-0.9-0.9-1.8-1.6-2.6c-0.2-0.2-0.3-0.4-0.5-0.6c0.2-0.2,0.5-0.4,0.7-0.7
		c0.1-0.1,0.2-0.2,0.3-0.2c0.3-0.2,0.5-0.4,0.8-0.7c0.3-0.2,0.6-0.5,0.9-0.7c0.2-0.1,0.4-0.3,0.6-0.4c0.2-0.1,0.4-0.3,0.6-0.4
		c1.1-0.8,2.3-1.6,3.7-2.4c0.2-0.1,0.5-0.3,0.7-0.4c0.1-0.1,0.2-0.1,0.3-0.2c0.2-0.1,0.5-0.3,0.7-0.4c0.2-0.1,0.5-0.3,0.7-0.4
		c0.2-0.1,0.5-0.3,0.7-0.4c0.4-0.2,0.8-0.4,1.1-0.6c0.3-0.1,0.5-0.3,0.8-0.4c0.5-0.3,1.1-0.5,1.6-0.8c0.3-0.1,0.5-0.3,0.8-0.4
		c1.4-0.7,2.7-1.3,4.1-1.9C54,4.8,54.5,4.6,55,4.4c1.3-0.5,2.5-1,3.7-1.4c0.2-0.1,0.5-0.2,0.7-0.2c0.7-0.2,1.4-0.5,2-0.7
		c0.1,0,0.1,0,0.2-0.1c0.3-0.1,0.6-0.2,0.9-0.3c0.1,0,0.2-0.1,0.3-0.1c0.1,0,0.2-0.1,0.4-0.1c0,0,0.1,0,0.1,0c0.1,0,0.2,0,0.2-0.1
		c0,0,0.1,0,0.1,0c0.1,0,0.1,0,0.2-0.1c0,0,0.1,0,0.1,0c0.1,0,0.1,0,0.2,0c0,0,0.1,0,0.1,0c0.1,0,0.1,0,0.2,0c0,0,0.1,0,0.1,0
		c0.1,0,0.1,0,0.2,0c0,0,0.1,0,0.1,0c0.1,0,0.1,0,0.2,0c0,0,0.1,0,0.1,0c0.1,0,0.1,0,0.2,0c0,0,0.1,0,0.1,0c0.1,0,0.1,0,0.2,0
		c0,0,0.1,0,0.1,0c0.1,0,0.1,0,0.2,0c0,0,0.1,0,0.1,0c0,0,0.1,0,0.1,0c0,0,0.1,0,0.1,0c0,0,0.1,0,0.1,0c0,0,0.1,0,0.1,0
		c0,0,0.1,0,0.1,0c0,0,0.1,0,0.1,0c0,0,0.1,0,0.1,0c0,0,0.1,0,0.1,0c0,0,0.1,0,0.1,0c0,0,0.1,0,0.1,0c0,0,0,0,0.1,0c0,0,0.1,0,0.1,0
		c0.1,0,0.1,0,0.2,0c0.1,0,0.1,0,0.2,0c0.1,0,0.1,0,0.2,0c0.1,0,0.1,0,0.2,0c0.1,0,0.2,0,0.3,0.1c0,0,0.1,0,0.1,0s0.1,0,0.1,0
		C69,1,69,1,69,1c0.1,0,0.1,0.1,0.2,0.2c0,0,0.1,0.1,0.1,0.1L72,0c0-0.1-0.1-0.1-0.1-0.2c-0.1-0.2-0.2-0.3-0.3-0.5
		C71.3-1,71-1.2,70.7-1.5c-0.2-0.1-0.4-0.2-0.5-0.3S69.7-1.9,69.5-2c-0.1,0-0.2,0-0.2-0.1c0,0-0.1,0-0.1,0c-0.1,0-0.1,0-0.2,0
		c0,0-0.1,0-0.1,0c-0.1,0-0.1,0-0.2,0c0,0-0.1,0-0.1,0c-0.1,0-0.1,0-0.2,0c0,0-0.1,0-0.1,0c-0.1,0-0.1,0-0.2,0c0,0-0.1,0-0.1,0
		c-0.1,0-0.2,0-0.3,0c0,0,0,0-0.1,0c-0.1,0-0.1,0-0.2,0c0,0,0,0,0,0c-0.1,0-0.2,0-0.4,0c-0.1,0-0.2,0-0.3,0c-0.2,0-0.4,0-0.5,0
		c-0.3,0-0.6,0.1-0.9,0.1c-0.2,0-0.4,0.1-0.6,0.1c-0.3,0.1-0.7,0.1-1,0.2c-0.6,0.1-1.2,0.3-1.8,0.5c-1.5,0.4-3.1,0.9-4.8,1.6
		c-0.3,0.1-0.6,0.2-0.9,0.3c-0.1,0.1-0.3,0.1-0.4,0.2C55.6,0.9,55.3,1,55,1.1c-0.4,0.2-0.9,0.4-1.4,0.6c-0.3,0.1-0.6,0.3-0.9,0.4
		c-0.5,0.2-0.9,0.4-1.4,0.6c-1.1,0.5-2.2,1-3.3,1.5c-0.9,0.5-1.9,0.9-2.8,1.4C45,5.8,44.7,6,44.4,6.1c-1.5,0.8-2.9,1.6-4.2,2.4
		c-0.3,0.2-0.5,0.3-0.8,0.5c-0.3,0.2-0.5,0.3-0.8,0.5c-0.4,0.2-0.7,0.5-1.1,0.7c-0.1,0.1-0.2,0.2-0.4,0.2s-0.2,0.2-0.3,0.2
		c-0.5,0.3-0.9,0.6-1.3,0.9c-0.1,0.1-0.2,0.2-0.3,0.2c-0.1,0.1-0.2,0.2-0.3,0.2c-0.3,0.2-0.6,0.5-0.9,0.7c-0.2,0.2-0.4,0.3-0.5,0.5
		c-0.5,0.4-1,0.9-1.4,1.3c0,0,0,0,0,0c-1.3-0.9-2.8-1.5-4.4-1.8c-6.5-1.2-12.8,3.1-14,9.6c-0.3,1.7-0.3,3.4,0.1,5
		c-0.1,0-0.2,0.1-0.3,0.1c-0.2,0.1-0.4,0.1-0.6,0.2c-0.7,0.2-1.4,0.5-2.1,0.8c-1.3,0.5-2.7,1.2-4.2,1.9c-0.3,0.1-0.5,0.3-0.8,0.4
		c-0.7,0.4-1.4,0.7-2.1,1.1c-0.6,0.3-1.1,0.6-1.7,1c-0.1,0.1-0.3,0.2-0.4,0.3c-0.7,0.4-1.3,0.8-2,1.2s-1.3,0.8-2,1.3
		c-0.3,0.2-0.6,0.4-0.9,0.6C-4,36.6-4.6,37-5.2,37.4C-5.5,37.6-5.7,37.8-6,38c-0.1,0.1-0.3,0.2-0.4,0.3c-0.3,0.2-0.5,0.4-0.8,0.6
		c-0.1,0.1-0.3,0.2-0.4,0.3c-0.3,0.2-0.5,0.4-0.8,0.6c-0.1,0.1-0.3,0.2-0.4,0.3c-0.4,0.3-0.8,0.6-1.1,0.9c-0.2,0.2-0.5,0.4-0.7,0.6
		c-0.2,0.2-0.5,0.4-0.7,0.6c-0.2,0.2-0.5,0.4-0.7,0.6s-0.4,0.4-0.7,0.6c-0.6,0.6-1.2,1.1-1.8,1.6c-0.2,0.2-0.4,0.4-0.6,0.5
		c-0.4,0.4-0.7,0.7-1,1c-0.2,0.3-0.5,0.5-0.7,0.7c-0.3,0.4-0.6,0.8-0.9,1.2c-0.1,0.1-0.2,0.3-0.3,0.4c-0.1,0.1-0.1,0.2-0.2,0.3
		c-0.2,0.3-0.3,0.5-0.4,0.8c0,0.1-0.1,0.1-0.1,0.2c-0.1,0.2-0.2,0.4-0.2,0.6c0,0.1-0.1,0.2-0.1,0.3c0,0.1-0.1,0.3-0.1,0.4
		c0,0.1,0,0.3,0,0.4c0,0.1,0,0.1,0,0.2c0,0.5,0.1,0.9,0.2,1.4c0,0.1,0.1,0.2,0.1,0.4c0.1,0.1,0.1,0.2,0.2,0.3l-0.1,0.1c0,0,0,0,0,0
		c0,0,0,0,0,0.1c0.1,0.2,0.2,0.3,0.4,0.5c0.1,0.1,0.2,0.2,0.3,0.3c0.1,0.1,0.2,0.2,0.3,0.3c0.3,0.2,0.6,0.4,0.9,0.5
		c0.2,0.1,0.4,0.1,0.6,0.2c0.1,0,0.1,0,0.2,0c0.1,0,0.2,0,0.2,0c0,0,0.1,0,0.1,0c0.1,0,0.1,0,0.2,0c0,0,0.1,0,0.1,0
		c0.1,0,0.1,0,0.2,0c0,0,0.1,0,0.1,0c0,0,0.1,0,0.1,0c0,0,0,0,0.1,0c0.1,0,0.1,0,0.2,0c0,0,0.1,0,0.1,0c0.1,0,0.1,0,0.2,0
		c0,0,0.1,0,0.1,0c0.1,0,0.1,0,0.2,0c0,0,0.1,0,0.1,0c0.1,0,0.2,0,0.3,0c0.3-0.1,0.7-0.1,1.1-0.2c0.3-0.1,0.6-0.1,0.9-0.2
		c0.2-0.1,0.4-0.1,0.6-0.2c0.2-0.1,0.4-0.1,0.7-0.2c0.6-0.2,1.1-0.4,1.8-0.7c0.5-0.2,1-0.4,1.5-0.6c0.2-0.1,0.5-0.2,0.8-0.3
		c1.4-0.7,2.9-1.4,4.4-2.3c0.3-0.2,0.6-0.3,0.8-0.5c0.4-0.2,0.9-0.5,1.3-0.7c0.7-0.4,1.4-0.9,2.2-1.3c0.3-0.2,0.6-0.4,0.9-0.5
		c0.4-0.3,0.9-0.6,1.3-0.8c2.4-1.5,4.6-3.1,6.6-4.7c0.4-0.3,0.7-0.6,1.1-0.9c0.6-0.5,1.2-1,1.7-1.4c0.6-0.5,1.1-0.9,1.6-1.4
		c0.2-0.2,0.4-0.4,0.6-0.5c0.1-0.1,0.2-0.2,0.3-0.3c1-0.9,1.8-1.8,2.4-2.6c0.1-0.1,0.1-0.2,0.2-0.3c0,0,0.1-0.1,0.1-0.1
		c1.2,0.7,2.4,1.2,3.8,1.4c0.7,0.1,1.5,0.2,2.2,0.2c2.4,0,4.8-0.7,6.8-2.1c2.6-1.8,4.4-4.6,5-7.7c0.3-1.4,0.3-2.9,0-4.2
		c0.1,0,0.1,0,0.2,0c0.1,0,0.1,0,0.2,0c0.2,0,0.5-0.1,0.8-0.2c0.1,0,0.3-0.1,0.5-0.1c0.5-0.1,0.9-0.2,1.4-0.4
		c0.7-0.2,1.5-0.4,2.3-0.7c0.3-0.1,0.5-0.2,0.8-0.3c0.4-0.1,0.8-0.3,1.3-0.4c0.3-0.1,0.6-0.2,0.9-0.3c0.6-0.2,1.2-0.4,1.8-0.7
		c0.3-0.1,0.6-0.2,0.9-0.4c0.2-0.1,0.3-0.1,0.5-0.2c0.3-0.1,0.6-0.3,0.9-0.4c0.5-0.2,0.9-0.4,1.4-0.6c1.1-0.5,2.2-1,3.3-1.5
		c0.5-0.2,0.9-0.5,1.4-0.7c0.6-0.3,1.2-0.6,1.8-0.9c0.3-0.2,0.6-0.3,0.9-0.5c0.1-0.1,0.3-0.2,0.4-0.2c0.3-0.2,0.6-0.3,0.9-0.5
		c1.9-1,3.6-2.1,5.1-3.1c0.4-0.2,0.7-0.5,1-0.7c0.1-0.1,0.2-0.2,0.3-0.2c0.3-0.2,0.6-0.5,1-0.7c0.2-0.2,0.4-0.3,0.6-0.5
		c0.7-0.5,1.3-1.1,1.9-1.6c0.5-0.5,1-1,1.4-1.4c0.1-0.2,0.3-0.3,0.4-0.5c0.1-0.2,0.2-0.3,0.3-0.5c0.2-0.3,0.4-0.7,0.5-1
		c0.1-0.2,0.1-0.4,0.2-0.6c0-0.1,0.1-0.3,0.1-0.4c0-0.1,0-0.1,0-0.2C72.6,1.7,72.6,1.5,72.6,1.2z M34.8,22.8
		C34.8,22.8,34.8,22.8,34.8,22.8c0.1,0,0.3,0,0.4,0c0.2,0,0.3,0,0.5,0c0,0,0,0,0,0c0.2,1,0.2,2,0.1,3l-3.6-0.7
		c0.1-0.9,0.2-1.8,0.2-2.6c-0.1,0-0.2-0.1-0.2-0.1c0.1,0,0.2,0.1,0.2,0.1c0.1,0,0.2,0.1,0.4,0.1c0,0,0,0,0,0c0.1,0,0.2,0,0.2,0.1
		c0,0,0.1,0,0.1,0c0.1,0,0.1,0,0.2,0c0,0,0.1,0,0.1,0c0.1,0,0.1,0,0.2,0c0,0,0.1,0,0.1,0c0.1,0,0.1,0,0.2,0c0,0,0.1,0,0.1,0
		c0.1,0,0.1,0,0.2,0c0,0,0.1,0,0.1,0c0.1,0,0.2,0,0.3,0c0,0,0,0,0.1,0C34.6,22.8,34.7,22.8,34.8,22.8z M30.7,24.8L26.3,24l0.7-3.6
		c1,0.2,2.1,0.2,3,0.2c0.1,0,0.2,0,0.3,0c0.1,0.3,0.3,0.5,0.5,0.7C30.9,22.4,30.8,23.6,30.7,24.8z M29,30.3
		c-1.1-0.5-2.3-0.9-3.6-1.2l0.7-3.6l4.3,0.8C30,27.8,29.6,29.1,29,30.3z M18.2,30.5c0,0.1,0,0.1,0,0.2c0,0,0,0.1,0,0.1
		c0,0,0,0.1,0,0.1c0,0,0,0.1,0,0.1c0,0,0,0.1,0,0.1c0,0.1,0,0.1,0,0.2c0,0.1,0,0.1-0.1,0.2c-0.1,0.1-0.1,0.3-0.2,0.4
		c-0.4-0.4-0.7-0.8-1-1.2C17.3,30.6,17.7,30.5,18.2,30.5C18.2,30.4,18.2,30.4,18.2,30.5z M13.5,36.8c-0.1,0.1-0.2,0.2-0.3,0.2
		c-0.1,0.1-0.2,0.2-0.3,0.2c-0.1,0.1-0.2,0.2-0.3,0.3c0,0,0,0-0.1,0.1c-0.2,0.2-0.4,0.3-0.6,0.5c-0.1,0.1-0.2,0.1-0.3,0.2
		c-0.1,0.1-0.2,0.2-0.3,0.3c-0.1,0.1-0.2,0.2-0.3,0.3c-0.1,0.1-0.2,0.2-0.3,0.3c-0.1,0.1-0.2,0.2-0.3,0.3c-0.2,0.2-0.5,0.4-0.7,0.6
		c-0.1,0.1-0.2,0.2-0.4,0.3c-0.1,0.1-0.2,0.2-0.4,0.3c-0.1,0.1-0.3,0.2-0.4,0.3c-0.3,0.2-0.5,0.4-0.8,0.6c-0.1,0.1-0.3,0.2-0.4,0.3
		c-0.1,0.1-0.2,0.1-0.3,0.2c-0.2,0.1-0.3,0.2-0.5,0.3c-0.2,0.1-0.3,0.2-0.5,0.3c-0.5,0.3-1,0.7-1.5,1s-1,0.7-1.5,1
		c-0.4,0.2-0.7,0.5-1.1,0.7c-0.4,0.2-0.7,0.5-1.1,0.7c-0.3,0.2-0.6,0.4-0.9,0.5c-0.6,0.4-1.3,0.8-1.9,1.1c-0.2,0.1-0.4,0.2-0.6,0.4
		c-0.2,0.1-0.4,0.2-0.6,0.3c-0.2,0.1-0.4,0.2-0.6,0.3c-0.3,0.1-0.5,0.3-0.8,0.4c-0.3,0.1-0.5,0.3-0.8,0.4c-0.3,0.1-0.5,0.3-0.8,0.4
		c-0.3,0.1-0.5,0.2-0.7,0.4c-0.2,0.1-0.5,0.2-0.7,0.3c-0.2,0.1-0.5,0.2-0.7,0.3C-8.3,51-8.5,51-8.6,51.1c-0.1,0.1-0.2,0.1-0.3,0.1
		c-0.1,0-0.2,0.1-0.3,0.1c-0.1,0-0.2,0.1-0.3,0.1c-0.4,0.2-0.7,0.3-1.1,0.4c-0.4,0.1-0.7,0.3-1,0.4c-0.1,0-0.2,0.1-0.3,0.1
		c-0.3,0.1-0.5,0.2-0.7,0.2c0,0-0.1,0-0.1,0c-0.2,0.1-0.4,0.1-0.7,0.2c-0.2,0-0.3,0.1-0.4,0.1c-0.1,0-0.3,0-0.4,0.1
		c-0.1,0-0.1,0-0.2,0c-0.1,0-0.2,0-0.2,0c0,0,0,0,0,0c0,0,0,0,0,0c-0.1,0-0.1,0-0.2,0c-0.2,0-0.3,0-0.4-0.1c-0.1,0-0.1,0-0.2-0.1
		c-0.1,0-0.1,0-0.2-0.1c0,0-0.1,0-0.1-0.1c-0.1,0-0.1-0.1-0.2-0.1c0,0,0-0.1-0.1-0.1c0,0,0-0.1-0.1-0.1l0.1-0.1v0
		c0-0.1-0.1-0.2-0.1-0.2c0-0.1,0-0.2,0-0.3c0,0,0-0.1,0-0.1c0,0,0-0.1,0-0.1c0,0,0-0.1,0-0.1c0,0,0-0.1,0.1-0.1
		c0-0.1,0.1-0.2,0.1-0.3c0-0.1,0.1-0.1,0.1-0.2c0-0.1,0.1-0.1,0.1-0.2c0.1-0.3,0.3-0.5,0.5-0.8c0.1-0.1,0.2-0.3,0.3-0.4
		c0.4-0.5,0.9-1.1,1.5-1.7c0.2-0.2,0.3-0.3,0.5-0.5c0.1-0.1,0.2-0.2,0.3-0.3c0.1-0.1,0.2-0.2,0.3-0.2c0.1-0.1,0.2-0.2,0.3-0.2
		c0.2-0.2,0.4-0.3,0.6-0.5c0.1-0.1,0.3-0.3,0.4-0.4c0.2-0.2,0.4-0.3,0.6-0.5c0.2-0.2,0.4-0.3,0.6-0.5c0.4-0.3,0.8-0.6,1.2-0.9
		c0.7-0.5,1.3-1.1,2.1-1.6c0.3-0.2,0.7-0.5,1-0.7c0.5-0.4,1-0.8,1.6-1.1c0.2-0.2,0.5-0.3,0.7-0.5c0.6-0.4,1.2-0.8,1.8-1.2
		c0.2-0.1,0.3-0.2,0.5-0.3c0.5-0.3,1-0.7,1.5-1c0.4-0.3,0.8-0.5,1.2-0.8c0.4-0.2,0.7-0.4,1-0.6c0.4-0.2,0.8-0.5,1.2-0.7
		c0.2-0.1,0.4-0.2,0.5-0.3c0.4-0.2,0.8-0.4,1.2-0.7c1.7-0.9,3.2-1.7,4.6-2.3c0.1-0.1,0.2-0.1,0.3-0.2c0.1-0.1,0.2-0.1,0.3-0.1
		c0.1,0,0.2-0.1,0.3-0.1c0.1,0,0.2-0.1,0.3-0.1c0.2-0.1,0.5-0.2,0.7-0.3c0.2-0.1,0.5-0.2,0.7-0.3c0.6-0.2,1.1-0.4,1.6-0.5
		c0.6,1.1,1.4,2.2,2.3,3.1c0,0-0.1,0.1-0.1,0.1c-0.2,0.3-0.5,0.5-0.7,0.8c-0.5,0.5-1,1-1.6,1.6c-0.2,0.2-0.3,0.3-0.5,0.5
		c-0.1,0.1-0.2,0.2-0.3,0.3C13.7,36.6,13.6,36.7,13.5,36.8z M18.4,16.9c0.6,0.5,1.3,0.9,2,1.3c-0.6,1.3-1.1,2.8-1.5,4.4l-3.6-0.7
		C15.8,19.9,16.9,18.2,18.4,16.9z M30.5,19c0,0-0.1,0-0.1,0c-0.2,0-0.4,0-0.7,0c-0.8,0-1.6-0.1-2.4-0.2l0.8-4.2
		c0.8,0.5,1.5,1.4,2,2.6c0.1,0.3,0.2,0.6,0.3,1c0,0,0,0,0,0c0.1,0.2,0.1,0.4,0.1,0.6C30.6,18.9,30.6,18.9,30.5,19
		C30.5,19,30.5,19,30.5,19z M21.8,18.9c1.1,0.5,2.4,0.9,3.6,1.2l-0.7,3.6l-4.3-0.8C20.8,21.4,21.2,20.1,21.8,18.9z M22.6,17.5
		c1.2-1.8,2.6-3,3.9-3.2l-0.8,4.2C24.6,18.3,23.5,17.9,22.6,17.5z M21.1,16.8c-0.5-0.3-1-0.6-1.5-0.9c1-0.7,2.2-1.2,3.4-1.5
		C22.4,15.1,21.7,15.9,21.1,16.8z M18.6,24.1c-0.1,1-0.2,1.9-0.2,2.8c0,0.2,0,0.4,0,0.6c0,0.1,0,0.1,0,0.2c0,0.2,0,0.5,0,0.7
		c-0.1,0.1-0.2,0.2-0.2,0.3c-0.2,0-0.4,0.1-0.6,0.1c-0.5,0.1-0.9,0.2-1.4,0.3c0,0-0.1,0-0.1,0c0,0,0,0,0,0c-0.3-0.5-0.5-1.1-0.7-1.7
		c-0.1-0.2-0.1-0.4-0.2-0.6c-0.3-1.1-0.3-2.3-0.2-3.5L18.6,24.1z M20.5,28.5c0,0-0.1-0.1-0.1-0.1c0,0,0,0,0,0c0,0,0,0-0.1,0
		c0,0,0,0,0,0c0,0,0,0-0.1,0c0,0,0,0,0,0c0,0,0,0-0.1,0c0,0,0,0-0.1,0c0,0,0,0,0,0c0,0,0,0-0.1,0c0,0,0,0,0.1,0c0,0,0-0.1,0-0.1
		c0,0,0,0,0,0c0-0.1,0-0.2,0-0.3c0-1.1,0-2.2,0.2-3.3l4.3,0.8l-0.7,3.6c-1.1-0.2-2.2-0.2-3.2-0.2C20.5,28.6,20.5,28.5,20.5,28.5z
		 M20.9,32.4c0.1-0.2,0.1-0.3,0.2-0.5c0-0.1,0.1-0.3,0.1-0.4c0-0.1,0-0.3,0-0.4c0-0.1,0-0.3,0-0.4c0-0.1,0-0.3,0-0.4
		c0.8,0,1.5,0.1,2.3,0.2l-0.8,4.2C22,34.2,21.4,33.5,20.9,32.4C20.9,32.4,20.9,32.4,20.9,32.4z M24.3,34.9l0.8-4.2
		c1.1,0.3,2.2,0.6,3.1,1C27.1,33.5,25.7,34.7,24.3,34.9z M32.7,18.8C32.7,18.8,32.7,18.8,32.7,18.8C32.7,18.8,32.7,18.8,32.7,18.8
		C32.6,18.8,32.6,18.8,32.7,18.8c-0.1-0.1-0.2-0.1-0.2-0.1c0,0,0,0,0,0c0,0-0.1,0-0.1-0.1c0,0,0,0,0,0c0,0-0.1,0-0.1,0c0,0,0,0,0,0
		c0,0-0.1,0-0.1,0c0,0,0,0,0,0c0,0,0,0,0,0c0-0.2-0.1-0.3-0.1-0.5c-0.2-0.6-0.4-1.2-0.6-1.8c0-0.1-0.1-0.2-0.1-0.3
		c0.1,0,0.1,0.1,0.2,0.1c0.5,0.3,0.9,0.7,1.4,1.2c0.1,0.1,0.3,0.3,0.4,0.4c0.2,0.3,0.5,0.6,0.7,0.8C33.5,18.6,33.1,18.7,32.7,18.8
		C32.7,18.8,32.7,18.8,32.7,18.8C32.7,18.8,32.7,18.8,32.7,18.8L32.7,18.8C32.7,18.8,32.7,18.8,32.7,18.8
		C32.7,18.8,32.7,18.8,32.7,18.8z M35.5,12.3c3.3-2.4,7.8-5.1,12.8-7.6c5-2.5,9.9-4.4,13.8-5.5c2-0.6,3.7-0.9,5-0.9
		c0.1,0,0.3,0,0.4,0c0.7,0,1.3,0.1,1.8,0.2c0.7,0.2,1.4,0.6,1.8,1.1l-1.7,0.8c-0.1-0.1-0.2-0.1-0.3-0.1c-0.1,0-0.2-0.1-0.3-0.1
		c-0.1,0-0.2-0.1-0.4-0.1c-0.1,0-0.2,0-0.4,0c-0.1,0-0.3,0-0.4,0c0,0-0.1,0-0.1,0c-1.2,0-2.8,0.3-4.9,0.9c-0.5,0.1-0.9,0.3-1.4,0.4
		c-3.5,1.1-7.8,2.9-12.1,4.9c-4.3,2.1-8.3,4.4-11.3,6.5c-0.2,0.1-0.4,0.3-0.6,0.4c-0.2,0.1-0.4,0.3-0.6,0.4c-1.1,0.8-2,1.6-2.7,2.3
		c-0.4-0.4-0.9-0.8-1.4-1.2C33.3,14.1,34.3,13.2,35.5,12.3z M-18.3,51c0.2-0.6,0.5-1.2,0.9-2c0.7-1.1,1.8-2.4,3.4-3.8
		c2.9-2.8,7.1-6,11.8-9.1c4.7-3,9.3-5.6,13.1-7.1c1.1-0.5,2.1-0.8,3-1.1c0.2,0.6,0.4,1.1,0.6,1.7c-0.9,0.2-1.8,0.6-3,1.1
		c-0.2,0.1-0.4,0.2-0.7,0.3c-0.2,0.1-0.5,0.2-0.7,0.3C6.8,32.8,2.7,35-1.3,37.6c-4,2.6-7.7,5.4-10.5,7.8c-0.4,0.3-0.8,0.7-1.1,1
		c-1.6,1.5-2.7,2.8-3.3,3.9c-0.1,0.1-0.1,0.2-0.2,0.4c-0.1,0.1-0.1,0.2-0.2,0.3c0,0.1-0.1,0.2-0.1,0.3c0,0.1-0.1,0.2-0.1,0.3
		c0,0.1,0,0.2,0,0.3l-1.6,1C-18.5,52.4-18.5,51.7-18.3,51z M18.9,34.7C18.8,34.7,18.8,34.8,18.9,34.7c-0.7,0.9-1.6,1.8-2.6,2.8
		c-2.9,2.8-7.1,6-11.8,9.1c-4.7,3-9.3,5.6-13.1,7.1c-1.9,0.8-3.6,1.3-4.9,1.5c-0.5,0.1-0.9,0.1-1.3,0.1c-0.3,0-0.6,0-0.9-0.1
		c-0.8-0.1-1.6-0.5-2.1-1.1l1.5-1c0.1,0,0.1,0.1,0.2,0.1c0.1,0.1,0.3,0.1,0.5,0.2c0.2,0,0.3,0.1,0.5,0.1c0.1,0,0.1,0,0.2,0
		c0.1,0,0.2,0,0.4,0c0.1,0,0.1,0,0.2,0c0.1,0,0.3,0,0.4-0.1c0.1,0,0.3-0.1,0.5-0.1c0.2,0,0.4-0.1,0.7-0.2c0,0,0.1,0,0.1,0
		c0.3-0.1,0.7-0.2,1-0.3c0.7-0.2,1.4-0.5,2.2-0.8c0.1,0,0.2-0.1,0.3-0.1c0.2-0.1,0.5-0.2,0.7-0.3c0.1-0.1,0.2-0.1,0.3-0.2
		c0.2-0.1,0.5-0.2,0.7-0.3c0.2-0.1,0.5-0.2,0.7-0.3c0.2-0.1,0.5-0.2,0.8-0.4c0.3-0.1,0.5-0.3,0.8-0.4c0.3-0.1,0.5-0.3,0.8-0.4
		c0.3-0.1,0.5-0.3,0.8-0.4c0.4-0.2,0.8-0.4,1.2-0.7c0.8-0.5,1.7-1,2.5-1.5c0.3-0.2,0.6-0.4,0.9-0.5C2,46,2.7,45.6,3.4,45.1
		c1-0.7,2-1.3,3-2c0.4-0.3,0.8-0.6,1.2-0.9c0.1-0.1,0.3-0.2,0.4-0.3c0.3-0.2,0.5-0.4,0.8-0.6c0.1-0.1,0.3-0.2,0.4-0.3
		c0.3-0.2,0.5-0.4,0.7-0.6c0.2-0.2,0.5-0.4,0.7-0.6c0.2-0.2,0.5-0.4,0.7-0.6c0.2-0.2,0.5-0.4,0.7-0.5c0.3-0.3,0.6-0.5,1-0.8
		c0.1-0.1,0.2-0.2,0.3-0.3c0.2-0.2,0.4-0.3,0.6-0.5c0.2-0.2,0.4-0.3,0.6-0.5c0.2-0.2,0.4-0.3,0.5-0.5c0.6-0.6,1.1-1.1,1.6-1.6
		c0.3-0.3,0.5-0.6,0.7-0.9c0,0,0.1-0.1,0.1-0.1c0,0,0,0,0,0c0.1-0.2,0.3-0.3,0.4-0.5c0.1-0.1,0.2-0.3,0.3-0.4
		c0.1-0.1,0.2-0.3,0.2-0.4c0,0,0,0,0,0c0,0,0.1-0.1,0.1-0.1c0.1-0.2,0.2-0.4,0.2-0.5c0.1-0.2,0.1-0.3,0.1-0.5c0,0,0,0,0,0
		c0-0.2,0-0.4,0-0.5c0-0.1,0-0.2-0.1-0.3c0-0.1-0.1-0.2-0.2-0.3c0,0-0.1-0.1-0.1-0.1c0,0,0,0,0,0c0-0.1,0-0.1,0-0.2
		c0-0.3,0.2-0.6,0.4-0.8c0.2-0.1,0.3-0.2,0.5-0.2c0.2,0,0.4,0.1,0.5,0.2c0,0,0,0,0,0c0,0,0.1,0.1,0.1,0.1c0.2,0.4,0.4,0.8,0.5,1.2
		c0.1,0.4,0.1,0.9,0,1.3c0,0.1,0,0.2-0.1,0.2c-0.1,0.5-0.4,1.1-0.7,1.7c0,0-0.1,0.1-0.1,0.1c0,0.1-0.1,0.1-0.1,0.2
		C19.4,34,19.1,34.4,18.9,34.7z M27.7,34.8c0.7-0.6,1.4-1.5,1.9-2.4c0.5,0.3,1,0.6,1.5,0.9C30.1,34,28.9,34.5,27.7,34.8z M32.4,32.3
		c-0.6-0.5-1.3-0.9-2-1.3c0.6-1.3,1.1-2.8,1.5-4.4l3.6,0.7C35,29.2,33.9,31,32.4,32.3z M71.7,3c-0.2,0.6-0.6,1.2-1.1,1.8
		c-0.8,1-2.1,2.1-3.8,3.4c-3.3,2.4-7.8,5.1-12.8,7.6c-5,2.5-9.9,4.4-13.8,5.5c-1,0.3-1.8,0.5-2.6,0.6c-0.1,0-0.2,0-0.3,0.1
		c-0.6,0.1-1.1,0.2-1.6,0.2c-0.1,0-0.3,0-0.4,0c-0.1,0-0.3,0-0.4,0c-0.7,0-1.3-0.1-1.8-0.2c-0.2-0.1-0.4-0.1-0.5-0.2
		c-0.6-0.3-1.1-0.7-1.4-1.2c-0.1-0.1-0.1-0.2-0.2-0.3c0,0,0-0.1-0.1-0.1c0-0.4,0.2-0.8,0.5-1c0.1-0.1,0.3-0.1,0.4-0.1
		c0.2,0,0.4,0.1,0.5,0.2c0,0,0.1,0.1,0.1,0.1c0,0.1,0,0.1,0.1,0.2c0.1,0.2,0.3,0.4,0.5,0.5c0.1,0.1,0.3,0.2,0.5,0.2c0,0,0.1,0,0.1,0
		c0.1,0,0.2,0.1,0.4,0.1c0.2,0,0.4,0.1,0.6,0.1c0.1,0,0.1,0,0.2,0c0,0,0.1,0,0.1,0c0.1,0,0.1,0,0.2,0c0,0,0.1,0,0.1,0
		c0.1,0,0.3,0,0.5,0c0.2,0,0.5,0,0.8-0.1c0.1,0,0.2,0,0.3,0c0.1,0,0.2,0,0.2,0c0.2,0,0.4-0.1,0.6-0.1c0.7-0.1,1.4-0.3,2.2-0.5
		c0.2-0.1,0.5-0.1,0.7-0.2c0.2-0.1,0.5-0.1,0.7-0.2c0.2-0.1,0.5-0.1,0.7-0.2c0.1,0,0.3-0.1,0.4-0.1c0.4-0.1,0.8-0.3,1.2-0.4
		c0.3-0.1,0.5-0.2,0.8-0.3c0.3-0.1,0.6-0.2,0.8-0.3c0.3-0.1,0.6-0.2,0.9-0.3c0.3-0.1,0.6-0.2,0.9-0.3c0.1-0.1,0.3-0.1,0.4-0.2
		c0.3-0.1,0.6-0.2,0.9-0.4c0.1-0.1,0.3-0.1,0.5-0.2c0.5-0.2,0.9-0.4,1.4-0.6c1.1-0.5,2.2-1,3.3-1.5c0.8-0.4,1.6-0.8,2.3-1.2
		c0.3-0.2,0.6-0.3,0.9-0.5c0.9-0.5,1.8-0.9,2.6-1.4c0.4-0.2,0.8-0.5,1.2-0.7c0.3-0.2,0.5-0.3,0.8-0.5c0.3-0.2,0.5-0.3,0.8-0.5
		C62,9.3,62.3,9.2,62.5,9c0.2-0.2,0.5-0.3,0.7-0.5c0.2-0.2,0.5-0.3,0.7-0.5c0.2-0.1,0.4-0.3,0.6-0.4c0.1-0.1,0.2-0.1,0.3-0.2
		c0.2-0.1,0.4-0.3,0.6-0.4c0.1-0.1,0.2-0.1,0.3-0.2c0.7-0.5,1.3-1,1.8-1.4c0.3-0.2,0.5-0.5,0.8-0.7c0,0,0.1-0.1,0.1-0.1
		c0.2-0.2,0.3-0.3,0.5-0.5C69,4,69.1,3.8,69.2,3.7c0.1-0.1,0.2-0.2,0.3-0.3c0-0.1,0.1-0.1,0.1-0.2c0.1-0.2,0.2-0.3,0.3-0.5
		c0.1-0.2,0.2-0.3,0.2-0.5c0.1-0.2,0.1-0.3,0.1-0.5c0-0.1,0-0.1,0-0.2l1.6-0.8C72.1,1.4,72.1,2.2,71.7,3z"/>
</g>
</svg>
