<?xml version="1.0" encoding="utf-8"?>
<!-- Generator: Adobe Illustrator 27.0.0, SVG Export Plug-In . SVG Version: 6.00 Build 0)  -->
<svg version="1.1" id="Layer_2" xmlns="http://www.w3.org/2000/svg" xmlns:xlink="http://www.w3.org/1999/xlink" x="0px" y="0px"
	 width="50px" height="50px" viewBox="0 0 50 50" style="enable-background:new 0 0 50 50;" xml:space="preserve">
<style type="text/css">
	.st0{fill:#FFFFFF;}
	.st1{fill:#F6F4F1;}
	.st2{fill:#F3C849;}
	.st3{fill:#3B1C53;}
	.st4{fill:#F6D577;}
	.st5{fill:#3B1A53;}
	.st6{fill:#F1BA1B;}
</style>
<circle class="st0" cx="25" cy="25" r="25"/>
<g>
	<ellipse class="st1" cx="25" cy="25" rx="21.5" ry="21.5"/>
	<path class="st2" d="M25,1.4C12,1.4,1.5,12,1.5,25C1.5,38,12,48.6,25,48.6C38,48.6,48.5,38,48.5,25C48.5,12,38,1.4,25,1.4z
		 M25,46.5C13.1,46.5,3.5,36.9,3.5,25C3.5,13.1,13.1,3.5,25,3.5S46.5,13.1,46.5,25C46.5,36.9,36.9,46.5,25,46.5z"/>
	<g>
		<g>
			<polygon class="st3" points="11,12.7 12.5,14.7 11,12.7 			"/>
			<path class="st4" d="M12.8,10.9l14,20.3l0.6,0.3l-0.1-2.1l2,0.9l0-0.6L16.9,8.3C15.4,9,14.1,9.9,12.8,10.9z"/>
			<path class="st5" d="M31,29L19.5,7.4c-0.9,0.3-1.7,0.6-2.6,1l12.4,21.4l-0.1-1.6L31,29z"/>
			<path class="st5" d="M11,12.7l1.5,2l13.3,18.4l-0.2-2.5l1.2,0.6l-14-20.3C12.2,11.5,11.6,12.1,11,12.7z"/>
		</g>
		<polygon class="st6" points="29.7,29 29.9,31.1 28,30.4 28,32.3 26.2,31.5 26.3,33.5 29.9,36.8 33,34.6 31.2,29.7 		"/>
		<polygon class="st5" points="35,41.4 33,34.6 29.9,36.8 		"/>
	</g>
</g>
</svg>
