<?xml version="1.0" encoding="utf-8"?>
<!-- Generator: Adobe Illustrator 27.3.1, SVG Export Plug-In . SVG Version: 6.00 Build 0)  -->
<svg version="1.1" id="Layer_1" xmlns="http://www.w3.org/2000/svg" xmlns:xlink="http://www.w3.org/1999/xlink" x="0px" y="0px"
	 width="50px" height="50px" viewBox="0 0 50 50" style="enable-background:new 0 0 50 50;" xml:space="preserve">
<style type="text/css">
	.st0{opacity:0.75;fill:#AFB1B4;enable-background:new    ;}
	.st1{fill:url(#SVGID_1_);stroke:#3D3935;stroke-width:0.1745;stroke-linecap:round;stroke-linejoin:round;stroke-miterlimit:10;}
	
		.st2{fill:url(#SVGID_00000176726652924662599080000015720571273729437097_);stroke:#3D3935;stroke-width:0.1745;stroke-linecap:round;stroke-linejoin:round;stroke-miterlimit:10;}
	
		.st3{fill:url(#SVGID_00000114042868015726714040000000301803062369254327_);stroke:#3D3935;stroke-width:0.1745;stroke-linecap:round;stroke-linejoin:round;stroke-miterlimit:10;}
	
		.st4{fill:url(#SVGID_00000023980746109236652720000006615798492356136851_);stroke:#3D3935;stroke-width:0.1745;stroke-miterlimit:10;}
	.st5{fill:url(#SVGID_00000000186647194229699000000003502348293021775293_);}
	
		.st6{fill:url(#SVGID_00000088853725693703346010000006226130173379875740_);stroke:#3D3935;stroke-width:0.1745;stroke-miterlimit:10;}
	
		.st7{fill:url(#SVGID_00000121996273159559895440000017309327237555217335_);stroke:#3D3935;stroke-width:0.1745;stroke-linecap:round;stroke-linejoin:round;stroke-miterlimit:10;}
	
		.st8{fill:url(#SVGID_00000082356072737560617370000012541881934310749341_);stroke:#3D3935;stroke-width:0.1745;stroke-linecap:round;stroke-linejoin:round;stroke-miterlimit:10;}
	
		.st9{fill:url(#SVGID_00000061442691690349374280000005984375649653143484_);stroke:#3D3935;stroke-width:0.1745;stroke-linecap:round;stroke-linejoin:round;stroke-miterlimit:10;}
	.st10{opacity:0.85;fill:#FFFFFF;enable-background:new    ;}
</style>
<g id="Layer_2_00000044146277312509816610000011501296016144209817_">
</g>
<circle class="st0" cx="25.2" cy="33.6" r="16.4"/>
<g>
	
		<linearGradient id="SVGID_1_" gradientUnits="userSpaceOnUse" x1="31.15" y1="36.8" x2="31.15" y2="56.3255" gradientTransform="matrix(1 0 0 -1 0 52)">
		<stop  offset="0" style="stop-color:#910F14"/>
		<stop  offset="2.004552e-02" style="stop-color:#9A1519"/>
		<stop  offset="9.032345e-02" style="stop-color:#B52827"/>
		<stop  offset="0.1711" style="stop-color:#CB3733"/>
		<stop  offset="0.2653" style="stop-color:#DC433C"/>
		<stop  offset="0.382" style="stop-color:#E74B43"/>
		<stop  offset="0.5457" style="stop-color:#EE5046"/>
		<stop  offset="1" style="stop-color:#F05147"/>
	</linearGradient>
	<polygon class="st1" points="26.4,15.2 29.4,15.2 35.9,-4.3 32.9,-4.3 	"/>
	
		<linearGradient id="SVGID_00000063615671779156030360000003835291533262041530_" gradientUnits="userSpaceOnUse" x1="24.8" y1="36.8" x2="24.8" y2="56.3255" gradientTransform="matrix(1 0 0 -1 0 52)">
		<stop  offset="0" style="stop-color:#910F14"/>
		<stop  offset="2.004552e-02" style="stop-color:#9A1519"/>
		<stop  offset="9.032345e-02" style="stop-color:#B52827"/>
		<stop  offset="0.1711" style="stop-color:#CB3733"/>
		<stop  offset="0.2653" style="stop-color:#DC433C"/>
		<stop  offset="0.382" style="stop-color:#E74B43"/>
		<stop  offset="0.5457" style="stop-color:#EE5046"/>
		<stop  offset="1" style="stop-color:#F05147"/>
	</linearGradient>
	
		<polygon style="fill:url(#SVGID_00000063615671779156030360000003835291533262041530_);stroke:#3D3935;stroke-width:0.1745;stroke-linecap:round;stroke-linejoin:round;stroke-miterlimit:10;" points="
		20,15.2 23,15.2 29.6,-4.3 26.5,-4.3 	"/>
	
		<linearGradient id="SVGID_00000049187612137281310460000002210079643656419729_" gradientUnits="userSpaceOnUse" x1="27.95" y1="36.8" x2="27.95" y2="56.3255" gradientTransform="matrix(1 0 0 -1 0 52)">
		<stop  offset="2.032439e-02" style="stop-color:#8D857B"/>
		<stop  offset="3.402793e-02" style="stop-color:#989187"/>
		<stop  offset="7.490852e-02" style="stop-color:#B5AEA5"/>
		<stop  offset="0.1179" style="stop-color:#CBC6BD"/>
		<stop  offset="0.1634" style="stop-color:#DBD6CE"/>
		<stop  offset="0.213" style="stop-color:#E5E0D8"/>
		<stop  offset="0.2747" style="stop-color:#E8E3DB"/>
	</linearGradient>
	
		<polygon style="fill:url(#SVGID_00000049187612137281310460000002210079643656419729_);stroke:#3D3935;stroke-width:0.1745;stroke-linecap:round;stroke-linejoin:round;stroke-miterlimit:10;" points="
		23,15.2 26.4,15.2 32.9,-4.3 29.6,-4.3 	"/>
</g>
<linearGradient id="SVGID_00000132800452008314317610000009240600562207400848_" gradientUnits="userSpaceOnUse" x1="19.1" y1="35.3" x2="30.4438" y2="35.3" gradientTransform="matrix(1 0 0 -1 0 52)">
	<stop  offset="0" style="stop-color:#A65E27"/>
	<stop  offset="0.1884" style="stop-color:#C58E46"/>
	<stop  offset="0.2837" style="stop-color:#C38235"/>
	<stop  offset="0.3627" style="stop-color:#C58E46"/>
	<stop  offset="0.5482" style="stop-color:#B27133"/>
	<stop  offset="0.7752" style="stop-color:#C58E46"/>
	<stop  offset="0.8818" style="stop-color:#B27033"/>
	<stop  offset="0.9797" style="stop-color:#A45C25"/>
</linearGradient>
<path style="fill:url(#SVGID_00000132800452008314317610000009240600562207400848_);stroke:#3D3935;stroke-width:0.1745;stroke-miterlimit:10;" d="
	M29.3,18.6h-9.1c-0.6,0-1.1-0.5-1.1-1.1v-1.6c0-0.6,0.5-1.1,1.1-1.1h9.1c0.6,0,1.1,0.5,1.1,1.1v1.6C30.4,18.1,29.9,18.6,29.3,18.6z
	 M20.2,15c-0.4,0-0.8,0.4-0.8,0.8v1.6c0,0.4,0.4,0.8,0.8,0.8h9.1c0.4,0,0.8-0.4,0.8-0.8v-1.6c0-0.4-0.4-0.8-0.8-0.8
	C29.3,15,20.2,15,20.2,15z"/>
<linearGradient id="SVGID_00000144304041666221492290000002929308995627128969_" gradientUnits="userSpaceOnUse" x1="14.1227" y1="30.0773" x2="35.4773" y2="8.7227" gradientTransform="matrix(1 0 0 -1 0 52)">
	<stop  offset="2.032451e-02" style="stop-color:#A45C25"/>
	<stop  offset="0.1182" style="stop-color:#B27033"/>
	<stop  offset="0.2248" style="stop-color:#C58E46"/>
	<stop  offset="0.4518" style="stop-color:#B27133"/>
	<stop  offset="0.6373" style="stop-color:#C58E46"/>
	<stop  offset="0.7163" style="stop-color:#C38235"/>
	<stop  offset="0.8116" style="stop-color:#C58E46"/>
	<stop  offset="1" style="stop-color:#A65E27"/>
</linearGradient>
<circle style="fill:url(#SVGID_00000144304041666221492290000002929308995627128969_);" cx="24.8" cy="32.6" r="15.1"/>
<linearGradient id="SVGID_00000077288993650657183000000017013933854385556908_" gradientUnits="userSpaceOnUse" x1="13.225" y1="30.975" x2="36.3988" y2="7.8012" gradientTransform="matrix(1 0 0 -1 0 52)">
	<stop  offset="0" style="stop-color:#A65E27"/>
	<stop  offset="0.1884" style="stop-color:#C58E46"/>
	<stop  offset="0.2837" style="stop-color:#C38235"/>
	<stop  offset="0.3627" style="stop-color:#C58E46"/>
	<stop  offset="0.5482" style="stop-color:#B27133"/>
	<stop  offset="0.7752" style="stop-color:#C58E46"/>
	<stop  offset="0.8818" style="stop-color:#B27033"/>
	<stop  offset="0.9797" style="stop-color:#A45C25"/>
</linearGradient>
<path style="fill:url(#SVGID_00000077288993650657183000000017013933854385556908_);stroke:#3D3935;stroke-width:0.1745;stroke-miterlimit:10;" d="
	M24.8,49c-9,0-16.4-7.4-16.4-16.4s7.4-16.4,16.4-16.4s16.4,7.4,16.4,16.4S33.8,49,24.8,49z M24.8,18.8C17.2,18.8,11,25,11,32.6
	s6.2,13.8,13.8,13.8s13.8-6.2,13.8-13.8S32.4,18.8,24.8,18.8z"/>
<g>
	
		<linearGradient id="SVGID_00000041262393757815676780000016248264386339565494_" gradientUnits="userSpaceOnUse" x1="18.2" y1="36.8" x2="18.2" y2="56.3255" gradientTransform="matrix(1 0 0 -1 0 52)">
		<stop  offset="0" style="stop-color:#910F14"/>
		<stop  offset="2.004552e-02" style="stop-color:#9A1519"/>
		<stop  offset="9.032345e-02" style="stop-color:#B52827"/>
		<stop  offset="0.1711" style="stop-color:#CB3733"/>
		<stop  offset="0.2653" style="stop-color:#DC433C"/>
		<stop  offset="0.382" style="stop-color:#E74B43"/>
		<stop  offset="0.5457" style="stop-color:#EE5046"/>
		<stop  offset="1" style="stop-color:#F05147"/>
	</linearGradient>
	
		<polygon style="fill:url(#SVGID_00000041262393757815676780000016248264386339565494_);stroke:#3D3935;stroke-width:0.1745;stroke-linecap:round;stroke-linejoin:round;stroke-miterlimit:10;" points="
		23,15.2 20,15.2 13.4,-4.3 16.5,-4.3 	"/>
	
		<linearGradient id="SVGID_00000039846300608041723180000005825584884041108388_" gradientUnits="userSpaceOnUse" x1="24.6" y1="36.8" x2="24.6" y2="56.3255" gradientTransform="matrix(1 0 0 -1 0 52)">
		<stop  offset="0" style="stop-color:#910F14"/>
		<stop  offset="2.004552e-02" style="stop-color:#9A1519"/>
		<stop  offset="9.032345e-02" style="stop-color:#B52827"/>
		<stop  offset="0.1711" style="stop-color:#CB3733"/>
		<stop  offset="0.2653" style="stop-color:#DC433C"/>
		<stop  offset="0.382" style="stop-color:#E74B43"/>
		<stop  offset="0.5457" style="stop-color:#EE5046"/>
		<stop  offset="1" style="stop-color:#F05147"/>
	</linearGradient>
	
		<polygon style="fill:url(#SVGID_00000039846300608041723180000005825584884041108388_);stroke:#3D3935;stroke-width:0.1745;stroke-linecap:round;stroke-linejoin:round;stroke-miterlimit:10;" points="
		29.4,15.2 26.3,15.2 19.8,-4.3 22.8,-4.3 	"/>
	
		<linearGradient id="SVGID_00000016045174849363442320000003326851732067446183_" gradientUnits="userSpaceOnUse" x1="21.4" y1="36.8" x2="21.4" y2="56.3255" gradientTransform="matrix(1 0 0 -1 0 52)">
		<stop  offset="2.032439e-02" style="stop-color:#8D857B"/>
		<stop  offset="3.402793e-02" style="stop-color:#989187"/>
		<stop  offset="7.490852e-02" style="stop-color:#B5AEA5"/>
		<stop  offset="0.1179" style="stop-color:#CBC6BD"/>
		<stop  offset="0.1634" style="stop-color:#DBD6CE"/>
		<stop  offset="0.213" style="stop-color:#E5E0D8"/>
		<stop  offset="0.2747" style="stop-color:#E8E3DB"/>
	</linearGradient>
	
		<polygon style="fill:url(#SVGID_00000016045174849363442320000003326851732067446183_);stroke:#3D3935;stroke-width:0.1745;stroke-linecap:round;stroke-linejoin:round;stroke-miterlimit:10;" points="
		26.3,15.2 23,15.2 16.5,-4.3 19.8,-4.3 	"/>
</g>
<path class="st10" d="M38.1,31.6c-0.3,0.6-0.6,1.4-0.6,1.5l0,0l0,0c0.1-0.1,0.6-0.7,0.9-1.3l0.1-0.2l0.5,0.3l0,0
	c-0.1,0.1,0,0.2,0.1,0.3s0.2,0,0.3-0.1l0,0l0,0c0.1,0.1,0.2,0,0.3-0.1s0-0.2-0.1-0.3l0,0l0,0c0.1-0.1,0-0.2-0.1-0.3
	c-0.1-0.1-0.2,0-0.3,0.1l0,0l-0.5-0.3l0,0l0.3-0.6l0,0c0.1,0.1,0.2,0,0.3-0.1s0-0.2-0.1-0.3l0,0l0,0c0.1-0.1,0-0.2-0.1-0.3
	s-0.2,0-0.3,0.1l0,0l0,0c-0.1-0.1-0.2,0-0.3,0.1s0,0.2,0.1,0.3l0,0L38.3,31l0,0l-0.5-0.3l0,0c0.1-0.1,0-0.2-0.1-0.3
	c-0.1-0.1-0.2,0-0.3,0.1l0,0l0,0c-0.1-0.1-0.2,0-0.3,0.1s0,0.2,0.1,0.3l0,0l0,0c-0.1,0.1,0,0.2,0.1,0.3c0.1,0.1,0.2,0,0.3-0.1l0,0
	l0.5,0.3L38.1,31.6L38.1,31.6z"/>
</svg>
