<svg width="50" height="50" viewBox="0 0 50 50" fill="none" xmlns="http://www.w3.org/2000/svg">
<rect width="50" height="50" fill="white"/>
<path d="M3.91421 26.4142C3.13316 25.6332 3.13317 24.3668 3.91421 23.5858L23.5858 3.91421C24.3668 3.13316 25.6332 3.13317 26.4142 3.91421L46.0858 23.5858C46.8668 24.3668 46.8668 25.6332 46.0858 26.4142L26.4142 46.0858C25.6332 46.8668 24.3668 46.8668 23.5858 46.0858L3.91421 26.4142Z" fill="#F7D66C"/>
<path d="M26.4142 46.0858L46.0858 26.4142C46.8668 25.6332 46.8668 24.3668 46.0858 23.5858L36.25 13.75L13.75 36.25L23.5858 46.0858C24.3668 46.8668 25.6332 46.8668 26.4142 46.0858Z" fill="#F2BB0A"/>
<circle cx="25" cy="38.5" r="3.5" fill="#8A7098"/>
<path d="M29.5669 14.4812L28.2599 29.5113C28.1129 31.2022 26.6973 32.5 25 32.5C23.3027 32.5 21.8871 31.2022 21.7401 29.5113L20.4331 14.4812C20.2003 11.8029 22.3116 9.5 25 9.5C27.6884 9.5 29.7997 11.8029 29.5669 14.4812Z" fill="#B19FBA"/>
<path d="M21.6401 28.36L21.7402 29.5113C21.8873 31.2022 23.3028 32.5 25.0001 32.5C26.6974 32.5 28.113 31.2022 28.26 29.5113L29.0001 21L21.6401 28.36Z" fill="#8A7098"/>
<path d="M3.91421 26.4142C3.13316 25.6332 3.13317 24.3668 3.91421 23.5858L23.5858 3.91421C24.3668 3.13316 25.6332 3.13317 26.4142 3.91421L46.0858 23.5858C46.8668 24.3668 46.8668 25.6332 46.0858 26.4142L26.4142 46.0858C25.6332 46.8668 24.3668 46.8668 23.5858 46.0858L3.91421 26.4142Z" stroke="#3C1A53" stroke-width="2"/>
<circle cx="25" cy="38.5" r="3.5" stroke="#3C1A53" stroke-width="2"/>
<path d="M29.5669 14.4812L28.2599 29.5113C28.1129 31.2022 26.6973 32.5 25 32.5C23.3027 32.5 21.8871 31.2022 21.7401 29.5113L20.4331 14.4812C20.2003 11.8029 22.3116 9.5 25 9.5C27.6884 9.5 29.7997 11.8029 29.5669 14.4812Z" stroke="#3C1A53" stroke-width="2" stroke-linecap="round"/>
</svg>
