<svg width="50" height="50" viewBox="0 0 50 50" fill="none" xmlns="http://www.w3.org/2000/svg">
<g clip-path="url(#clip0_2512_594)">
<path d="M25 46.9999C12.8497 46.9999 3 37.1502 3 24.9999C3 12.8497 12.8497 2.99994 25 2.99994C37.1503 2.99994 47 12.8497 47 24.9999C47 29.0092 45.9276 32.7679 44.0539 36.0049L46.8879 46.5817C46.9377 46.7676 46.7676 46.9377 46.5817 46.8879L36.005 44.0538C32.768 45.9275 29.0092 46.9999 25 46.9999Z" fill="#F6F4F0"/>
<circle cx="25" cy="25" r="20" fill="#8A7098"/>
<path d="M10.858 10.8579C3.04747 18.6684 3.04747 31.3316 10.858 39.1421L39.1422 10.8579C31.3317 3.04738 18.6684 3.04738 10.858 10.8579Z" fill="#B19FBA"/>
<path d="M44.0539 36.005L43.088 36.2638L42.9806 35.8631L43.1884 35.5041L44.0539 36.005ZM46.8879 46.5817L45.922 46.8406L45.922 46.8406L46.8879 46.5817ZM46.5817 46.8879L46.8406 45.922L46.8406 45.922L46.5817 46.8879ZM36.005 44.0539L35.504 43.1884L35.8631 42.9806L36.2638 43.088L36.005 44.0539ZM4 25C4 36.598 13.402 46 25 46V48C12.2975 48 2 37.7025 2 25H4ZM25 4C13.402 4 4 13.402 4 25H2C2 12.2975 12.2975 2 25 2V4ZM46 25C46 13.402 36.598 4 25 4V2C37.7025 2 48 12.2975 48 25H46ZM43.1884 35.5041C44.9763 32.4152 46 28.8286 46 25H48C48 29.1898 46.8788 33.1208 44.9194 36.506L43.1884 35.5041ZM45.0198 35.7462L47.8539 46.3229L45.922 46.8406L43.088 36.2638L45.0198 35.7462ZM47.8539 46.3229C48.1029 47.2524 47.2524 48.1029 46.3229 47.8539L46.8406 45.922C46.2829 45.7726 45.7726 46.2829 45.922 46.8406L47.8539 46.3229ZM46.3229 47.8539L35.7462 45.0198L36.2638 43.088L46.8406 45.922L46.3229 47.8539ZM25 46C28.8286 46 32.4152 44.9763 35.504 43.1884L36.5059 44.9194C33.1208 46.8788 29.1898 48 25 48V46Z" fill="#3C1A53"/>
<circle cx="25" cy="12.5" r="4.5" fill="#F7D66C"/>
<path d="M28.2501 20C28.3882 20 28.5001 20.1119 28.5001 20.25V35.75C28.5001 35.8881 28.612 36 28.7501 36H31.25C31.3881 36 31.5 36.1119 31.5 36.25V40.75C31.5 40.8881 31.3881 41 31.25 41H18.75C18.6119 41 18.5 40.8881 18.5 40.75V36.25C18.5 36.1119 18.6119 36 18.75 36H21.2501C21.3882 36 21.5001 35.8881 21.5001 35.75V25.25C21.5001 25.1119 21.3882 25 21.2501 25H19.25C19.1119 25 19 24.8881 19 24.75V20.25C19 20.1119 19.1119 20 19.25 20H28.2501Z" fill="#F2BB0A"/>
<path d="M28.5001 21.4999V20.25C28.5001 20.1119 28.3882 20 28.2501 20H19.25C19.1119 20 19 20.1119 19 20.25V24.75C19 24.8881 19.1119 25 19.25 25H21.2501C21.3882 25 21.5001 25.1119 21.5001 25.25V28.4999L28.5001 21.4999Z" fill="#F7D66C"/>
<circle cx="25" cy="12.5" r="4.5" stroke="#3C1A53" stroke-width="2"/>
<path d="M28.5001 41L28.5001 40H28.5001V41ZM21.5001 41V40H21.5001L21.5001 41ZM31.25 41V40V41ZM18.75 41L18.75 40L18.75 41ZM28.2501 19H23V21H28.2501V19ZM29.5001 35.75V20.25H27.5001V35.75H29.5001ZM31.25 35H28.7501V37H31.25V35ZM32.5 40.75V36.25H30.5V40.75H32.5ZM28.5001 42L31.25 42L31.25 40L28.5001 40L28.5001 42ZM21.5001 42H28.5001V40H21.5001V42ZM18.75 42L21.5001 42L21.5001 40L18.75 40L18.75 42ZM17.5 36.25V40.75H19.5V36.25H17.5ZM21.2501 35H18.75V37H21.2501V35ZM20.5001 25.25V35.75H22.5001V25.25H20.5001ZM21.2501 24H19.25V26H21.2501V24ZM20 24.75V20.25H18V24.75H20ZM19.25 21H21.5001V19H19.25V21ZM21.5001 21H23V19H21.5001V21ZM20 20.25C20 20.6642 19.6642 21 19.25 21V19C18.5596 19 18 19.5596 18 20.25H20ZM22.5001 25.25C22.5001 24.5596 21.9405 24 21.2501 24V26C20.8359 26 20.5001 25.6642 20.5001 25.25H22.5001ZM21.2501 37C21.9405 37 22.5001 36.4404 22.5001 35.75H20.5001C20.5001 35.3358 20.8359 35 21.2501 35V37ZM19.5 36.25C19.5 36.6642 19.1642 37 18.75 37V35C18.0596 35 17.5 35.5596 17.5 36.25H19.5ZM30.5 40.75C30.5 40.3358 30.8358 40 31.25 40L31.25 42C31.9404 42 32.5 41.4404 32.5 40.75H30.5ZM31.25 37C30.8358 37 30.5 36.6642 30.5 36.25H32.5C32.5 35.5596 31.9404 35 31.25 35V37ZM18.75 40C19.1642 40 19.5 40.3358 19.5 40.75H17.5C17.5 41.4404 18.0596 42 18.75 42L18.75 40ZM27.5001 35.75C27.5001 36.4404 28.0598 37 28.7501 37V35C29.1643 35 29.5001 35.3358 29.5001 35.75H27.5001ZM19.25 24C19.6642 24 20 24.3358 20 24.75H18C18 25.4404 18.5596 26 19.25 26V24ZM28.2501 21C27.8359 21 27.5001 20.6642 27.5001 20.25H29.5001C29.5001 19.5596 28.9405 19 28.2501 19V21Z" fill="#3C1A53"/>
</g>
<defs>
<clipPath id="clip0_2512_594">
<rect width="50" height="50" fill="white"/>
</clipPath>
</defs>
</svg>
