<svg width="50" height="50" viewBox="0 0 50 50" fill="none" xmlns="http://www.w3.org/2000/svg">
<path d="M45 42C45 43.6569 43.6569 45 42 45L37 45L37 26L42 26C43.6569 26 45 27.3431 45 29L45 42Z" fill="#F7D66C"/>
<path d="M44 42C44 43.6569 42.6569 45 41 45L37 45L37 30L41 30C42.6569 30 44 31.3431 44 33L44 42Z" fill="#F2BB0A"/>
<path d="M37 44.5L34.0245 41.8964C33.3734 41.3268 33 40.5038 33 39.6387L33 31.3613C33 30.4962 33.3734 29.6732 34.0245 29.1036L37 26.5L37 44.5Z" fill="#B19FBA"/>
<path d="M5 42C5 43.6569 6.34315 45 8 45L13 45L13 26L8 26C6.34314 26 5 27.3431 5 29L5 42Z" fill="#F7D66C"/>
<path d="M6 42C6 43.6569 7.34315 45 9 45L13 45L13 30L9 30C7.34314 30 6 31.3431 6 33L6 42Z" fill="#F2BB0A"/>
<path d="M13 44.5L15.9755 41.8964C16.6266 41.3268 17 40.5038 17 39.6387L17 31.3613C17 30.4962 16.6266 29.6732 15.9755 29.1036L13 26.5L13 44.5Z" fill="#B19FBA"/>
<path d="M45 42C45 43.6569 43.6569 45 42 45L37.5 45C37.2239 45 37 44.7761 37 44.5L37 26.5C37 26.2239 37.2239 26 37.5 26L42 26C43.6569 26 45 27.3431 45 29L45 42Z" stroke="#3C1A53" stroke-width="2"/>
<path d="M37 43.3981C37 43.8277 36.494 44.0573 36.1707 43.7744L34.0245 41.8964C33.3734 41.3268 33 40.5038 33 39.6387L33 31.3613C33 30.4962 33.3734 29.6732 34.0245 29.1036L36.5854 26.8628C36.747 26.7214 37 26.8362 37 27.0509L37 43.3981Z" stroke="#3C1A53" stroke-width="2"/>
<rect x="45" y="32" width="2" height="7" rx="0.5" fill="#D9D9D9" stroke="#3C1A53" stroke-width="2"/>
<path d="M5 42C5 43.6569 6.34315 45 8 45L12.5 45C12.7761 45 13 44.7761 13 44.5L13 26.5C13 26.2239 12.7761 26 12.5 26L8 26C6.34314 26 5 27.3431 5 29L5 42Z" stroke="#3C1A53" stroke-width="2"/>
<path d="M13 43.3981C13 43.8277 13.506 44.0573 13.8293 43.7744L15.9755 41.8964C16.6266 41.3268 17 40.5038 17 39.6387L17 31.3613C17 30.4962 16.6266 29.6732 15.9755 29.1036L13.4146 26.8628C13.253 26.7214 13 26.8362 13 27.0509L13 43.3981Z" stroke="#3C1A53" stroke-width="2"/>
<rect width="2" height="7" rx="0.5" transform="matrix(-1 0 0 1 5 32)" fill="#D9D9D9" stroke="#3C1A53" stroke-width="2"/>
<path d="M7 26V17C7 10.3726 12.3726 5 19 5H31C37.6274 5 43 10.3726 43 17V26" stroke="#3C1A53" stroke-width="2" stroke-linecap="square"/>
<path d="M23 25V12M27 16V21M19 14V23M15 17V20M31 14V23M35 17V20" stroke="#3C1A53" stroke-width="2" stroke-linecap="round"/>
</svg>
