<svg width="50" height="50" viewBox="0 0 50 50" fill="none" xmlns="http://www.w3.org/2000/svg">
<rect width="50" height="50" fill="white"/>
<path d="M40 47H12C9.79086 47 8 45.2091 8 43V7C8 4.79086 9.79086 3 12 3H38C39.1046 3 40 3.89543 40 5V11C41.1046 11 42 11.8954 42 13V45C42 46.1046 41.1046 47 40 47Z" fill="#F7D66C"/>
<path d="M12 11.5H40C41.1046 11.5 42 12.3954 42 13.5V44C42 45.1046 41.1046 46 40 46H16C13.7909 46 12 44.2091 12 42V11.5Z" fill="#F2BB0A"/>
<path d="M8 7C8 4.79086 9.79086 3 12 3H38C39.1046 3 40 3.89543 40 5V11H12C9.79086 11 8 9.20914 8 7Z" fill="#E8E3DB"/>
<rect x="17" y="17" width="16" height="8" fill="#8A7098"/>
<path fill-rule="evenodd" clip-rule="evenodd" d="M31 17H17V25H23L31 17Z" fill="#B19FBA"/>
<path d="M40 11V5C40 3.89543 39.1046 3 38 3H12" stroke="#3C1A53" stroke-width="2"/>
<path d="M12 47H40C41.1046 47 42 46.1046 42 45V13C42 11.8954 41.1046 11 40 11H12" stroke="#3C1A53" stroke-width="2"/>
<path d="M12 6C11.4477 6 11 6.44772 11 7C11 7.55228 11.4477 8 12 8V6ZM12 8H35V6H12V8ZM36 9V11H38V9H36ZM35 8C35.5523 8 36 8.44772 36 9H38C38 7.34315 36.6569 6 35 6V8Z" fill="#3C1A53"/>
<path d="M12 3V3C9.79086 3 8 4.79086 8 7V7C8 9.20914 9.79086 11 12 11V11" stroke="#3C1A53" stroke-width="2"/>
<path d="M12.0526 47H12C9.79086 47 8 45.2091 8 43V7" stroke="#3C1A53" stroke-width="2"/>
<rect x="17" y="17" width="16" height="8" rx="0.5" stroke="#3C1A53" stroke-width="2"/>
<path d="M19 29.5L31 29.5" stroke="#3C1A53" stroke-width="2" stroke-linecap="round"/>
<path d="M19 33L31 33" stroke="#3C1A53" stroke-width="2" stroke-linecap="round"/>
<path d="M19 36.5L31 36.5" stroke="#3C1A53" stroke-width="2" stroke-linecap="round"/>
</svg>
