<svg width="50" height="50" viewBox="0 0 50 50" fill="none" xmlns="http://www.w3.org/2000/svg">
<g clip-path="url(#clip0_2512_743)">
<path d="M13 47V40.5C12.3418 33.95 5 30.5565 5 20.5C5 10.4436 11.5005 2.87625 23.5 3.00153C32.1402 3.09183 40.5 7.94344 40.5 18L45 25.5C45 30.5283 40 31 40 31C40 31 41.2996 43 30.5 43V47" fill="#F6F4F0"/>
<path d="M36.8093 8.19086L10.5269 34.4733C11.7606 36.375 12.7742 38.2515 13.0001 40.5V47H30.5001V43C41.2997 43 40.0001 31 40.0001 31C40.0001 31 45.0001 30.5283 45.0001 25.5L40.5001 18C40.5001 13.8574 39.0816 10.598 36.8093 8.19086Z" fill="#E8E3DB"/>
<circle cx="23.5" cy="21.5" r="12.5" fill="#F7D66C"/>
<path d="M32.3388 30.3388C37.2204 25.4573 37.2204 17.5427 32.3388 12.6612L14.6611 30.3388C19.5427 35.2204 27.4572 35.2204 32.3388 30.3388Z" fill="#F2BB0A"/>
<path d="M13 47V40.5C12.3418 33.95 5 30.5565 5 20.5C5 10.4436 11.5005 2.87625 23.5 3.00153C32.1402 3.09183 40.5 7.94344 40.5 18L45 25.5C45 30.5283 40 31 40 31C40 31 41.2996 43 30.5 43V47" stroke="#3C1A53" stroke-width="2" stroke-linecap="round" stroke-linejoin="round"/>
<path d="M9.54353 16.2869L15.1442 13.3272C15.3111 13.239 15.5117 13.3605 15.511 13.5492L15.4867 19.8838" stroke="#3C1A53" stroke-width="2" stroke-linecap="round"/>
<path d="M25.9638 36.1934L20.6003 32.8229C20.4405 32.7225 20.4453 32.488 20.6091 32.3942L26.1072 29.248" stroke="#3C1A53" stroke-width="2" stroke-linecap="round"/>
<path d="M34.9931 12.0198L34.756 18.35C34.7489 18.5386 34.5434 18.6517 34.3803 18.5567L28.9066 15.3684" stroke="#3C1A53" stroke-width="2" stroke-linecap="round"/>
<path d="M20.5236 10.3919C21.9823 10.001 23.5038 9.90126 25.0011 10.0984C26.4983 10.2955 27.9421 10.7856 29.25 11.5407C30.5579 12.2958 31.7042 13.3011 32.6236 14.4992C33.5429 15.6974 34.2173 17.0648 34.6081 18.5236" stroke="#3C1A53" stroke-width="2" stroke-linecap="round"/>
<path d="M34.6082 24.4765C34.2173 25.9352 33.5429 27.3027 32.6236 28.5008C31.7042 29.6989 30.5579 30.7042 29.25 31.4593C27.9421 32.2144 26.4984 32.7045 25.0011 32.9017C23.5038 33.0988 21.9823 32.9991 20.5236 32.6082" stroke="#3C1A53" stroke-width="2" stroke-linecap="round"/>
<path d="M15.3686 29.6318C14.3007 28.5639 13.4536 27.2962 12.8757 25.9009C12.2978 24.5057 12.0003 23.0103 12.0003 21.5001C12.0003 19.9899 12.2978 18.4945 12.8757 17.0992C13.4536 15.704 14.3007 14.4362 15.3686 13.3684" stroke="#3C1A53" stroke-width="2" stroke-linecap="round"/>
</g>
<defs>
<clipPath id="clip0_2512_743">
<rect width="50" height="50" fill="white"/>
</clipPath>
</defs>
</svg>
