<svg width="50" height="50" viewBox="0 0 50 50" fill="none" xmlns="http://www.w3.org/2000/svg">
<rect width="50" height="50" fill="white"/>
<path fill-rule="evenodd" clip-rule="evenodd" d="M10 5C8.89543 5 8 5.89543 8 7V45C8 46.1046 8.89543 47 10 47H40C41.1046 47 42 46.1046 42 45V7C42 5.89543 41.1046 5 40 5H10ZM13 10.5C13.8284 10.5 14.5 9.82843 14.5 9C14.5 8.17157 13.8284 7.5 13 7.5C12.1716 7.5 11.5 8.17157 11.5 9C11.5 9.82843 12.1716 10.5 13 10.5ZM20.5 9C20.5 9.82843 19.8284 10.5 19 10.5C18.1716 10.5 17.5 9.82843 17.5 9C17.5 8.17157 18.1716 7.5 19 7.5C19.8284 7.5 20.5 8.17157 20.5 9ZM25 10.5C25.8284 10.5 26.5 9.82843 26.5 9C26.5 8.17157 25.8284 7.5 25 7.5C24.1716 7.5 23.5 8.17157 23.5 9C23.5 9.82843 24.1716 10.5 25 10.5ZM38.5 9C38.5 9.82843 37.8284 10.5 37 10.5C36.1716 10.5 35.5 9.82843 35.5 9C35.5 8.17157 36.1716 7.5 37 7.5C37.8284 7.5 38.5 8.17157 38.5 9ZM32.5 9C32.5 9.82843 31.8284 10.5 31 10.5C30.1716 10.5 29.5 9.82843 29.5 9C29.5 8.17157 30.1716 7.5 31 7.5C31.8284 7.5 32.5 8.17157 32.5 9Z" fill="#F6F4F0"/>
<path d="M8 43V45C8 46.1046 8.89543 47 10 47H40C41.1046 47 42 46.1046 42 45V9L8 43Z" fill="#E8E3DB"/>
<path d="M8 7C8 5.89543 8.89543 5 10 5H40C41.1046 5 42 5.89543 42 7V45C42 46.1046 41.1046 47 40 47H10C8.89543 47 8 46.1046 8 45V7Z" stroke="#3C1A53" stroke-width="2"/>
<circle cx="37" cy="9" r="1.5" stroke="#3C1A53" stroke-width="2"/>
<circle cx="25" cy="9" r="1.5" stroke="#3C1A53" stroke-width="2"/>
<circle cx="31" cy="9" r="1.5" stroke="#3C1A53" stroke-width="2"/>
<circle cx="19" cy="9" r="1.5" stroke="#3C1A53" stroke-width="2"/>
<circle cx="13" cy="9" r="1.5" stroke="#3C1A53" stroke-width="2"/>
<path d="M38 3C38 2.44772 37.5523 2 37 2C36.4477 2 36 2.44772 36 3H38ZM36 3V5.5H38V3H36ZM36 5.5V8H38V5.5H36Z" fill="#3C1A53"/>
<path d="M26 3C26 2.44772 25.5523 2 25 2C24.4477 2 24 2.44772 24 3H26ZM24 3V5.5H26V3H24ZM24 5.5V8H26V5.5H24Z" fill="#3C1A53"/>
<path d="M32 3C32 2.44772 31.5523 2 31 2C30.4477 2 30 2.44772 30 3H32ZM30 3V5.5H32V3H30ZM30 5.5V8H32V5.5H30Z" fill="#3C1A53"/>
<path d="M20 3C20 2.44772 19.5523 2 19 2C18.4477 2 18 2.44772 18 3H20ZM18 3V5.5H20V3H18ZM18 5.5V8H20V5.5H18Z" fill="#3C1A53"/>
<path d="M14 3C14 2.44772 13.5523 2 13 2C12.4477 2 12 2.44772 12 3H14ZM12 3V5.5H14V3H12ZM12 5.5V8H14V5.5H12Z" fill="#3C1A53"/>
<path d="M13 17H37M13 37H19M13 27H27M32.5 32H37M13 22H32M13 32H22M27.5 37H37" stroke="#3C1A53" stroke-width="2" stroke-linecap="round"/>
<path d="M36.5 17.5L21 33L26 38L41.5 22.5L36.5 17.5Z" fill="#F7D66C"/>
<path d="M37.5 18.5L22 34L23.5 35.5L39 20L37.5 18.5Z" fill="#F2BB0A"/>
<path d="M26 38L41.5 22.5L40 21L24.5 36.5L26 38Z" fill="#F2BB0A"/>
<path d="M44 20L39 15L36.5 17.5L41.5 22.5L44 20Z" fill="#BAB6B0"/>
<path d="M44 20L40 16L37.5 18.5L41.5 22.5L44 20Z" fill="#8C857B"/>
<path d="M40.5 13.5L39 15L44 20L45.5 18.5C46.8807 17.1193 46.8807 14.8807 45.5 13.5C44.1193 12.1193 41.8807 12.1193 40.5 13.5Z" fill="#F57C75"/>
<path d="M41.5 14.5L40 16L44 20L45.5 18.5C46.6046 17.3954 46.6046 15.6046 45.5 14.5C44.3954 13.3954 42.6046 13.3954 41.5 14.5Z" fill="#ED0C00"/>
<path d="M25.0417 38.9583L26 38L21 33L20.0417 33.9583C20.0143 33.9857 19.9936 34.0192 19.9813 34.056L17.6581 41.0257C17.593 41.2211 17.7789 41.407 17.9743 41.3419L24.944 39.0187C24.9808 39.0064 25.0143 38.9857 25.0417 38.9583Z" fill="#F6F4F0"/>
<path d="M26 38L25.0342 38.9659C25.0183 38.9817 25.0004 38.9953 24.981 39.0064L19.3579 40.8807L21.4813 34.5557C21.4936 34.5191 21.5142 34.4858 21.5415 34.4585L22 34L26 38Z" fill="#E8E3DB"/>
<path d="M39 15L40.5 13.5C41.8807 12.1193 44.1193 12.1193 45.5 13.5V13.5C46.8807 14.8807 46.8807 17.1193 45.5 18.5L44 20M39 15L44 20M39 15L36.5 17.5M44 20L41.5 22.5M36.5 17.5L21 33L23.5 35.5M36.5 17.5L39 20M41.5 22.5L26 38L23.5 35.5M41.5 22.5L39 20M39 20L23.5 35.5" stroke="#3C1A53" stroke-width="2" stroke-linecap="round"/>
<path d="M25.0417 38.9583L25.8232 38.1768C25.9209 38.0791 25.9209 37.9209 25.8232 37.8232L21.1768 33.1768C21.0791 33.0791 20.9209 33.0791 20.8232 33.1768L20.0417 33.9583C20.0143 33.9857 19.9936 34.0192 19.9813 34.056L17.6581 41.0257C17.593 41.2211 17.7789 41.407 17.9743 41.3419L24.944 39.0187C24.9808 39.0064 25.0143 38.9857 25.0417 38.9583Z" stroke="#3C1A53" stroke-width="2" stroke-linecap="round"/>
</svg>
