<svg width="50" height="50" viewBox="0 0 50 50" fill="none" xmlns="http://www.w3.org/2000/svg">
<g clip-path="url(#clip0_2432_1399)">
<rect width="50" height="50" fill="white"/>
<path d="M25 47C12.8497 47 3 37.1503 3 25C3 12.8497 12.8497 3 25 3C37.1503 3 47 12.8497 47 25C47 29.0092 45.9276 32.768 44.0539 36.005L46.8879 46.5817C46.9377 46.7676 46.7676 46.9377 46.5817 46.8879L36.005 44.0539C32.768 45.9276 29.0092 47 25 47Z" fill="#F6F4F0"/>
<circle cx="25" cy="25" r="20" fill="#8A7098"/>
<path d="M10.858 10.8579C3.04747 18.6684 3.04747 31.3316 10.858 39.1421L39.1422 10.8579C31.3317 3.04738 18.6684 3.04738 10.858 10.8579Z" fill="#B19FBA"/>
<path d="M44.0539 36.005L43.088 36.2638L42.9806 35.8631L43.1884 35.5041L44.0539 36.005ZM46.8879 46.5817L45.922 46.8406L45.922 46.8406L46.8879 46.5817ZM46.5817 46.8879L46.8406 45.922L46.8406 45.922L46.5817 46.8879ZM36.005 44.0539L35.504 43.1884L35.8631 42.9806L36.2638 43.088L36.005 44.0539ZM4 25C4 36.598 13.402 46 25 46V48C12.2975 48 2 37.7025 2 25H4ZM25 4C13.402 4 4 13.402 4 25H2C2 12.2975 12.2975 2 25 2V4ZM46 25C46 13.402 36.598 4 25 4V2C37.7025 2 48 12.2975 48 25H46ZM43.1884 35.5041C44.9763 32.4152 46 28.8286 46 25H48C48 29.1898 46.8788 33.1208 44.9194 36.506L43.1884 35.5041ZM45.0198 35.7462L47.8539 46.3229L45.922 46.8406L43.088 36.2638L45.0198 35.7462ZM47.8539 46.3229C48.1029 47.2524 47.2524 48.1029 46.3229 47.8539L46.8406 45.922C46.2829 45.7726 45.7726 46.2829 45.922 46.8406L47.8539 46.3229ZM46.3229 47.8539L35.7462 45.0198L36.2638 43.088L46.8406 45.922L46.3229 47.8539ZM25 46C28.8286 46 32.4152 44.9763 35.504 43.1884L36.5059 44.9194C33.1208 46.8788 29.1898 48 25 48V46Z" fill="#3C1A53"/>
<path d="M24.7692 9.05498C24.8546 8.84966 25.1454 8.84966 25.2308 9.05498L29.4379 19.17C29.4739 19.2566 29.5553 19.3157 29.6488 19.3232L40.5688 20.1987C40.7905 20.2164 40.8804 20.4931 40.7115 20.6377L32.3916 27.7646C32.3204 27.8256 32.2893 27.9213 32.311 28.0125L34.8529 38.6686C34.9045 38.8849 34.6692 39.0559 34.4794 38.94L25.1303 33.2296C25.0503 33.1807 24.9497 33.1807 24.8697 33.2296L15.5206 38.94C15.3308 39.0559 15.0955 38.8849 15.1471 38.6686L17.689 28.0125C17.7107 27.9213 17.6796 27.8256 17.6084 27.7646L9.28853 20.6377C9.11964 20.4931 9.20953 20.2164 9.43119 20.1987L20.3512 19.3232C20.4447 19.3157 20.5261 19.2566 20.5621 19.17L24.7692 9.05498Z" fill="#F2BB0A"/>
<path d="M30.6006 19.3995L29.6489 19.3232C29.5554 19.3157 29.474 19.2566 29.438 19.17L25.2309 9.05499C25.1455 8.84967 24.8547 8.84967 24.7693 9.05499L20.5622 19.17C20.5262 19.2566 20.4448 19.3157 20.3513 19.3232L9.4313 20.1987C9.20964 20.2165 9.11976 20.4931 9.28864 20.6378L17.6086 27.7647C17.6798 27.8256 17.7109 27.9213 17.6891 28.0125L16.3426 33.6576L30.6006 19.3995Z" fill="#F7D66C"/>
<path d="M24.7692 9.05498C24.8546 8.84966 25.1454 8.84966 25.2308 9.05498L29.4379 19.17C29.4739 19.2566 29.5553 19.3157 29.6488 19.3232L40.5688 20.1987C40.7905 20.2164 40.8804 20.4931 40.7115 20.6377L32.3916 27.7646C32.3204 27.8256 32.2893 27.9213 32.311 28.0125L34.8529 38.6686C34.9045 38.8849 34.6692 39.0559 34.4794 38.94L25.1303 33.2296C25.0503 33.1807 24.9497 33.1807 24.8697 33.2296L15.5206 38.94C15.3308 39.0559 15.0955 38.8849 15.1471 38.6686L17.689 28.0125C17.7107 27.9213 17.6796 27.8256 17.6084 27.7646L9.28853 20.6377C9.11964 20.4931 9.20953 20.2164 9.43119 20.1987L20.3512 19.3232C20.4447 19.3157 20.5261 19.2566 20.5621 19.17L24.7692 9.05498Z" stroke="#3C1A53" stroke-width="2"/>
</g>
<defs>
<clipPath id="clip0_2432_1399">
<rect width="50" height="50" fill="white"/>
</clipPath>
</defs>
</svg>
