<svg width="50" height="50" viewBox="0 0 50 50" fill="none" xmlns="http://www.w3.org/2000/svg">
<path d="M21 4.5C21 3.67157 21.6716 3 22.5 3H27.5C28.3284 3 29 3.67157 29 4.5V23H21V4.5Z" fill="#B19FBA"/>
<path d="M23.5 5C23.5 4.44771 23.9477 4 24.5 4H27.5C28.3284 4 29 4.67157 29 5.5V23H23.5V5Z" fill="#8A7098"/>
<path d="M21 4.5C21 3.67157 21.6716 3 22.5 3H27.5C28.3284 3 29 3.67157 29 4.5V23H21V4.5Z" stroke="#3C1A53" stroke-width="2"/>
<path d="M25 20C25.5523 20 26 19.5523 26 19C26 18.4477 25.5523 18 25 18V20ZM24.0001 17C24.5524 17 25.0001 16.5523 25.0001 16C25.0001 15.4477 24.5524 15 24.0001 15V17ZM25.0001 14C25.5524 14 26.0001 13.5523 26.0001 13C26.0001 12.4477 25.5524 12 25.0001 12V14ZM24.0001 11C24.5524 11 25.0001 10.5523 25.0001 10C25.0001 9.44772 24.5524 9 24.0001 9V11ZM25.0528 8C25.6051 8 26.0528 7.55228 26.0528 7C26.0528 6.44772 25.6051 6 25.0528 6V8ZM21 20H25V18H21V20ZM21.0001 17H24.0001V15H21.0001V17ZM21.0001 14H25.0001V12H21.0001V14ZM21.0001 11H24.0001V9H21.0001V11ZM21.0001 8H25.0528V6H21.0001V8Z" fill="#3C1A53"/>
<path d="M34 23L41.5 15.5L36.5 10.5L24 23H34Z" fill="#F2BB0A"/>
<path d="M36.5 10.5L24 23H26.0625L37.5 11.5L36.5 10.5Z" fill="#F7D66C"/>
<path d="M39 13L29 23H31L40 14L39 13Z" fill="#F7D66C"/>
<path d="M37.5 9.5L36.5 10.5L41.5 15.5L42.5 14.5L44.8419 7.47434C44.907 7.2789 44.7211 7.09297 44.5257 7.15811L37.5 9.5Z" fill="#F6F4F0"/>
<path d="M44.375 8.875L42.5 14.5L41.5 15.5L37.5 11.5L38 11L44.375 8.875Z" fill="#E8E3DB"/>
<path d="M29 23H34L41.5 15.5L39 13M29 23H24L36.5 10.5L39 13M29 23L39 13" stroke="#3C1A53" stroke-width="2" stroke-linecap="round"/>
<path d="M37.4583 9.54173L36.6768 10.3232C36.5791 10.4209 36.5791 10.5791 36.6768 10.6768L41.3232 15.3232C41.4209 15.4209 41.5791 15.4209 41.6768 15.3232L42.4583 14.5417C42.4857 14.5143 42.5064 14.4808 42.5187 14.444L44.8419 7.47434C44.907 7.2789 44.7211 7.09297 44.5257 7.15811L37.556 9.48134C37.5192 9.49361 37.4857 9.51429 37.4583 9.54173Z" stroke="#3C1A53" stroke-width="2" stroke-linecap="round"/>
<path d="M13.1857 16.4333L16 23H20L15.241 15.3855C15.1043 15.1669 14.8239 15.088 14.5934 15.2033L13.4217 15.7892C13.1849 15.9076 13.0814 16.19 13.1857 16.4333Z" fill="#E8E3DB"/>
<path d="M15.0644 7.83024C13.9246 6.69052 13.4548 5.94878 13.9423 3.3002C13.9709 3.14505 13.8525 2.99977 13.6949 3.00663C9.77619 3.17702 6.5126 6.61339 7.00005 11C7.28255 13.5423 9.19209 15.5 11.75 15.5C14.308 15.5 16.5 13.558 16.5 11C16.5 9.72103 15.9025 8.66839 15.0644 7.83024Z" fill="#F15047"/>
<path d="M12.8836 15.3703C11.1857 14.6553 10.0194 13.0021 9.79998 11.0276C9.41982 7.60653 11.2488 4.74024 13.9131 3.46313C13.4746 5.97982 13.9484 6.71424 15.0644 7.83023C15.9025 8.66838 16.5 9.72102 16.5 11C16.5 13.1695 14.9232 14.896 12.8836 15.3703Z" fill="#ED0C00"/>
<path d="M15.0644 7.83024C13.9246 6.69052 13.4548 5.94878 13.9423 3.3002C13.9709 3.14505 13.8525 2.99977 13.6949 3.00663C9.77619 3.17702 6.5126 6.61339 7.00005 11C7.28255 13.5423 9.19209 15.5 11.75 15.5C14.308 15.5 16.5 13.558 16.5 11C16.5 9.72103 15.9025 8.66839 15.0644 7.83024Z" stroke="#3C1A53" stroke-width="2"/>
<path d="M16 23L13 16M20 23L15 15" stroke="#3C1A53" stroke-width="2"/>
<path d="M36.75 23H13.25C13.1119 23 13 23.1119 13 23.25V43.5C13 45.433 14.567 47 16.5 47H33.5C35.433 47 37 45.433 37 43.5V23.25C37 23.1119 36.8881 23 36.75 23Z" fill="#F6F4F0"/>
<path d="M36.75 23H17V42.5C17 44.433 18.567 46 20.5 46H33.5C35.433 46 37 44.433 37 42.5V23.25C37 23.1119 36.8881 23 36.75 23Z" fill="#E8E3DB"/>
<path d="M36.75 23H13.25C13.1119 23 13 23.1119 13 23.25V43.5C13 45.433 14.567 47 16.5 47H33.5C35.433 47 37 45.433 37 43.5V23.25C37 23.1119 36.8881 23 36.75 23Z" stroke="#3C1A53" stroke-width="2"/>
<path d="M13.1053 26H10.7895H10C7.23858 26 5 28.2386 5 31V33C5 35.7614 7.23858 38 10 38H10.7895H13.1053" stroke="#3C1A53" stroke-width="2"/>
</svg>
