<svg width="50" height="50" viewBox="0 0 50 50" fill="none" xmlns="http://www.w3.org/2000/svg">
<g clip-path="url(#clip0_2512_672)">
<path d="M25 47C12.8497 47 3 37.1503 3 25C3 12.8497 12.8497 3 25 3C37.1503 3 47 12.8497 47 25C47 29.0092 45.9276 32.768 44.0539 36.005L46.8879 46.5817C46.9377 46.7676 46.7676 46.9377 46.5817 46.8879L36.005 44.0539C32.768 45.9276 29.0092 47 25 47Z" fill="#F6F4F0"/>
<circle cx="25" cy="25" r="20" fill="#8A7098"/>
<path d="M10.858 10.8579C3.04747 18.6684 3.04747 31.3316 10.858 39.1421L39.1422 10.8579C31.3317 3.04738 18.6684 3.04738 10.858 10.8579Z" fill="#B19FBA"/>
<path d="M44.0539 36.005L43.088 36.2638L42.9806 35.8631L43.1884 35.5041L44.0539 36.005ZM46.8879 46.5817L45.922 46.8406L45.922 46.8406L46.8879 46.5817ZM46.5817 46.8879L46.8406 45.922L46.8406 45.922L46.5817 46.8879ZM36.005 44.0539L35.504 43.1884L35.8631 42.9806L36.2638 43.088L36.005 44.0539ZM4 25C4 36.598 13.402 46 25 46V48C12.2975 48 2 37.7025 2 25H4ZM25 4C13.402 4 4 13.402 4 25H2C2 12.2975 12.2975 2 25 2V4ZM46 25C46 13.402 36.598 4 25 4V2C37.7025 2 48 12.2975 48 25H46ZM43.1884 35.5041C44.9763 32.4152 46 28.8286 46 25H48C48 29.1898 46.8788 33.1208 44.9194 36.506L43.1884 35.5041ZM45.0198 35.7462L47.8539 46.3229L45.922 46.8406L43.088 36.2638L45.0198 35.7462ZM47.8539 46.3229C48.1029 47.2524 47.2524 48.1029 46.3229 47.8539L46.8406 45.922C46.2829 45.7726 45.7726 46.2829 45.922 46.8406L47.8539 46.3229ZM46.3229 47.8539L35.7462 45.0198L36.2638 43.088L46.8406 45.922L46.3229 47.8539ZM25 46C28.8286 46 32.4152 44.9763 35.504 43.1884L36.5059 44.9194C33.1208 46.8788 29.1898 48 25 48V46Z" fill="#3C1A53"/>
<path fill-rule="evenodd" clip-rule="evenodd" d="M31 33.9065C31 33.7167 31.108 33.5439 31.276 33.4555C35.5711 31.1962 38.5 26.6901 38.5 21.4999C38.5 14.0441 32.4558 7.99994 25 7.99994C17.5442 7.99994 11.5 14.0441 11.5 21.4999C11.5 26.6901 14.4289 31.1962 18.724 33.4555C18.892 33.5439 19 33.7167 19 33.9065V35.9999C19 36.2761 19.2239 36.4999 19.5 36.4999H30.5C30.7761 36.4999 31 36.2761 31 35.9999V33.9065Z" fill="#F2BB0A"/>
<path d="M15.4541 11.954C10.1821 17.2261 10.1821 25.7738 15.4541 31.0459L34.546 11.954C29.2739 6.68192 20.7262 6.68192 15.4541 11.954Z" fill="#F7D66C"/>
<path d="M20.1092 21.8589L16.6665 25.441C16.5735 25.5378 16.5735 25.6907 16.6665 25.7875L23.8786 33.2915C23.9842 33.4014 24.1628 33.392 24.2563 33.2716L39.8647 13.1741C39.942 13.0746 39.9332 12.9331 39.8441 12.844L38.1811 11.1811C38.0818 11.0818 37.9202 11.0837 37.8233 11.1854L24.2592 25.425C24.1609 25.5281 23.9966 25.5285 23.8979 25.4258L20.4697 21.8589C20.3714 21.7566 20.2076 21.7566 20.1092 21.8589Z" fill="#E8E3DB"/>
<path d="M20 39H30" stroke="#3C1A53" stroke-width="2" stroke-linecap="round"/>
<path d="M21 41.5L29 41.5" stroke="#3C1A53" stroke-width="2" stroke-linecap="round"/>
<path d="M38.2949 19.1558C38.8468 22.2854 38.2768 25.5094 36.6855 28.2602C35.4027 30.4776 33.5224 32.273 31.2762 33.4524C31.1081 33.5407 31 33.7136 31 33.9035V36C31 36.2761 30.7762 36.5 30.5 36.5H19.5C19.2239 36.5 19 36.2761 19 36V33.9035C19 33.7136 18.892 33.5407 18.7238 33.4524C16.4597 32.2636 14.5682 30.4494 13.2852 28.2091C11.7058 25.4514 11.15 22.225 11.7155 19.0978C12.281 15.9705 13.9316 13.1431 16.3767 11.1131C18.8218 9.08314 21.9046 7.98084 25.0825 8.00025C28.2604 8.01967 31.3295 9.15955 33.7496 11.2192" stroke="#3C1A53" stroke-width="2" stroke-linecap="round"/>
<path d="M20.1092 21.859L16.6665 25.4411C16.5735 25.5378 16.5735 25.6908 16.6665 25.7875L23.8786 33.2915C23.9842 33.4014 24.1628 33.392 24.2563 33.2716L39.8647 13.1742C39.942 13.0747 39.9332 12.9332 39.8441 12.8441L38.1811 11.1811C38.0818 11.0818 37.9202 11.0838 37.8233 11.1855L24.2592 25.4251C24.1609 25.5282 23.9966 25.5286 23.8979 25.4259L20.4697 21.859C20.3714 21.7566 20.2076 21.7566 20.1092 21.859Z" stroke="#3C1A53" stroke-width="2" stroke-linecap="round"/>
</g>
<defs>
<clipPath id="clip0_2512_672">
<rect width="50" height="50" fill="white"/>
</clipPath>
</defs>
</svg>
