<svg width="50" height="50" viewBox="0 0 50 50" fill="none" xmlns="http://www.w3.org/2000/svg">
<rect x="5" y="12" width="40" height="26" fill="#F2BB0A"/>
<path d="M38 12L12 38H5V12H38Z" fill="#F7D66C"/>
<path d="M5 7C5 5.89543 5.89543 5 7 5H43C44.1046 5 45 5.89543 45 7V12H5V7Z" fill="#E8E3DB"/>
<path d="M5 38H45V43C45 44.1046 44.1046 45 43 45H7C5.89543 45 5 44.1046 5 43V38Z" fill="#E8E3DB"/>
<path d="M18 31.2355V18.7645C18 18.4039 18.3701 18.1619 18.7004 18.3064L32.953 24.5419C33.3524 24.7167 33.3524 25.2833 32.953 25.4581L18.7004 31.6936C18.3701 31.8381 18 31.5961 18 31.2355Z" fill="#B19FBA"/>
<rect x="5" y="5" width="40" height="40" rx="2" stroke="#3C1A53" stroke-width="2"/>
<path d="M5 12H45" stroke="#3C1A53" stroke-width="2"/>
<path d="M5 38H45" stroke="#3C1A53" stroke-width="2"/>
<path d="M18 31.2355V18.7645C18 18.4039 18.3701 18.1619 18.7004 18.3064L32.953 24.5419C33.3524 24.7167 33.3524 25.2833 32.953 25.4581L18.7004 31.6936C18.3701 31.8381 18 31.5961 18 31.2355Z" stroke="#3C1A53" stroke-width="2"/>
<path d="M39 8.5H41" stroke="#3C1A53" stroke-width="2" stroke-linecap="round"/>
<path d="M31.5 8.5H33.5" stroke="#3C1A53" stroke-width="2" stroke-linecap="round"/>
<path d="M24 8.5H26" stroke="#3C1A53" stroke-width="2" stroke-linecap="round"/>
<path d="M16.5 8.5H18.5" stroke="#3C1A53" stroke-width="2" stroke-linecap="round"/>
<path d="M9 8.5H11" stroke="#3C1A53" stroke-width="2" stroke-linecap="round"/>
<path d="M39 41.5H41" stroke="#3C1A53" stroke-width="2" stroke-linecap="round"/>
<path d="M31.5 41.5H33.5" stroke="#3C1A53" stroke-width="2" stroke-linecap="round"/>
<path d="M24 41.5H26" stroke="#3C1A53" stroke-width="2" stroke-linecap="round"/>
<path d="M16.5 41.5H18.5" stroke="#3C1A53" stroke-width="2" stroke-linecap="round"/>
<path d="M9 41.5H11" stroke="#3C1A53" stroke-width="2" stroke-linecap="round"/>
</svg>
